<?xml version="1.0" encoding="utf-8"?>
<!-- Generator: Adobe Illustrator 16.0.4, SVG Export Plug-In . SVG Version: 6.00 Build 0)  -->
<!DOCTYPE svg PUBLIC "-//W3C//DTD SVG 1.1//EN" "http://www.w3.org/Graphics/SVG/1.1/DTD/svg11.dtd">
<svg version="1.1" id="Capa_1" xmlns="http://www.w3.org/2000/svg" xmlns:xlink="http://www.w3.org/1999/xlink" x="0px" y="0px"
	 width="64px" height="64px" viewBox="0 0 64 64" enable-background="new 0 0 64 64" xml:space="preserve">
<g>
	<circle cx="27.317" cy="7.178" r="4.971"/>
	<path d="M47.432,47.876c-0.959-0.457-2.107-0.054-2.566,0.906c-2.67,5.585-8.395,9.192-14.582,9.192
		c-8.907,0-16.155-7.246-16.155-16.154c0-5.057,2.303-9.729,6.319-12.816c0.843-0.648,1.001-1.856,0.354-2.698
		c-0.649-0.844-1.856-1-2.698-0.354c-4.97,3.822-7.822,9.606-7.822,15.868c0,11.029,8.973,20.004,20.003,20.004
		c7.659,0,14.747-4.469,18.053-11.381C48.795,49.482,48.389,48.335,47.432,47.876z"/>
	<path d="M59.018,49.361L48.654,32.734c-0.495-0.795-1.475-0.982-2.518-0.944H33.089c-0.53,0-0.959-0.056-0.956-0.123l0.007-0.123
		v-2.118c0-0.531,0.085-0.946,0.192-0.935c0.064,0.007,0.13,0.012,0.195,0.012h11.385c1.283,0,2.324-1.041,2.324-2.325
		c0-1.283-1.041-2.324-2.324-2.324H32.527c-0.065,0-0.131,0.004-0.195,0.011c-0.107,0.013-0.192-0.402-0.192-0.934v-5.437
		c0-2.067-1.676-3.742-3.742-3.742h-1.039c-2.068,0-3.743,1.675-3.743,3.742v14.533v4.278c0,2.066,1.675,3.742,3.743,3.742h1.039
		h1.806H45.27c0.531,0,1.198,0.359,1.491,0.803c1.802,2.723,7.569,11.434,7.569,11.434c0.695,1.117,2.312,1.371,3.607,0.564
		C59.23,52.041,59.713,50.48,59.018,49.361z"/>
</g>
</svg>
