<?xml version="1.0" encoding="utf-8"?>
<!-- Generator: Adobe Illustrator 16.0.4, SVG Export Plug-In . SVG Version: 6.00 Build 0)  -->
<!DOCTYPE svg PUBLIC "-//W3C//DTD SVG 1.1//EN" "http://www.w3.org/Graphics/SVG/1.1/DTD/svg11.dtd">
<svg version="1.1" id="Capa_1" xmlns="http://www.w3.org/2000/svg" xmlns:xlink="http://www.w3.org/1999/xlink" x="0px" y="0px"
	 width="64px" height="64px" viewBox="0 0 64 64" enable-background="new 0 0 64 64" xml:space="preserve">
<g>
	<path d="M21.985,13.201l1.307-0.292c1.641-0.366,4.11-1.1,6.555-2.509l0.681-0.392c0.377-0.217,0.547-0.718,0.379-1.12
		c-0.167-0.401-0.303-0.726-0.303-0.726C29.908,6.49,28.288,5.41,26.478,5.41h-0.894c-2.465,0-4.471,2.006-4.471,4.471v2.621
		C21.113,12.996,21.504,13.309,21.985,13.201z"/>
	<path d="M48.081,29.597c-0.578-1.044-1.529-1.8-2.679-2.13l-0.855-0.246c-0.177-0.05-0.355-0.09-0.535-0.123
		c-0.299-0.054-0.533-0.486-0.633-0.969c-0.413-2.042-2.221-3.583-4.382-3.583h-0.896c-0.225,0-0.447,0.017-0.664,0.049
		c-0.363,0.055-0.812-0.223-1.106-0.619c-0.815-1.099-2.122-1.813-3.595-1.813h-0.894c-0.151,0-0.302,0.007-0.45,0.022
		c-0.247,0.025-0.443-0.332-0.443-0.827v-1.697c0-0.494-0.355-0.709-0.793-0.48l-1.822,0.95c-1.621,0.846-3.588,1.548-5.849,2.087
		L21.8,20.382c-0.378,0.091-0.686,0.565-0.686,1.059V33.29c0,0.494-0.303,0.632-0.676,0.31l-2.752-2.384
		c-0.812-0.702-1.851-1.089-2.924-1.089c-1.3,0-2.532,0.563-3.381,1.543l-0.587,0.678c-0.782,0.903-1.164,2.056-1.079,3.248
		c0.084,1.165,0.608,2.231,1.476,3.008l11.527,11.617c0.348,0.352,0.63,1.035,0.63,1.529v6.268c0,0.493,0.4,0.894,0.895,0.894h17.86
		c0.494,0,0.895-0.399,0.895-0.896v-6.018c0-0.494,0.116-1.277,0.258-1.75l5.212-17.25C48.798,31.85,48.66,30.643,48.081,29.597z
		 M45.037,31.989L39.68,49.721c-0.143,0.473-0.259,1.256-0.259,1.75v2.969c0,0.496-0.399,0.896-0.896,0.896H27.819
		c-0.494,0-0.894-0.399-0.895-0.896v-4.164c0-0.494-0.281-1.178-0.629-1.528L13.689,36.042l-0.1-0.093
		c-0.245-0.211-0.297-0.473-0.307-0.611c-0.011-0.137,0.004-0.406,0.214-0.646l0.588-0.678c0.233-0.271,0.524-0.311,0.677-0.311
		c0.151,0,0.375,0.038,0.584,0.218l8.668,7.503c0.373,0.323,0.676,0.186,0.676-0.309V24.236c0-0.495,0.386-1,0.857-1.146
		c0.335-0.102,0.663-0.209,0.984-0.32c0.467-0.16,0.841,0.096,0.841,0.59v0.38c0,0.495,0.401,0.894,0.895,0.894h1.788
		c0.494,0,0.882-0.358,1.156-0.632c0.162-0.162,0.386-0.262,0.632-0.262h0.895c0.494,0,0.895,0.401,0.895,0.894v1.49
		c0,0.495,0.4,0.894,0.895,0.894h1.789c0.494,0,0.881-0.358,1.154-0.632c0.163-0.162,0.387-0.262,0.633-0.262h0.896
		c0.494,0,0.894,0.401,0.894,0.894v5.121c0,0.495,0.317,0.651,0.709,0.349l2.17-1.67c0.229-0.176,0.513-0.238,0.791-0.157
		l0.856,0.246c0.31,0.088,0.47,0.305,0.537,0.425C45.02,31.454,45.119,31.703,45.037,31.989z"/>
	<path d="M21.648,13.915c-0.247,0-0.447,0.2-0.447,0.447v5.066c0,0.247,0.2,0.447,0.447,0.447s0.448-0.2,0.447-0.447v-5.066
		C22.095,14.115,21.895,13.915,21.648,13.915z"/>
	<path d="M22.746,14.054v4.918c0,0.247,0.2,0.446,0.447,0.446s0.448-0.199,0.447-0.446v-4.918c0-0.247-0.2-0.446-0.447-0.446
		S22.746,13.807,22.746,14.054z"/>
	<path d="M24.297,13.705v4.707c0,0.247,0.2,0.447,0.447,0.447s0.447-0.2,0.447-0.447v-4.707c0-0.247-0.2-0.447-0.447-0.447
		S24.297,13.458,24.297,13.705z"/>
	<path d="M25.75,13.28v4.704c0,0.247,0.2,0.447,0.447,0.447c0.247,0,0.447-0.201,0.447-0.448V13.28c0-0.247-0.2-0.447-0.447-0.447
		C25.95,12.833,25.75,13.033,25.75,13.28z"/>
	<path d="M27.245,12.629v4.628c0,0.247,0.199,0.447,0.447,0.447c0.247,0,0.447-0.2,0.446-0.447v-4.628
		c0-0.247-0.199-0.447-0.446-0.447C27.444,12.182,27.245,12.382,27.245,12.629z"/>
	<path d="M28.726,12.024v4.637c0,0.247,0.2,0.446,0.447,0.446s0.447-0.199,0.447-0.446v-4.637c0-0.248-0.2-0.447-0.447-0.447
		S28.726,11.776,28.726,12.024z"/>
	<path d="M30.57,10.758c-0.247,0-0.447,0.2-0.447,0.447v4.804c0,0.248,0.2,0.447,0.447,0.447c0.247,0,0.448-0.199,0.447-0.447
		v-4.804C31.017,10.958,30.817,10.758,30.57,10.758z"/>
</g>
</svg>
