<?xml version="1.0" encoding="utf-8"?>
<!-- Generator: Adobe Illustrator 16.0.4, SVG Export Plug-In . SVG Version: 6.00 Build 0)  -->
<!DOCTYPE svg PUBLIC "-//W3C//DTD SVG 1.1//EN" "http://www.w3.org/Graphics/SVG/1.1/DTD/svg11.dtd">
<svg version="1.1" id="Capa_1" xmlns="http://www.w3.org/2000/svg" xmlns:xlink="http://www.w3.org/1999/xlink" x="0px" y="0px"
	 width="64px" height="64px" viewBox="0 0 64 64" enable-background="new 0 0 64 64" xml:space="preserve">
<path d="M33.286,3.57c-0.61-0.921-1.616-0.921-2.226,0c-3.889,5.879-16.637,25.781-16.637,34.089c0,9.803,7.947,17.75,17.75,17.75
	c9.804,0,17.75-7.947,17.75-17.75C49.923,29.352,37.175,9.449,33.286,3.57z M40.768,22.878c-1.66,0.576-5.246,1.663-8.446,1.582
	c-3.221-0.081-6.999-1.105-8.731-1.627c-0.529-0.159-0.735-0.691-0.462-1.172c3.141-5.525,6.374-10.481,8-12.939
	c0.588-0.888,1.559-0.888,2.146,0c1.615,2.443,4.818,7.446,7.939,12.939C41.488,22.141,41.29,22.696,40.768,22.878z M42.043,49.312
	c-0.096,0.086-0.215,0.127-0.334,0.127c-0.137,0-0.273-0.056-0.372-0.166c-0.185-0.205-0.167-0.521,0.038-0.705
	c2.854-2.561,4.796-6.036,5.467-9.789c0.049-0.271,0.312-0.446,0.58-0.404c0.271,0.049,0.453,0.309,0.404,0.58
	C47.116,42.926,45.062,46.604,42.043,49.312z"/>
</svg>
