<?xml version="1.0" encoding="utf-8"?>
<!-- Generator: Adobe Illustrator 16.0.4, SVG Export Plug-In . SVG Version: 6.00 Build 0)  -->
<!DOCTYPE svg PUBLIC "-//W3C//DTD SVG 1.1//EN" "http://www.w3.org/Graphics/SVG/1.1/DTD/svg11.dtd">
<svg version="1.1" id="Capa_1" xmlns="http://www.w3.org/2000/svg" xmlns:xlink="http://www.w3.org/1999/xlink" x="0px" y="0px"
	 width="64px" height="64px" viewBox="0 0 64 64" enable-background="new 0 0 64 64" xml:space="preserve">
<g>
	<circle cx="28.173" cy="11.984" r="11.491"/>
	<path d="M20.986,47.43h0.188c0.008-5.188,0.429-17.873,4.212-21.934h-9.909c-1.413,0-2.841,1.144-2.841,2.561v24.972
		c0,0.566,0.195,1.087,0.521,1.498c0.555,0.697,1.274,0.56,1.237,0.195c-0.021-0.22-0.033-0.439-0.033-0.664
		C14.361,50.404,17.333,47.43,20.986,47.43z"/>
	<path d="M29.516,59.936h3.659c-1.636-0.722-2.938-1.074-3.637-1.23C29.54,59.098,29.529,59.516,29.516,59.936z"/>
	<path d="M24.526,49.68c0.742,1.438,1.945,4.668,1.746,10.258h2.242c0.204-6.496-1.571-9.621-1.989-10.258H24.526z"/>
	<path d="M17.017,57.754c0.929,1.314,2.453,2.184,4.182,2.184h0.828c0.061-1.522,0.014-2.864-0.1-4.037
		C19.936,56.057,17.989,57.133,17.017,57.754z"/>
	<path d="M21.396,52.781c-2.188,0.068-4.369,1.332-5.316,1.958c0,0.021-0.007,0.046-0.007,0.069c0,0.739,0.165,1.439,0.449,2.076
		c1.063-0.669,3.115-1.773,5.286-1.972C21.696,54.111,21.554,53.402,21.396,52.781z"/>
	<path d="M16.28,53.448c1.158-0.669,2.955-1.509,4.834-1.651c-0.302-0.945-0.613-1.611-0.839-2.023
		C18.34,50.128,16.799,51.574,16.28,53.448z"/>
	<path d="M21.36,49.68c0.752,1.52,1.888,4.758,1.667,10.258h2.244c0.223-6.189-1.35-9.355-1.894-10.258H21.36z"/>
	<path d="M32.101,25.497c0.908,1.486,2.008,3.422,3.163,5.751c0.481-2.042,2.31-3.571,4.494-3.571c0.271,0,0.534,0.027,0.791,0.076
		c0.432,0.083,0.719-0.795-0.109-1.525c-0.515-0.453-1.195-0.731-1.895-0.731H32.101z"/>
	<path d="M34.645,41.326c-0.862-5.961-1.953-11.997-3.208-15.83h-5.148c-0.2,3.153-0.873,14.956-0.232,21.934h5.073
		c1.105,0,2-0.896,2-2v-1.81c0-1.104,0.447-2,1-2C34.318,41.62,34.493,41.509,34.645,41.326z"/>
	<path d="M29.065,53.742c0.222,1.098,0.385,2.406,0.444,3.932c0.898,0.18,3.181,0.747,5.948,2.266h0.975
		c-0.043-0.491-0.142-1.545-0.289-3.01C33.073,54.881,30.325,54.038,29.065,53.742z"/>
	<path d="M35.661,51.636c-2.577-1.239-4.668-1.767-5.592-1.956h-2.38c0.323,0.6,0.757,1.578,1.124,2.98
		c0.962,0.183,3.88,0.884,7.287,3.029C35.979,54.512,35.832,53.141,35.661,51.636z"/>
	<path d="M42.521,56.256c0.104,0.85,0.199,1.704,0.271,2.574c0,0-0.136,0.197-0.402,0.462c0.678-0.369,1.273-0.871,1.727-1.495
		C43.591,57.243,43.057,56.738,42.521,56.256z"/>
	<path d="M35.363,47.396c-0.191-0.054-0.372-0.101-0.522-0.136v2.419h-1.166c0.634,0.232,1.332,0.524,2.062,0.863
		C35.623,49.542,35.499,48.489,35.363,47.396z"/>
	<path d="M42.564,54.962c0.693,0.597,1.389,1.226,2.076,1.935c0.284-0.64,0.452-1.342,0.452-2.088v-1.869
		c-1.1-1.023-2.208-1.869-3.276-2.571C42.111,51.855,42.359,53.391,42.564,54.962z"/>
	<path d="M41.702,49.098c1.094,0.674,2.239,1.493,3.392,2.496v-3.752c-1.558-1.128-3.055-1.933-4.355-2.51
		C41.083,46.55,41.407,47.805,41.702,49.098z"/>
	<path d="M35.207,44.335c-0.223,0.366-0.366,0.914-0.366,1.535v0.364c0.175,0.037,0.392,0.086,0.638,0.148
		C35.393,45.71,35.3,45.023,35.207,44.335z"/>
	<path d="M44.096,43.87h-1V33.059c0-1.726-1.4-3.132-3.125-3.132c-1.727,0-3.13,1.406-3.13,3.132v1.416
		c1.246,2.812,2.485,6.03,3.548,9.605c1.359,0.548,2.986,1.354,4.707,2.531V45.87C45.096,44.766,44.646,43.87,44.096,43.87z"/>
</g>
</svg>
