<?xml version="1.0" encoding="utf-8"?>
<!-- Generator: Adobe Illustrator 16.0.4, SVG Export Plug-In . SVG Version: 6.00 Build 0)  -->
<!DOCTYPE svg PUBLIC "-//W3C//DTD SVG 1.1//EN" "http://www.w3.org/Graphics/SVG/1.1/DTD/svg11.dtd">
<svg version="1.1" id="Capa_1" xmlns="http://www.w3.org/2000/svg" xmlns:xlink="http://www.w3.org/1999/xlink" x="0px" y="0px"
	 width="64px" height="64px" viewBox="0 0 64 64" enable-background="new 0 0 64 64" xml:space="preserve">
<g>
	<path d="M19.955,20.248c2.897-2.22,7.805-3.089,11.419-3.089c3.535,0,8.444,0.811,11.374,2.938c1.197,0.874,1.824,0.74,1.824-0.743
		v-4.315c0-3.863-3.605-6.996-8.049-6.996h-10.3c-4.445,0-8.048,3.174-8.048,7.094c0,1.668,0,3.2,0,4.412
		C18.175,21.03,18.777,21.147,19.955,20.248z"/>
	<path d="M44.374,36.391H17.807c-1.323,0-1.348,1.072-1.348,2.396v19c0,0.983,0.799,1.782,1.783,1.782h26.453
		c0.984,0,1.783-0.797,1.783-1.782v-19C46.479,37.463,45.697,36.391,44.374,36.391z M42.87,48.533c0,0.148-0.124,0.27-0.269,0.27
		h-1.5c-0.047,0-0.086,0.039-0.086,0.088v1.498c0,0.146-0.119,0.266-0.271,0.266h-1.251c-0.15,0-0.27-0.119-0.27-0.266v-1.498
		c0-0.049-0.039-0.088-0.086-0.088h-1.496c-0.148,0-0.271-0.121-0.271-0.27v-1.254c0-0.146,0.121-0.27,0.271-0.27h1.496
		c0.047,0,0.086-0.037,0.086-0.087v-1.499c0-0.143,0.119-0.265,0.27-0.265h1.251c0.149,0,0.271,0.122,0.271,0.265v1.499
		c0,0.05,0.039,0.087,0.086,0.087h1.5c0.146,0,0.269,0.122,0.269,0.27V48.533z"/>
	<path d="M42.51,24.583c0.01-0.005,0.053-0.303,0.073-0.667c0.022-0.363-0.163-0.949-0.444-1.265
		c-1.055-1.179-4.074-3.671-10.766-3.671c-7.009,0-9.843,2.453-10.806,3.644c-0.266,0.328-0.428,0.93-0.405,1.294
		c0.023,0.364,0.065,0.662,0.072,0.667c0.007,0.005,0.269,0.235,0.589,0.51c0.95,0.812,2.901,2.434,4.548,3.491
		c0.356,0.228,0.652,0.358,0.652,0.311V28.81c0-0.561,0.458-1.018,1.02-1.018h8.66c0.562,0,1.02,0.457,1.02,1.018
		c0,0,0,0.039,0,0.086s0.297-0.085,0.651-0.312c2.26-1.451,5.088-3.959,5.122-3.99C42.5,24.59,42.506,24.586,42.51,24.583z"/>
	<path d="M25.353,29.77c-1.391-0.82-3.052-2.12-4.237-3.098c-0.326-0.269-0.501-0.158-0.363,0.241
		c0.837,2.432,2.484,4.486,4.62,5.839c0.356,0.227,0.657,0.368,0.654,0.346c-0.002-0.014-0.004-0.027-0.004-0.041v-2.156
		C26.023,30.479,25.717,29.984,25.353,29.77z"/>
	<path d="M41.631,26.669c-1.186,0.978-2.847,2.277-4.238,3.099c-0.365,0.215-0.67,0.71-0.67,1.132v2.157
		c0,0.014-0.002,0.027-0.004,0.041c-0.003,0.021,0.299-0.119,0.653-0.347c2.138-1.354,3.784-3.408,4.621-5.842
		C42.131,26.51,41.956,26.4,41.631,26.669z"/>
	<path d="M29.103,34.256c0.733,0.151,1.492,0.232,2.271,0.232c0.777,0,1.536-0.081,2.269-0.232c0.414-0.086,0.4-0.18-0.021-0.18
		h-4.495C28.702,34.076,28.69,34.17,29.103,34.256z"/>
</g>
</svg>
