<?xml version="1.0" encoding="utf-8"?>
<!-- Generator: Adobe Illustrator 16.0.4, SVG Export Plug-In . SVG Version: 6.00 Build 0)  -->
<!DOCTYPE svg PUBLIC "-//W3C//DTD SVG 1.1//EN" "http://www.w3.org/Graphics/SVG/1.1/DTD/svg11.dtd">
<svg version="1.1" id="Capa_1" xmlns="http://www.w3.org/2000/svg" xmlns:xlink="http://www.w3.org/1999/xlink" x="0px" y="0px"
	 width="64px" height="64px" viewBox="0 0 64 64" enable-background="new 0 0 64 64" xml:space="preserve">
<g>
	<path d="M56.425,15.03c-0.487-0.671-1.426-0.817-2.095-0.328l-1.193,0.871c-0.447,0.326-0.809,0.142-0.809-0.41v-1.526
		c0-0.553,0.429-1,0.958-1h0.958c0.828,0,1.5-0.672,1.5-1.5c0-0.828-0.672-1.5-1.5-1.5H12.579c-0.829,0-1.5,0.672-1.5,1.5
		c0,0.828,0.671,1.5,1.5,1.5c0,0,0.429,0,0.958,0c0.529,0,0.958,0.447,0.958,1v1.938c0,0.553-0.362,0.736-0.808,0.41l-1.758-1.282
		c-0.669-0.489-1.606-0.343-2.096,0.328c-0.488,0.669-0.342,1.607,0.328,2.096l3.959,2.889c0.058,0.042,0.118,0.077,0.18,0.108
		c0.104,0.052,0.194,0.529,0.194,1.082v39.599c0,0.553,0.448,1,1,1h35.833c0.553,0,1-0.447,1-1V20.877
		c0-0.553,0.36-1.264,0.808-1.59l2.963-2.161C56.768,16.638,56.913,15.699,56.425,15.03z M19.787,58.26c0,0.553-0.448,1-1,1
		c-0.552,0-1-0.447-1-1V16.358c0-0.553,0.448-1,1-1c0.552,0,1,0.447,1,1V58.26z M24.662,58.26c0,0.553-0.448,1-1,1
		c-0.552,0-1-0.447-1-1V16.358c0-0.553,0.448-1,1-1c0.552,0,1,0.447,1,1V58.26z M29.537,58.26c0,0.553-0.448,1-1,1
		c-0.552,0-1-0.447-1-1V16.358c0-0.553,0.448-1,1-1c0.552,0,1,0.447,1,1V58.26z M34.412,58.26c0,0.553-0.448,1-1,1
		c-0.553,0-1-0.447-1-1V16.358c0-0.553,0.447-1,1-1c0.552,0,1,0.447,1,1V58.26z M39.286,58.26c0,0.553-0.447,1-1,1
		c-0.554,0-1-0.447-1-1V16.358c0-0.553,0.446-1,1-1c0.553,0,1,0.447,1,1V58.26z M44.161,58.26c0,0.553-0.447,1-1,1
		c-0.554,0-1-0.447-1-1V16.358c0-0.553,0.446-1,1-1c0.553,0,1,0.447,1,1V58.26z M49.036,58.26c0,0.553-0.447,1-1,1
		c-0.554,0-1-0.447-1-1V16.358c0-0.553,0.446-1,1-1c0.553,0,1,0.447,1,1V58.26z"/>
	<path d="M51.661,8.135c0.553,0,0.622-0.24,0.136-0.504C50.043,6.68,45.729,4.68,39.909,4.307c-0.552-0.035-1.253-0.425-1.681-0.773
		c-0.761-0.615-2.234-1.399-4.816-1.399c-2.581,0-4.056,0.784-4.816,1.399c-0.429,0.348-1.13,0.737-1.682,0.772
		C21.093,4.68,16.781,6.68,15.026,7.631c-0.485,0.264-0.417,0.504,0.136,0.504H51.661z"/>
</g>
</svg>
