<?xml version="1.0" encoding="utf-8"?>
<!-- Generator: Adobe Illustrator 16.0.4, SVG Export Plug-In . SVG Version: 6.00 Build 0)  -->
<!DOCTYPE svg PUBLIC "-//W3C//DTD SVG 1.1//EN" "http://www.w3.org/Graphics/SVG/1.1/DTD/svg11.dtd">
<svg version="1.1" id="Capa_1" xmlns="http://www.w3.org/2000/svg" xmlns:xlink="http://www.w3.org/1999/xlink" x="0px" y="0px"
	 width="64px" height="64px" viewBox="0 0 64 64" enable-background="new 0 0 64 64" xml:space="preserve">
<path d="M49.63,16.934c-0.43-1.675-1.485-3.082-2.978-3.964l-1.723-1.019c-1-0.589-2.139-0.901-3.291-0.901
	c-2.281,0-4.418,1.22-5.578,3.182L18.331,44.225c-1.816,3.071-0.791,7.051,2.28,8.867l1.723,1.02c0.999,0.589,2.138,0.9,3.292,0.9
	c2.279,0,4.418-1.218,5.578-3.18L48.934,21.84C49.812,20.35,50.061,18.608,49.63,16.934z M29.611,50.891
	c-1.246,2.11-4.212,2.889-6.333,1.627l-1.724-1.02c-2.195-1.297-2.927-4.139-1.629-6.334l8.865-14.996l9.685,5.729L29.611,50.891z"
	/>
</svg>
