<?xml version="1.0" encoding="utf-8"?>
<!-- Generator: Adobe Illustrator 16.0.4, SVG Export Plug-In . SVG Version: 6.00 Build 0)  -->
<!DOCTYPE svg PUBLIC "-//W3C//DTD SVG 1.1//EN" "http://www.w3.org/Graphics/SVG/1.1/DTD/svg11.dtd">
<svg version="1.1" id="Capa_1" xmlns="http://www.w3.org/2000/svg" xmlns:xlink="http://www.w3.org/1999/xlink" x="0px" y="0px"
	 width="64px" height="64px" viewBox="0 0 64 64" enable-background="new 0 0 64 64" xml:space="preserve">
<g>
	<path d="M58.666,19.27L34.968,1.799c-1.541-1.139-4.051-1.139-5.592,0L5.679,19.27c-1.404,1.034-2.423,3.052-2.423,4.796V58.16
		c0,2.206,1.794,4,4,4h49.833c2.206,0,4-1.794,4-4V24.065C61.089,22.321,60.07,20.304,58.666,19.27z M7.256,58.16L7.256,58.16
		V24.065c0-0.472,0.417-1.297,0.796-1.577l23.697-17.47c0.048-0.034,0.197-0.101,0.423-0.101s0.375,0.066,0.424,0.101l23.697,17.471
		c0.379,0.28,0.796,1.104,0.796,1.577l0.003,34.094H7.256z"/>
	<path d="M24.33,24.371h5.235c0.346,0,0.626,0.279,0.626,0.625v5.234c0,0.346,0.279,0.626,0.625,0.626h4.381
		c0.346,0,0.625-0.28,0.625-0.626v-5.234c0-0.346,0.279-0.625,0.626-0.625h5.233c0.346,0,0.625-0.28,0.625-0.624v-4.382
		c0-0.346-0.279-0.626-0.625-0.626h-5.234c-0.346,0-0.627-0.279-0.627-0.623v-5.234c0-0.346-0.278-0.626-0.625-0.626h-4.38
		c-0.346,0-0.625,0.28-0.625,0.626v5.234c0,0.344-0.28,0.623-0.626,0.623H24.33c-0.346,0-0.625,0.28-0.625,0.626v4.382
		C23.705,24.091,23.984,24.371,24.33,24.371z"/>
	<path d="M51.589,37.146c-0.743,0-1.354,0.543-1.476,1.252c-0.024,0-0.024,0.248-0.024,0.248v5.5v1.918h-2.166c0,0,0-0.392,0-0.875
		c0-0.482-0.896-0.875-2-0.875H19.382l-0.064-0.08c-0.942-1.164-2.37-1.821-3.729-1.86v-0.513v-4.119V33.73c0-1.104-0.896-2-2-2
		s-2,0.896-2,2v21.168c0,1.104,0.896,2,2,2s2-0.896,2-2V49.23h2.084c0,0,0,0.517,0,1.151c0,0.636,0.792,1.591,1.862,1.864
		c4.672,1.195,13.438,0.475,16.138-0.713c2.206-0.971,7.4-0.571,10.267-0.252c1.098,0.121,1.983-0.264,1.983-0.899V49.23h2.166
		v5.668c0,0.828,0.673,1.5,1.5,1.5c0.828,0,1.5-0.672,1.5-1.5V44.314v-5.668c0,0,0-0.248-0.024-0.248
		C52.943,37.689,52.332,37.146,51.589,37.146z"/>
</g>
</svg>
