<?xml version="1.0" encoding="utf-8"?>
<!-- Generator: Adobe Illustrator 16.0.4, SVG Export Plug-In . SVG Version: 6.00 Build 0)  -->
<!DOCTYPE svg PUBLIC "-//W3C//DTD SVG 1.1//EN" "http://www.w3.org/Graphics/SVG/1.1/DTD/svg11.dtd">
<svg version="1.1" id="Capa_1" xmlns="http://www.w3.org/2000/svg" xmlns:xlink="http://www.w3.org/1999/xlink" x="0px" y="0px"
	 width="64px" height="64px" viewBox="0 0 64 64" enable-background="new 0 0 64 64" xml:space="preserve">
<g>
	<path d="M51.673,15.886c1.128-1.778,0.599-4.142-1.178-5.27l-8.169-5.185c-1.778-1.128-4.143-0.599-5.271,1.179l-1.396,2.202
		c-0.006,0.008-0.01,0.016-0.014,0.023c-1.721-0.831-3.834-0.256-4.882,1.394l-2.046,3.225c-1.048,1.651-0.667,3.807,0.816,5.01
		c-0.005,0.007-0.009,0.014-0.014,0.021L14.273,42.506c-0.954,1.504-0.724,3.428,0.446,4.668l-0.245,0.387
		c-1.707,2.69-0.907,6.268,1.782,7.975c2.69,1.707,6.267,0.906,7.975-1.782l0.245-0.387c1.62,0.53,3.459-0.079,4.413-1.583
		l15.246-24.022c0.006-0.006,0.01-0.013,0.014-0.021c1.722,0.829,3.834,0.255,4.881-1.395l2.047-3.225
		c1.048-1.651,0.667-3.806-0.814-5.01c0.004-0.006,0.01-0.014,0.014-0.022L51.673,15.886z M49.093,14.25l-1.397,2.202
		c-1.209,1.905-0.696,3.177,0.109,3.688l0.455,0.29c0.356,0.226,0.463,0.698,0.235,1.055l-2.046,3.224
		c-0.227,0.355-0.698,0.462-1.055,0.235l-0.455-0.289c-0.807-0.511-2.176-0.433-3.385,1.471L26.31,50.146
		c-0.226,0.356-0.699,0.463-1.054,0.236l-0.248-0.158c-0.708-0.449-1.882-0.43-2.856,1.104l-0.5,0.788
		c-0.805,1.268-2.491,1.645-3.759,0.84s-1.645-2.491-0.84-3.758l0.5-0.789c0.974-1.534,0.492-2.605-0.217-3.055l-0.248-0.157
		c-0.355-0.226-0.462-0.699-0.236-1.054l15.243-24.021c1.208-1.904,0.697-3.176-0.11-3.688l-0.456-0.29
		c-0.355-0.226-0.461-0.699-0.235-1.054l2.046-3.224c0.227-0.356,0.699-0.463,1.055-0.236l0.459,0.288
		c0.807,0.511,2.176,0.433,3.383-1.47l1.397-2.203c0.228-0.355,0.7-0.462,1.056-0.236l8.168,5.185
		C49.213,13.421,49.318,13.894,49.093,14.25z"/>
	<path d="M38.85,23.052l-2.82-1.791c-0.713-0.452-1.656-0.24-2.107,0.472L19.698,44.141c-0.451,0.713-0.241,1.656,0.472,2.108
		l0.121,0.077l-2.338,3.683c-0.452,0.714-0.241,1.656,0.472,2.108c0.712,0.451,1.655,0.24,2.107-0.473l2.338-3.683l0.121,0.077
		c0.713,0.452,1.656,0.24,2.108-0.473L39.32,25.158C39.771,24.448,39.562,23.504,38.85,23.052z M35.343,24.307L21.968,44.932
		c-0.096,0.148-0.257,0.229-0.42,0.229c-0.094,0-0.188-0.026-0.272-0.08c-0.231-0.15-0.297-0.46-0.148-0.691l13.375-20.625
		c0.151-0.231,0.463-0.294,0.692-0.147C35.427,23.765,35.492,24.074,35.343,24.307z"/>
</g>
</svg>
