<?xml version="1.0" encoding="utf-8"?>
<!-- Generator: Adobe Illustrator 16.0.4, SVG Export Plug-In . SVG Version: 6.00 Build 0)  -->
<!DOCTYPE svg PUBLIC "-//W3C//DTD SVG 1.1//EN" "http://www.w3.org/Graphics/SVG/1.1/DTD/svg11.dtd">
<svg version="1.1" id="Capa_1" xmlns="http://www.w3.org/2000/svg" xmlns:xlink="http://www.w3.org/1999/xlink" x="0px" y="0px"
	 width="64px" height="64px" viewBox="0 0 64 64" enable-background="new 0 0 64 64" xml:space="preserve">
<path d="M55.906,3.878H7.044c-1.657,0-3,1.343-3,3v48.298c0,1.657,1.343,3,3,3h48.862c1.656,0,3-1.343,3-3V6.878
	C58.906,5.221,57.562,3.878,55.906,3.878z M47.598,50.463c0,0.396-0.32,0.717-0.717,0.717h-5.732c-0.396,0-0.715-0.32-0.715-0.717
	V34.395c0-0.396-0.322-0.718-0.718-0.718h-16.48c-0.396,0-0.717,0.321-0.717,0.718v16.068c0,0.396-0.32,0.717-0.716,0.717H16.07
	c-0.396,0-0.717-0.32-0.717-0.717V11.592c0-0.396,0.32-0.717,0.717-0.717h5.732c0.396,0,0.716,0.32,0.716,0.717v14.204
	c0,0.396,0.321,0.716,0.717,0.716h16.48c0.396,0,0.717-0.32,0.717-0.716V11.592c0-0.396,0.32-0.717,0.717-0.717h5.731
	c0.397,0,0.718,0.32,0.718,0.717V50.463z"/>
</svg>
