<?xml version="1.0" encoding="utf-8"?>
<!-- Generator: Adobe Illustrator 16.0.4, SVG Export Plug-In . SVG Version: 6.00 Build 0)  -->
<!DOCTYPE svg PUBLIC "-//W3C//DTD SVG 1.1//EN" "http://www.w3.org/Graphics/SVG/1.1/DTD/svg11.dtd">
<svg version="1.1" id="Capa_1" xmlns="http://www.w3.org/2000/svg" xmlns:xlink="http://www.w3.org/1999/xlink" x="0px" y="0px"
	 width="64px" height="64px" viewBox="0 0 64 64" enable-background="new 0 0 64 64" xml:space="preserve">
<g>
	<circle cx="27.224" cy="12.496" r="3.804"/>
	<path d="M55.384,14.355H42.555v0.001c-0.554,0-1.316,0.316-1.707,0.707l-9.177,9.168c-0.391,0.391-0.707,0.26-0.707-0.293v-2.886
		c0-1.837-1.488-3.325-3.324-3.325h-0.832c-1.837,0-3.324,1.488-3.324,3.325v10.36c0,0.553-0.316,1.316-0.707,1.707l-6.795,6.789
		c-0.391,0.391-1.154,0.707-1.707,0.707h-5.39c-3.251,0-5.896,2.645-5.896,5.896v1.109c0,3.251,2.645,5.896,5.896,5.896h12.83
		c0.553,0,1.316-0.315,1.707-0.707l24.865-24.846c0.391-0.391,1.154-0.707,1.707-0.707h5.39c3.251,0,5.896-2.645,5.896-5.897V20.25
		C61.279,16.999,58.634,14.355,55.384,14.355z M57.477,21.361c0,1.155-0.939,2.093-2.093,2.093h-6.965
		c-0.553,0-1.317,0.316-1.707,0.707L21.847,49.007c-0.391,0.392-1.154,0.707-1.707,0.707H8.885c-1.153,0-2.092-0.938-2.092-2.092
		v-1.108c0-1.154,0.938-2.094,2.092-2.094h6.965c0.553,0,1.316-0.316,1.707-0.707l24.865-24.846
		c0.391-0.391,1.154-0.707,1.707-0.707h11.255c1.153,0,2.093,0.938,2.093,2.092V21.361z"/>
	<path d="M50.23,40.857c-0.026-0.168-0.08-0.33-0.151-0.48c-0.022-0.059-0.039-0.07-0.05-0.091c-0.076-0.142-0.166-0.272-0.275-0.39
		c-0.011-0.014-0.02-0.027-0.031-0.039c-0.115-0.119-0.25-0.217-0.394-0.303c-0.037-0.021-0.074-0.041-0.112-0.062
		c-0.133-0.066-0.271-0.121-0.419-0.155c-0.032-0.009-0.063-0.015-0.096-0.021c-0.11-0.021-0.222-0.033-0.339-0.033
		c-0.041,0-0.08,0.01-0.121,0.012c-0.021,0.002-0.043-0.005-0.064-0.003l-9.668,0.951c-1.046,0.104-1.811,1.034-1.707,2.079
		c0.104,1.046,1.036,1.82,2.078,1.707l3.7-0.364c0.55-0.054,0.69,0.231,0.315,0.637l-7.344,7.957
		c-0.713,0.771-0.664,1.976,0.107,2.688c0.365,0.338,0.828,0.505,1.289,0.505c0.513,0,1.023-0.206,1.398-0.612l7.435-8.055
		c0.375-0.405,0.679-0.287,0.679,0.266v4.564c0,1.051,0.852,1.902,1.902,1.902c1.05,0,1.9-0.853,1.9-1.902V41.188
		c0-0.078-0.014-0.151-0.021-0.227C50.238,40.927,50.238,40.895,50.23,40.857z"/>
</g>
</svg>
