<?xml version="1.0" encoding="utf-8"?>
<!-- Generator: Adobe Illustrator 16.0.4, SVG Export Plug-In . SVG Version: 6.00 Build 0)  -->
<!DOCTYPE svg PUBLIC "-//W3C//DTD SVG 1.1//EN" "http://www.w3.org/Graphics/SVG/1.1/DTD/svg11.dtd">
<svg version="1.1" id="Capa_1" xmlns="http://www.w3.org/2000/svg" xmlns:xlink="http://www.w3.org/1999/xlink" x="0px" y="0px"
	 width="64px" height="64px" viewBox="0 0 64 64" enable-background="new 0 0 64 64" xml:space="preserve">
<g>
	<path d="M35.129,55.893l-1.593-3.586c-0.193-0.435-0.095-1.074,0.222-1.43l1.149-1.292c0.315-0.354,0.327-0.938,0.024-1.308
		L33.631,46.7c-0.302-0.367-0.783-0.362-1.076,0.011l-1.229,1.557c-0.294,0.373-0.277,0.963,0.039,1.317l1.148,1.292
		c0.314,0.355,0.416,0.995,0.221,1.43l-1.592,3.586c-0.192,0.434-0.239,1.153-0.107,1.607l0.661,2.25
		c0.134,0.454,0.511,0.823,0.841,0.823h0.6c0,0,0.266,0,0.596,0s0.709-0.369,0.842-0.823l0.66-2.25
		C35.369,57.046,35.32,56.325,35.129,55.893z"/>
	<path d="M43.609,33.234c-0.31-0.36-0.285-0.906,0.039-1.253c1.052-1.123,1.896-2.407,2.481-3.808
		c-0.014,0.104-0.024,0.174-0.024,0.174s1.783-2.954,1.227-6.037c0,0,1.521-2.31,0.928-5.673c-0.594-3.363-2.71-4.555-2.71-4.555
		s-1.69-7.391-12.798-7.356h-0.023C21.621,4.692,19.93,12.083,19.93,12.083s-2.116,1.191-2.709,4.555
		C16.626,20,18.148,22.31,18.148,22.31c-0.558,3.083,1.225,6.037,1.225,6.037s-0.004-0.024-0.008-0.056
		c0.62,1.447,1.52,2.77,2.639,3.913c0.333,0.339,0.339,0.858,0.012,1.202c-2.419,2.547-8.922,10.814-9.155,26.306
		c-0.008,0.478,0.377,0.86,0.852,0.86h17.331l-1.073-3.654c-0.059-0.195-0.044-0.404,0.038-0.592l0.873-1.967
		c-2.638-2.197-8.792-7.336-8.792-7.336c-0.11-0.092-0.197-0.2-0.267-0.315c-0.01-0.017-0.021-0.03-0.03-0.047
		c-0.064-0.113-0.107-0.233-0.133-0.356c-0.006-0.023-0.009-0.046-0.014-0.068c-0.019-0.127-0.021-0.254-0.004-0.381
		c0.003-0.02,0.008-0.037,0.011-0.057c0.013-0.066,0.03-0.133,0.053-0.199c0.036-0.106,0.267-0.523,0.5-0.938
		c0.057-0.102,0.116-0.208,0.172-0.311c0.233-0.416,0.034-0.75-0.441-0.75h-1.099c-0.494,0-0.945-0.283-1.16-0.729
		c-0.215-0.445-0.157-0.974,0.151-1.361l3.295-4.153c0.44-0.56,1.251-0.652,1.809-0.209c0.559,0.441,0.653,1.252,0.21,1.811
		L24.04,40.35c-0.296,0.373-0.201,0.674,0.21,0.674h0.741c0.459,0,0.882,0.242,1.111,0.638c0.232,0.396,0.238,0.882,0.016,1.278
		l-1.139,2.041c-0.231,0.414-0.122,0.998,0.242,1.302l6.748,5.633l0.105-0.235l-1.924-2.164c-0.275-0.312-0.291-0.777-0.032-1.104
		l2.265-2.873c-0.056-0.063-0.112-0.127-0.163-0.197l-5.793-8.001c-0.277-0.385-0.447-0.816-0.379-0.963
		c0.069-0.148,0.436-0.038,0.85,0.191c3.307,1.82,9.139,1.82,12.444,0c0.416-0.23,0.781-0.34,0.852-0.191
		c0.068,0.146-0.102,0.578-0.381,0.963l-5.793,8.001c-0.064,0.091-0.127,0.175-0.186,0.255l2.307,2.803
		c0.27,0.326,0.26,0.8-0.021,1.117l-1.512,1.7l5.91-4.934c0.364-0.304,0.473-0.888,0.24-1.302l-1.137-2.041
		c-0.225-0.396-0.219-0.885,0.014-1.278c0.231-0.396,0.654-0.638,1.111-0.638c0,0,0.332,0,0.743,0s0.504-0.301,0.21-0.674
		l-1.104-1.391c-0.443-0.559-0.35-1.368,0.209-1.811c0.559-0.443,1.367-0.351,1.811,0.209l3.296,4.153
		c0.306,0.388,0.364,0.916,0.149,1.361c-0.215,0.444-0.666,0.729-1.16,0.729H43.8c-0.476,0-0.672,0.336-0.44,0.75l0.588,1.057
		c0.303,0.542,0.176,1.221-0.299,1.617l-8.403,7.015l1.017,2.287c0.082,0.187,0.096,0.396,0.039,0.592l-1.074,3.654H52.6
		c0.476,0,0.844-0.384,0.81-0.857C53.146,56.201,51.639,42.637,43.609,33.234z M39.098,13.882c-0.05,0.058-0.09,0.126-0.136,0.187
		c-0.019-0.009-0.034-0.018-0.053-0.028C39.037,13.943,39.098,13.882,39.098,13.882z M26.552,14.026
		c-0.017,0.008-0.031,0.017-0.046,0.024c-0.043-0.056-0.078-0.116-0.124-0.169C26.382,13.882,26.438,13.938,26.552,14.026z
		 M32.729,34.865c-6.946-0.001-12.595-5.033-12.606-11.225c0.012-0.67,0.088-1.326,0.228-1.964c0.151-0.232,0.321-0.45,0.514-0.649
		c0.316-0.329,0.639-0.803,0.639-1.147c0-0.343,0.335-0.424,0.79-0.29c0.359,0.107,0.743,0.164,1.141,0.164
		c2.104,0,3.811-1.609,3.811-3.596c0-0.435-0.086-0.85-0.238-1.233c-0.177-0.442-0.378-0.754-0.334-0.754l0.076-0.001
		c0.713,0.492,2.536,1.44,5.98,1.514c0.004,0,0.007,0,0.011,0c0.005,0,0.009,0,0.013,0c3.693-0.079,5.521-1.162,6.117-1.61
		c0,0,0.021,0,0.046,0s-0.199,0.305-0.391,0.738c-0.184,0.416-0.285,0.87-0.285,1.348c0,1.986,1.705,3.596,3.81,3.596
		c0.398,0,0.78-0.058,1.14-0.164c0.457-0.134,0.791-0.053,0.791,0.29c0,0.345,0.297,0.804,0.599,1.105
		c0.301,0.301,0.58,0.968,0.646,1.438c0.063,0.452,0.098,0.912,0.098,1.379C45.211,29.918,39.609,34.865,32.729,34.865z"/>
	<path d="M32.996,15.69c-0.084-0.001-0.161-0.006-0.243-0.006c-0.004,0-0.007,0-0.011,0c-0.005,0-0.008,0-0.013,0
		c-0.084,0-0.16,0.005-0.246,0.006H32.996z"/>
</g>
</svg>
