<?xml version="1.0" encoding="utf-8"?>
<!-- Generator: Adobe Illustrator 16.0.4, SVG Export Plug-In . SVG Version: 6.00 Build 0)  -->
<!DOCTYPE svg PUBLIC "-//W3C//DTD SVG 1.1//EN" "http://www.w3.org/Graphics/SVG/1.1/DTD/svg11.dtd">
<svg version="1.1" id="Capa_1" xmlns="http://www.w3.org/2000/svg" xmlns:xlink="http://www.w3.org/1999/xlink" x="0px" y="0px"
	 width="64px" height="64px" viewBox="0 0 64 64" enable-background="new 0 0 64 64" xml:space="preserve">
<g>
	<path d="M28.889,34.409h-4.75c-0.827,0-1.5,0.673-1.5,1.5s0.673,1.5,1.5,1.5h2.75h0.25h13.75c0.827,0,1.5-0.673,1.5-1.5
		s-0.673-1.5-1.5-1.5h-11.75H28.889z"/>
	<path d="M54.507,8.577c-1.104,0-2,0.896-2,2v21.908l-0.062-0.007c-0.772-0.082-1.544-0.063-2.298,0.037
		c0.408-0.694,0.659-1.492,0.659-2.355c0-2.578-2.09-4.667-4.668-4.667c-2.577,0-4.666,2.089-4.666,4.667
		c0,2.22,1.553,4.069,3.629,4.542c-1.188,0.999-2.073,2.27-2.459,3.701c-0.049,0.178-0.08,0.343-0.113,0.509H0.006
		c-0.553,0-1,0.446-1,1v3.333c0,0.553,0.447,1,1,1h51.501c0.554,0,1,0.447,1,1v9.833c0,1.104,0.896,2,2,2s2-0.896,2-2v-44.5
		C56.507,9.473,55.611,8.577,54.507,8.577z"/>
	<path d="M5.707,36.326h15.682c0-1.654,1.345-3,3-3h15.318v-5.167c0-0.553-0.447-1-1-1h-29c-2.762,0-5,2.052-5,4.584v3.583
		C4.707,35.879,5.154,36.326,5.707,36.326z"/>
</g>
</svg>
