<?xml version="1.0" encoding="utf-8"?>
<!-- Generator: Adobe Illustrator 16.0.4, SVG Export Plug-In . SVG Version: 6.00 Build 0)  -->
<!DOCTYPE svg PUBLIC "-//W3C//DTD SVG 1.1//EN" "http://www.w3.org/Graphics/SVG/1.1/DTD/svg11.dtd">
<svg version="1.1" id="Capa_1" xmlns="http://www.w3.org/2000/svg" xmlns:xlink="http://www.w3.org/1999/xlink" x="0px" y="0px"
	 width="64px" height="64px" viewBox="0 0 64 64" enable-background="new 0 0 64 64" xml:space="preserve">
<g>
	<path d="M33.536,9.068c-4.201,3.161-12.625,4.414-14.809,4.692c-0.12,0.62-0.194,1.271-0.237,1.948
		c3.544-0.519,12.431-2.11,16.789-5.485C34.799,9.776,34.221,9.39,33.536,9.068z"/>
	<path d="M30.001,8.154c-3.308,1.584-7.566,2.492-10.273,2.947c-0.32,0.493-0.56,1.035-0.742,1.613
		c2.471-0.345,9.541-1.521,13.428-4.08C31.706,8.414,30.904,8.253,30.001,8.154z"/>
	<path d="M20.818,9.881c2.031-0.39,4.572-0.987,6.876-1.843C24.331,8.061,22.183,8.744,20.818,9.881z"/>
	<path d="M37.689,17.444c-0.021-0.975-0.094-1.916-0.248-2.807c-0.305,0.205-0.627,0.402-0.959,0.592
		C36.988,15.981,37.391,16.72,37.689,17.444z"/>
	<path d="M33.583,16.616c0.327,0.546,0.59,1.083,0.787,1.609h2.563c-0.289-0.809-0.744-1.653-1.332-2.519
		C34.958,16.032,34.281,16.334,33.583,16.616z"/>
	<path d="M29.166,18.226c-0.013-0.041-0.026-0.082-0.04-0.124c-0.152,0.042-0.305,0.084-0.455,0.124H29.166z"/>
	<path d="M28.063,30.557c5.472,0,9.908-4.438,9.908-9.909c0-0.44-0.039-0.871-0.096-1.297H18.251
		c-0.056,0.426-0.095,0.856-0.095,1.297C18.156,26.119,22.59,30.557,28.063,30.557z"/>
	<path d="M37.723,32.412H18.675c-1.167,0-2.346,0.943-2.346,2.113v20.621c0,1.104,0.896,2,2,2h19.687c1.105,0,2.002-0.895,2-2
		c0-6.02,0.002-15.562,0.002-20.621C40.018,33.355,38.891,32.412,37.723,32.412z"/>
	<path d="M30.201,18.225h3.096c-0.175-0.405-0.398-0.82-0.66-1.242c-0.836,0.309-1.691,0.588-2.547,0.842
		C30.136,17.961,30.169,18.093,30.201,18.225z"/>
	<path d="M37.213,13.579c-0.264-0.97-0.663-1.852-1.253-2.617c-4.663,3.663-14.008,5.275-17.515,5.769
		c-0.013,0.491-0.019,0.988-0.019,1.495h5.683C28.17,17.44,33.836,15.983,37.213,13.579z"/>
</g>
</svg>
