<?xml version="1.0" encoding="utf-8"?>
<!-- Generator: Adobe Illustrator 16.0.4, SVG Export Plug-In . SVG Version: 6.00 Build 0)  -->
<!DOCTYPE svg PUBLIC "-//W3C//DTD SVG 1.1//EN" "http://www.w3.org/Graphics/SVG/1.1/DTD/svg11.dtd">
<svg version="1.1" id="Capa_1" xmlns="http://www.w3.org/2000/svg" xmlns:xlink="http://www.w3.org/1999/xlink" x="0px" y="0px"
	 width="64px" height="64px" viewBox="0 0 64 64" enable-background="new 0 0 64 64" xml:space="preserve">
<path d="M56.246,21.391l-4.271-6.457c-0.305-0.461-0.552-1.222-0.552-1.7c0-0.477,0.177-0.865,0.396-0.865
	c0.22,0,0.396-0.447,0.396-1V3.035c0-0.553-0.447-1-1-1H16.381c-0.553,0-1,0.447-1,1v8.333c0,0.553,0.158,1,0.354,1
	c0.195,0,0.353,0.388,0.353,0.865c0,0.478-0.247,1.239-0.552,1.7l-4.271,6.457c-0.305,0.461-0.552,1.281-0.552,1.834v36.727
	c0,0.553,0.447,1,1,1h22h0.084h22c0.553,0,1-0.447,1-1V23.225C56.798,22.672,56.551,21.852,56.246,21.391z M47.484,4.284
	c0-0.276,0.225-0.5,0.5-0.5c0.277,0,0.5,0.224,0.5,0.5v6.5c0,0.276-0.223,0.5-0.5,0.5c-0.275,0-0.5-0.224-0.5-0.5V4.284z
	 M41.734,4.284c0-0.276,0.225-0.5,0.5-0.5c0.277,0,0.5,0.224,0.5,0.5v6.5c0,0.276-0.223,0.5-0.5,0.5c-0.275,0-0.5-0.224-0.5-0.5
	V4.284z M35.984,4.284c0-0.276,0.225-0.5,0.5-0.5c0.277,0,0.5,0.224,0.5,0.5v6.5c0,0.276-0.223,0.5-0.5,0.5
	c-0.275,0-0.5-0.224-0.5-0.5V4.284z M30.235,4.284c0-0.276,0.224-0.5,0.5-0.5c0.276,0,0.5,0.224,0.5,0.5v6.5
	c0,0.276-0.224,0.5-0.5,0.5c-0.276,0-0.5-0.224-0.5-0.5V4.284z M24.485,4.284c0-0.276,0.224-0.5,0.5-0.5c0.276,0,0.5,0.224,0.5,0.5
	v6.5c0,0.276-0.224,0.5-0.5,0.5c-0.276,0-0.5-0.224-0.5-0.5V4.284z M18.735,4.284c0-0.276,0.224-0.5,0.5-0.5
	c0.276,0,0.5,0.224,0.5,0.5v6.5c0,0.276-0.224,0.5-0.5,0.5c-0.276,0-0.5-0.224-0.5-0.5V4.284z M52.798,55.951c0,0.553-0.446,1-1,1
	h-18h-0.084h-18c-0.553,0-1-0.447-1-1V45.077h38.084V55.951z M35.777,34.889h3.078c0.205,0,0.369,0.164,0.369,0.367v2.577
	c0,0.202-0.164,0.366-0.369,0.366h-3.078c-0.201,0-0.366,0.165-0.366,0.367v3.078c0,0.203-0.164,0.367-0.367,0.367h-2.576
	c-0.203,0-0.367-0.164-0.367-0.367v-3.078c0-0.202-0.165-0.367-0.367-0.367h-3.078c-0.204,0-0.368-0.164-0.368-0.366v-2.577
	c0-0.203,0.164-0.367,0.368-0.367h3.078c0.202,0,0.367-0.164,0.367-0.367v-3.078c0-0.203,0.164-0.367,0.367-0.367h2.576
	c0.203,0,0.367,0.164,0.367,0.367v3.078C35.411,34.725,35.576,34.889,35.777,34.889z M52.798,28.659H14.714v-4.232
	c0-0.553,0.247-1.373,0.552-1.834l4.271-6.457c0.305-0.461,0.552-1.281,0.552-1.834v-0.934c0-0.553,0.447-1,1-1h25.334
	c0.554,0,1,0.447,1,1v0.934c0,0.553,0.247,1.373,0.552,1.834l4.271,6.457c0.305,0.461,0.552,1.281,0.552,1.834V28.659z"/>
</svg>
