<?xml version="1.0" encoding="utf-8"?>
<!-- Generator: Adobe Illustrator 16.0.4, SVG Export Plug-In . SVG Version: 6.00 Build 0)  -->
<!DOCTYPE svg PUBLIC "-//W3C//DTD SVG 1.1//EN" "http://www.w3.org/Graphics/SVG/1.1/DTD/svg11.dtd">
<svg version="1.1" id="Capa_1" xmlns="http://www.w3.org/2000/svg" xmlns:xlink="http://www.w3.org/1999/xlink" x="0px" y="0px"
	 width="64px" height="64px" viewBox="0 0 64 64" enable-background="new 0 0 64 64" xml:space="preserve">
<path d="M40.107,25.908l-0.787-0.914c-0.359-0.418-0.557-1.195-0.44-1.735l0.794-3.683c0.116-0.54,0.176-1.424,0.131-1.975
	l-0.729-8.942C38.85,5.907,36.43,3.676,33.67,3.676H32.98c-2.763,0-5.16,2.232-5.354,4.987l-0.643,9.034
	c-0.039,0.551,0.014,1.437,0.118,1.979l0.69,3.578c0.104,0.543-0.106,1.318-0.472,1.733l-0.816,0.928
	c-0.365,0.415-0.661,1.198-0.661,1.751v30.219c0,1.657,1.343,3,3,3h8.917c1.657,0,3-1.343,3-3V27.666
	C40.76,27.113,40.468,26.326,40.107,25.908z M28.885,56.447c0,0.277-0.224,0.5-0.5,0.5c-0.276,0-0.5-0.225-0.5-0.5V30.146
	c0-0.276,0.224-0.5,0.5-0.5c0.276,0,0.5,0.224,0.5,0.5V56.447z M37.005,18.198l-0.562,4.067c-0.034,0.25-0.25,0.432-0.494,0.432
	c-0.023,0-0.047-0.002-0.069-0.005c-0.272-0.038-0.465-0.29-0.427-0.563l0.554-4.008L34.889,7.374
	c-0.029-0.274,0.17-0.521,0.444-0.549c0.269-0.035,0.521,0.171,0.549,0.445l1.125,10.808C37.012,18.118,37.012,18.158,37.005,18.198
	z"/>
</svg>
