<?xml version="1.0" encoding="utf-8"?>
<!-- Generator: Adobe Illustrator 17.0.0, SVG Export Plug-In . SVG Version: 6.00 Build 0)  -->
<!DOCTYPE svg PUBLIC "-//W3C//DTD SVG 1.1//EN" "http://www.w3.org/Graphics/SVG/1.1/DTD/svg11.dtd">
<svg version="1.1" id="Capa_1" xmlns="http://www.w3.org/2000/svg" xmlns:xlink="http://www.w3.org/1999/xlink" x="0px" y="0px"
	 width="64px" height="64px" viewBox="0 0 64 64" enable-background="new 0 0 64 64" xml:space="preserve">
<path d="M23.156,22.255V11.769h1.573v10.486H23.156z M27.351,22.255V11.769h-1.574v10.486H27.351z M17.323,14.251
	c-0.197,0.677-0.369,1.417-0.493,2.226l-0.885,5.778h1.378V14.251z M29.972,22.255V11.769h-1.573v10.486H29.972z M19.486,11.769
	h-1.114v10.486h1.114V11.769z M22.107,22.255V11.769h-1.572v10.486H22.107z M32.593,22.255V11.769h-1.572v10.486H32.593z
	 M30.601,6.188c0-1.9-0.795-3.44-3.716-3.44s-3.716,1.54-3.716,3.44c0,0-0.315,0.688-0.714,1.562h8.481
	C30.742,7.279,30.601,6.751,30.601,6.188z M40.111,25.072c0-0.964-0.475-1.747-1.062-1.747h-1.062c0,0-0.002-0.012-0.004-0.021
	h-22.2l-0.003,0.021c0,0-0.471,0-1.051,0c-0.581,0-1.052,0.783-1.052,1.747V26.1H40.11C40.111,25.81,40.111,25.458,40.111,25.072z
	 M40.878,27.347v4.281c0,0.29-0.159,0.524-0.35,0.524c-0.195,0-0.351,0.234-0.351,0.524v0.35c0,0.289,0.078,0.523,0.175,0.523
	c0.098,0,0.176,0.235,0.176,0.524v21.67c0,1.448-1.174,2.62-2.623,2.62H15.884c-1.447,0-2.621-1.172-2.621-2.62V34.07
	c0-0.288,0.078-0.523,0.175-0.523s0.175-0.234,0.175-0.523v-0.35c0-0.29-0.161-0.524-0.36-0.524c-0.199,0-0.36-0.234-0.36-0.524
	v-4.281c0-0.07,0.01-0.136,0.029-0.197H40.85C40.865,27.209,40.877,27.275,40.878,27.347z M38.384,45.146L38.384,45.146
	l-0.001-8.912c0-0.868-0.704-1.572-1.573-1.572H16.975c-0.869,0-1.573,0.704-1.573,1.572v8.912c0,0.869,0.704,1.574,1.573,1.574
	h19.836C37.68,46.72,38.384,46.015,38.384,45.146z M36.939,16.477c-0.16-1.042-0.399-1.969-0.676-2.788v8.566h1.56
	C37.639,21.04,37.312,18.909,36.939,16.477z M33.643,22.255h1.572V11.769h-1.572V22.255z M34.032,9.628
	c-0.437-0.45-1.259-0.583-1.944-0.83H21.034c-0.38,0.15-0.816,0.371-1.297,0.83c-0.225,0.215-0.526,0.582-0.855,1.093h15.981
	C34.541,10.217,34.246,9.85,34.032,9.628z M30.433,39.658h-2.141c-0.142,0-0.257-0.114-0.257-0.256v-2.141
	c0-0.142-0.114-0.256-0.255-0.256h-1.792c-0.141,0-0.255,0.114-0.255,0.256v2.141c0,0.142-0.115,0.256-0.257,0.256h-2.141
	c-0.142,0-0.256,0.113-0.256,0.256v1.792c0,0.142,0.114,0.256,0.256,0.256h2.141c0.142,0,0.257,0.113,0.257,0.255v2.143
	c0,0.141,0.114,0.256,0.255,0.256h1.792c0.141,0,0.255-0.115,0.255-0.256v-2.143c0-0.142,0.115-0.255,0.257-0.255h2.141
	c0.142,0,0.256-0.114,0.256-0.256v-1.792C30.688,39.771,30.574,39.658,30.433,39.658z"/>
</svg>
