<?xml version="1.0" encoding="utf-8"?>
<!-- Generator: Adobe Illustrator 16.0.4, SVG Export Plug-In . SVG Version: 6.00 Build 0)  -->
<!DOCTYPE svg PUBLIC "-//W3C//DTD SVG 1.1//EN" "http://www.w3.org/Graphics/SVG/1.1/DTD/svg11.dtd">
<svg version="1.1" id="Capa_1" xmlns="http://www.w3.org/2000/svg" xmlns:xlink="http://www.w3.org/1999/xlink" x="0px" y="0px"
	 width="64px" height="64px" viewBox="0 0 64 64" enable-background="new 0 0 64 64" xml:space="preserve">
<g>
	<path d="M21.331,11.024c0.97,0,1.835,0.097,2.571,0.616l1.166-4.355c0-0.533-0.431-0.965-0.964-0.965h-5.546
		c-0.532,0-0.964,0.432-0.964,0.964l1.166,4.355C19.495,11.12,20.364,11.024,21.331,11.024z M20.226,8.455
		c0-0.059,0.049-0.107,0.108-0.107h0.602c0.019,0,0.035-0.017,0.035-0.035V7.71c0-0.058,0.048-0.107,0.108-0.107h0.503
		c0.06,0,0.108,0.05,0.108,0.107v0.603c0,0.019,0.016,0.035,0.035,0.035h0.603c0.059,0,0.108,0.049,0.108,0.107V8.96
		c0,0.06-0.049,0.108-0.108,0.108h-0.603c-0.02,0-0.035,0.016-0.035,0.035v0.602c0,0.06-0.048,0.107-0.108,0.107h-0.503
		c-0.061,0-0.108-0.048-0.108-0.107V9.104c0-0.02-0.016-0.035-0.035-0.035h-0.602c-0.059,0-0.108-0.049-0.108-0.108V8.455z"/>
	<path d="M26.918,36.991c-0.155-0.511-1.118-3.349-1.118-3.88c-0.001-2.583,0.837-7.645,0.837-10.228
		c0-0.533-0.432-0.964-0.964-0.964h-8.684c-0.532,0-0.964,0.431-0.964,0.964l0.79,10.397c0,0.531-0.915,3.201-1.07,3.711
		l-2.172,7.152c-0.154,0.51,0.15,0.924,0.684,0.924h2.331v12.787c0,1.287,0.845,2.332,1.885,2.332c1.042,0,1.887-1.045,1.887-2.332
		V45.068h2.348v12.787c0,1.287,0.845,2.332,1.886,2.332c1.041,0,1.886-1.045,1.886-2.332V45.068h1.925
		c0.533,0,0.838-0.414,0.685-0.922L26.918,36.991z"/>
	<circle cx="21.331" cy="16.557" r="4.517"/>
	<path d="M41.068,10.942c0.97,0,1.834,0.097,2.57,0.616l1.166-4.355c0.002-0.532-0.431-0.964-0.964-0.964h-5.546
		c-0.531,0-0.964,0.432-0.964,0.964l1.166,4.354C39.232,11.038,40.102,10.942,41.068,10.942z M39.962,8.375
		c0-0.06,0.049-0.108,0.108-0.108h0.602c0.02,0,0.035-0.016,0.035-0.035V7.629c0-0.058,0.048-0.106,0.107-0.106h0.504
		c0.061,0,0.107,0.049,0.107,0.106v0.603c0,0.02,0.016,0.035,0.035,0.035h0.604c0.059,0,0.107,0.049,0.107,0.108v0.504h0.001
		c0,0.06-0.05,0.108-0.108,0.108h-0.603c-0.021,0-0.035,0.016-0.035,0.035v0.603c0,0.059-0.048,0.106-0.108,0.106h-0.502
		c-0.061,0-0.108-0.048-0.108-0.106V9.022c0-0.02-0.017-0.035-0.035-0.035H40.07c-0.061,0-0.108-0.049-0.108-0.108V8.375z"/>
	<path d="M48.827,44.064l-2.173-7.155c-0.154-0.511-1.117-3.349-1.117-3.88c-0.001-2.583,0.837-7.645,0.837-10.228
		c0-0.532-0.433-0.964-0.964-0.964h-8.684c-0.533,0-0.965,0.432-0.965,0.964l0.79,10.397c0,0.533-0.915,3.201-1.069,3.711
		l-2.172,7.152c-0.154,0.511,0.149,0.924,0.685,0.924h2.331v12.787c0,1.287,0.845,2.332,1.885,2.332
		c1.042,0,1.887-1.045,1.887-2.332V44.986h2.348v12.789c0,1.287,0.846,2.33,1.887,2.33s1.886-1.043,1.886-2.33V44.986h1.925
		C48.676,44.986,48.98,44.574,48.827,44.064z"/>
	<circle cx="41.068" cy="16.477" r="4.517"/>
</g>
</svg>
