<?xml version="1.0" encoding="utf-8"?>
<!-- Generator: Adobe Illustrator 16.0.4, SVG Export Plug-In . SVG Version: 6.00 Build 0)  -->
<!DOCTYPE svg PUBLIC "-//W3C//DTD SVG 1.1//EN" "http://www.w3.org/Graphics/SVG/1.1/DTD/svg11.dtd">
<svg version="1.1" id="Capa_1" xmlns="http://www.w3.org/2000/svg" xmlns:xlink="http://www.w3.org/1999/xlink" x="0px" y="0px"
	 width="64px" height="64px" viewBox="0 0 64 64" enable-background="new 0 0 64 64" xml:space="preserve">
<path d="M52.995,13.309c0,0-0.153-5.062-4.019-5.062c-3.863,0.001-4.076,3.267-4.076,3.267h-8h-7.734
	c-0.408,0-1.065,0.063-1.467,0.143l-20.912,4.12c-0.401,0.08-0.705,0.475-0.645,0.88c0.287,1.924,1.556,7.257,7.003,11.549
	c0.321,0.253,0.83,0.219,1.125-0.064l13.673-13.071c0.296-0.282,0.867-0.511,1.276-0.511h16.061v5.793c0,0-1.033,0-4.051-0.007
	c-3.025-0.009-3.021,4.225-3.021,4.225s0,29.601,0,31.998c0,2.392,1.031,3.373,3.021,3.345c1.983-0.027,12.317-0.003,12.317-0.003
	s3.481,0.468,3.536-3.342c0.057-3.812,0-31.969,0-31.969s0.113-4.161-3.536-4.139c-1.468,0.01-2.961,0.029-2.961,0.029l-0.03-4.406
	c0,0,2.004,0.423,3.094,0.651c1.092,0.231-0.354,1.31,0.3,2.015c0.651,0.708,6.633,4.282,6.69,2.94
	C60.367,14.561,52.995,13.309,52.995,13.309z"/>
</svg>
