<?xml version="1.0" encoding="utf-8"?>
<!-- Generator: Adobe Illustrator 16.0.4, SVG Export Plug-In . SVG Version: 6.00 Build 0)  -->
<!DOCTYPE svg PUBLIC "-//W3C//DTD SVG 1.1//EN" "http://www.w3.org/Graphics/SVG/1.1/DTD/svg11.dtd">
<svg version="1.1" id="Capa_1" xmlns="http://www.w3.org/2000/svg" xmlns:xlink="http://www.w3.org/1999/xlink" x="0px" y="0px"
	 width="64px" height="64px" viewBox="0 0 64 64" enable-background="new 0 0 64 64" xml:space="preserve">
<path d="M31.748,5c-13.785,0-25,11.215-25,25s11.215,25,25,25s25-11.215,25-25S45.533,5,31.748,5z M44.807,46.409
	C41.219,49.273,36.686,51,31.748,51c-11.579,0-21-9.421-21-21c0-4.703,1.555-9.05,4.177-12.554c0.33-0.442,0.939-0.475,1.335-0.09
	L44.855,45.07C45.252,45.455,45.236,46.064,44.807,46.409z M48.912,42.052c-0.318,0.451-0.917,0.492-1.312,0.107L19.086,14.524
	c-0.396-0.385-0.374-0.984,0.067-1.316C22.664,10.567,27.026,9,31.748,9c11.579,0,21,9.421,21,21
	C52.748,34.486,51.32,38.639,48.912,42.052z"/>
</svg>
