<?xml version="1.0" encoding="utf-8"?>
<!-- Generator: Adobe Illustrator 16.0.4, SVG Export Plug-In . SVG Version: 6.00 Build 0)  -->
<!DOCTYPE svg PUBLIC "-//W3C//DTD SVG 1.1//EN" "http://www.w3.org/Graphics/SVG/1.1/DTD/svg11.dtd">
<svg version="1.1" id="Capa_1" xmlns="http://www.w3.org/2000/svg" xmlns:xlink="http://www.w3.org/1999/xlink" x="0px" y="0px"
	 width="64px" height="64px" viewBox="0 0 64 64" enable-background="new 0 0 64 64" xml:space="preserve">
<g>
	<path d="M55.596,8.463H8.751c-2.522,0-4.574,2.052-4.574,4.575v36.558c0,2.521,2.051,4.574,4.574,4.574h46.845
		c2.522,0,4.574-2.053,4.574-4.574V13.038C60.17,10.516,58.119,8.463,55.596,8.463z M56.512,49.596c0,0.504-0.41,0.914-0.916,0.914
		H8.751c-0.505,0-0.915-0.41-0.915-0.914V13.038c0-0.505,0.41-0.915,0.915-0.915h46.845c0.506,0,0.916,0.41,0.916,0.915V49.596z"/>
	<path d="M50.174,15.494H14.175c-1.516,0-2.744,1.229-2.744,2.745v13.298h6.206v-0.001l2.576-2.447
		c0.271-0.258,0.649-0.393,1.012-0.375c0.375,0.017,0.726,0.188,0.971,0.472l1.121,1.293l1.297-6.772
		c0.114-0.595,0.606-1.046,1.209-1.108c0.597-0.059,1.175,0.28,1.407,0.84l1.639,3.953l1.572-3.31
		c0.245-0.516,0.78-0.819,1.349-0.779c0.567,0.045,1.048,0.436,1.209,0.981l2.476,8.432l0.881-4.931
		c0.104-0.573,0.556-1.02,1.131-1.113c0.584-0.098,1.146,0.188,1.425,0.697l2.396,4.391l1.516-3.065
		c0.23-0.467,0.709-0.764,1.229-0.764h8.866v-9.692C52.918,16.722,51.689,15.494,50.174,15.494z"/>
	<path d="M42.596,35.344c-0.227,0.458-0.691,0.754-1.203,0.764c-0.488,0.026-0.986-0.266-1.231-0.715L38.37,32.11l-1.22,6.828
		c-0.112,0.627-0.642,1.096-1.277,1.129c-0.025,0.002-0.05,0.002-0.075,0.002c-0.604,0-1.144-0.399-1.315-0.984L31.379,28.51
		l-1.354,2.851c-0.232,0.489-0.746,0.787-1.274,0.783c-0.542-0.014-1.025-0.346-1.233-0.847l-1.067-2.575l-0.968,5.053
		c-0.1,0.517-0.484,0.932-0.993,1.066c-0.504,0.139-1.048-0.029-1.393-0.427l-2.033-2.346l-1.932,1.835
		c-0.256,0.242-0.594,0.378-0.945,0.378h-6.754v10.112c0,1.518,1.228,2.746,2.744,2.746h35.997c1.516,0,2.744-1.229,2.744-2.746
		V30.676h-8.014L42.596,35.344z"/>
</g>
</svg>
