<?xml version="1.0" encoding="utf-8"?>
<!-- Generator: Adobe Illustrator 16.0.4, SVG Export Plug-In . SVG Version: 6.00 Build 0)  -->
<!DOCTYPE svg PUBLIC "-//W3C//DTD SVG 1.1//EN" "http://www.w3.org/Graphics/SVG/1.1/DTD/svg11.dtd">
<svg version="1.1" id="Capa_1" xmlns="http://www.w3.org/2000/svg" xmlns:xlink="http://www.w3.org/1999/xlink" x="0px" y="0px"
	 width="64px" height="64px" viewBox="0 0 64 64" enable-background="new 0 0 64 64" xml:space="preserve">
<path d="M42.674,17.498h-1.916l3.508-11.577c0.268-0.88-0.229-1.809-1.108-2.074c-0.878-0.266-1.81,0.23-2.074,1.109l-3.804,12.542
	H17.585c-0.482,0-0.94,0.209-1.256,0.572c-0.315,0.363-0.458,0.847-0.391,1.323l5.128,36.386c0.115,0.82,0.817,1.433,1.647,1.433
	h15.801c0.846,0,1.559-0.635,1.653-1.476l4.158-36.386c0.054-0.471-0.097-0.943-0.411-1.297C43.6,17.7,43.146,17.498,42.674,17.498z
	 M24.19,54.628c-0.019,0.002-0.038,0.003-0.058,0.003c-0.25,0-0.467-0.188-0.496-0.443l-2.125-18.658
	c-0.031-0.274,0.166-0.522,0.44-0.555c0.268-0.027,0.522,0.166,0.554,0.44l2.125,18.659C24.662,54.35,24.465,54.598,24.19,54.628z
	 M40.583,22.81L39.646,31c-0.127,1.098-1.123,1.986-2.229,1.986H23.214c-1.104,0-2.125-0.886-2.279-1.98l-1.155-8.202
	c-0.154-1.094,0.616-1.981,1.721-1.981H38.51c0.014,0,0.301,0,0.301,0C39.915,20.823,40.709,21.713,40.583,22.81z"/>
</svg>
