<?xml version="1.0" encoding="utf-8"?>
<!-- Generator: Adobe Illustrator 16.0.4, SVG Export Plug-In . SVG Version: 6.00 Build 0)  -->
<!DOCTYPE svg PUBLIC "-//W3C//DTD SVG 1.1//EN" "http://www.w3.org/Graphics/SVG/1.1/DTD/svg11.dtd">
<svg version="1.1" id="Capa_1" xmlns="http://www.w3.org/2000/svg" xmlns:xlink="http://www.w3.org/1999/xlink" x="0px" y="0px"
	 width="64px" height="64px" viewBox="0 0 64 64" enable-background="new 0 0 64 64" xml:space="preserve">
<g>
	<circle cx="28.725" cy="14.059" r="3.804"/>
	<path d="M56.885,15.916h-12.83v0.003c-0.553,0-1.316,0.316-1.707,0.707l-9.176,9.168c-0.391,0.391-0.707,0.26-0.707-0.293v-2.886
		c0-1.837-1.488-3.325-3.324-3.325h-0.832c-1.837,0-3.324,1.488-3.324,3.325v10.359c0,0.553-0.316,1.316-0.707,1.707l-6.795,6.789
		c-0.391,0.391-1.154,0.707-1.707,0.707h-5.39c-3.251,0-5.897,2.646-5.897,5.896v1.109c0,3.25,2.645,5.896,5.897,5.896h12.83
		c0.553,0,1.316-0.317,1.707-0.707l24.865-24.846c0.392-0.391,1.153-0.707,1.707-0.707h5.39c3.252,0,5.896-2.646,5.896-5.898v-1.109
		C62.781,18.561,60.135,15.916,56.885,15.916z M58.977,22.927c0,1.154-0.938,2.093-2.092,2.093H49.92
		c-0.553,0-1.316,0.316-1.707,0.707L23.348,50.572c-0.391,0.391-1.154,0.707-1.707,0.707H10.386c-1.153,0-2.092-0.938-2.092-2.092
		v-1.109c0-1.153,0.938-2.094,2.092-2.094h6.965c0.553,0,1.316-0.315,1.707-0.707l24.865-24.844
		c0.392-0.391,1.154-0.707,1.707-0.707h11.255c1.153,0,2.092,0.938,2.092,2.092V22.927z"/>
	<path d="M49.049,41.827l-7.957,7.344c-0.406,0.375-0.691,0.233-0.637-0.315l0.363-3.701c0.115-1.041-0.66-1.975-1.707-2.077
		c-1.045-0.104-1.975,0.661-2.078,1.707l-0.951,9.668c-0.002,0.022,0.005,0.043,0.003,0.065c-0.002,0.041-0.012,0.08-0.012,0.121
		c0,0.116,0.013,0.229,0.034,0.338c0.006,0.033,0.012,0.064,0.021,0.097c0.034,0.147,0.089,0.286,0.155,0.419
		c0.02,0.037,0.04,0.074,0.061,0.111c0.086,0.144,0.184,0.278,0.303,0.394c0.013,0.012,0.026,0.021,0.039,0.032
		c0.117,0.109,0.248,0.199,0.391,0.275c0.02,0.01,0.033,0.027,0.091,0.049c0.151,0.072,0.312,0.125,0.481,0.151
		c0.035,0.007,0.068,0.007,0.103,0.013c0.075,0.006,0.149,0.021,0.226,0.021h10.428c1.052,0,1.902-0.851,1.902-1.901
		c0-1.05-0.851-1.902-1.902-1.902H43.84c-0.553,0-0.671-0.303-0.266-0.678l8.055-7.436c0.406-0.375,0.612-0.885,0.612-1.398
		c0-0.461-0.167-0.923-0.505-1.289C51.025,41.163,49.82,41.113,49.049,41.827z"/>
</g>
</svg>
