<?xml version="1.0" encoding="utf-8"?>
<!-- Generator: Adobe Illustrator 16.0.4, SVG Export Plug-In . SVG Version: 6.00 Build 0)  -->
<!DOCTYPE svg PUBLIC "-//W3C//DTD SVG 1.1//EN" "http://www.w3.org/Graphics/SVG/1.1/DTD/svg11.dtd">
<svg version="1.1" id="Capa_1" xmlns="http://www.w3.org/2000/svg" xmlns:xlink="http://www.w3.org/1999/xlink" x="0px" y="0px"
	 width="64px" height="64px" viewBox="0 0 64 64" enable-background="new 0 0 64 64" xml:space="preserve">
<path d="M58.043,10.309H46.982c-1.018,0-1.842,0.825-1.842,1.843v7.599h-9.217c-1.018,0-1.843,0.825-1.843,1.843v8.855h-8.294
	c-1.019,0-1.844,0.825-1.844,1.843v9.677h-8.985c-1.018,0-1.843,0.825-1.843,1.844v8.293H2.977c-1.018,0-1.843,0.826-1.843,1.845
	c0,1.018,0.826,1.843,1.843,1.843h11.981c1.019,0,1.844-0.825,1.844-1.843v-8.294h8.985c1.018,0,1.843-0.826,1.843-1.844v-9.678
	h8.294c1.018,0,1.844-0.824,1.844-1.843v-8.854h9.215c1.02,0,1.845-0.825,1.845-1.844v-7.598h9.216c1.018,0,1.844-0.825,1.844-1.844
	C59.887,11.134,59.061,10.309,58.043,10.309z"/>
</svg>
