<?xml version="1.0" encoding="iso-8859-1"?>
<!-- Generator: Adobe Illustrator 16.0.4, SVG Export Plug-In . SVG Version: 6.00 Build 0)  -->
<!DOCTYPE svg PUBLIC "-//W3C//DTD SVG 1.1//EN" "http://www.w3.org/Graphics/SVG/1.1/DTD/svg11.dtd">
<svg version="1.1" id="Capa_1" xmlns="http://www.w3.org/2000/svg" xmlns:xlink="http://www.w3.org/1999/xlink" x="0px" y="0px"
	 width="64px" height="64px" viewBox="0 0 64 64" style="enable-background:new 0 0 64 64;" xml:space="preserve">
<path d="M12.9,54.859l-1.51,1.586c-1.213,1.275-3.133,1.42-4.289,0.32c-1.157-1.101-1.11-3.024,0.103-4.302l1.51-1.587L12.9,54.859z
	"/>
<path d="M13.6,49.936c-0.161-0.152-0.167-0.406-0.014-0.563l21.689-22.803c0.151-0.16,0.402-0.165,0.562-0.014
	c0.161,0.152,0.166,0.403,0.015,0.562L14.162,49.92C14.011,50.079,13.759,50.086,13.6,49.936z"/>
<path d="M51.93,10.07l-0.434-0.413c-3.188-3.031-8.229-2.905-11.264,0.281L19.643,31.586c-2.406,2.531-2.815,6.227-1.29,9.161
	l-8.847,9.301l4.184,3.981l8.848-9.303c3.008,1.377,6.678,0.783,9.084-1.746l20.591-21.647C55.244,18.145,55.118,13.102,51.93,10.07
	z M51.518,18.561c-0.228,0.239-0.606,0.25-0.846,0.021l-2.652-2.523l-3.935,4.138l2.651,2.522c0.24,0.228,0.248,0.607,0.021,0.846
	c-0.229,0.237-0.607,0.247-0.846,0.019l-2.648-2.525l-3.937,4.137l2.651,2.524c0.239,0.227,0.248,0.606,0.021,0.843
	c-0.228,0.24-0.604,0.25-0.847,0.023l-2.649-2.523L34.566,30.2l2.65,2.522c0.241,0.229,0.249,0.605,0.021,0.846
	c-0.227,0.238-0.604,0.248-0.844,0.021l-2.652-2.523l-3.936,4.138l2.653,2.522c0.239,0.228,0.249,0.605,0.021,0.846
	c-0.227,0.238-0.606,0.248-0.844,0.021l-2.652-2.522L15.028,50.744c-0.607,0.636-1.615,0.662-2.253,0.056
	c-0.637-0.606-0.663-1.614-0.057-2.252l13.957-14.674l-2.16-2.052c-0.237-0.229-0.248-0.607-0.021-0.845
	c0.228-0.239,0.608-0.249,0.846-0.021l2.16,2.053l3.932-4.134l-2.159-2.054c-0.24-0.228-0.25-0.606-0.021-0.845
	c0.228-0.24,0.606-0.249,0.845-0.02l2.159,2.052l3.936-4.137l-2.158-2.054c-0.24-0.227-0.249-0.607-0.021-0.844
	c0.229-0.241,0.607-0.249,0.846-0.022l2.158,2.053l3.936-4.137l-2.159-2.053c-0.239-0.228-0.25-0.608-0.021-0.845
	c0.227-0.241,0.606-0.25,0.845-0.023L41.775,18l3.936-4.136l-2.159-2.052c-0.239-0.229-0.249-0.607-0.022-0.846
	c0.229-0.241,0.609-0.25,0.847-0.021l2.16,2.053l0.501-0.528c0.605-0.638,1.613-0.663,2.252-0.057
	c0.639,0.607,0.664,1.615,0.057,2.252l-0.502,0.528l2.651,2.523C51.734,17.944,51.745,18.321,51.518,18.561z"/>
</svg>
