<?xml version="1.0" encoding="utf-8"?>
<!-- Generator: Adobe Illustrator 16.0.4, SVG Export Plug-In . SVG Version: 6.00 Build 0)  -->
<!DOCTYPE svg PUBLIC "-//W3C//DTD SVG 1.1//EN" "http://www.w3.org/Graphics/SVG/1.1/DTD/svg11.dtd">
<svg version="1.1" id="Capa_1" xmlns="http://www.w3.org/2000/svg" xmlns:xlink="http://www.w3.org/1999/xlink" x="0px" y="0px"
	 width="64px" height="64px" viewBox="0 0 64 64" enable-background="new 0 0 64 64" xml:space="preserve">
<g>
	<path d="M37.542,15.401c0,2.495,2.022,4.517,4.517,4.517s4.518-2.023,4.518-4.517c0,0-0.991-1.719-4.518-1.72
		C38.337,13.681,37.542,15.401,37.542,15.401z"/>
	<path d="M37.468,14.191c1.165-0.892,3.138-1.242,4.593-1.242c1.422,0,3.396,0.326,4.573,1.182c0.481,0.351,0.733,0.298,0.733-0.299
		v-1.735c0-1.553-1.449-2.813-3.236-2.813h-4.143c-1.787,0-3.236,1.276-3.236,2.852c0,0.67,0,1.287,0,1.774
		C36.752,14.506,36.994,14.552,37.468,14.191z"/>
	<path d="M47.249,20.683H36.564c-0.531,0-0.541,0.432-0.541,0.964V42.18l1-0.021v14.46c0,1.287,0.985,2.331,2.025,2.331
		c1.042,0,1.887-1.044,1.887-2.331V43.831h2.349v12.788c0,1.287,0.845,2.331,1.886,2.331s1.926-1.044,1.926-2.331V42.003h1V21.646
		C48.096,21.114,47.781,20.683,47.249,20.683z M46.645,25.566c0,0.06-0.051,0.108-0.108,0.108h-0.603
		c-0.021,0-0.035,0.016-0.035,0.035v0.603c0,0.059-0.049,0.106-0.108,0.106h-0.503c-0.061,0-0.107-0.048-0.107-0.106V25.71
		c0-0.02-0.017-0.035-0.035-0.035h-0.603c-0.06,0-0.108-0.049-0.108-0.108v-0.504c0-0.06,0.049-0.108,0.108-0.108h0.603
		c0.02,0,0.035-0.016,0.035-0.035v-0.602c0-0.058,0.047-0.106,0.107-0.106h0.503c0.062,0,0.108,0.049,0.108,0.106v0.602
		c0,0.02,0.016,0.035,0.035,0.035h0.603c0.06,0,0.108,0.049,0.108,0.108V25.566z"/>
	<path d="M18.451,15.401c0,2.495,2.022,4.517,4.517,4.517c2.495,0,4.517-2.023,4.517-4.517c0,0-0.991-1.719-4.517-1.72
		C19.246,13.681,18.451,15.401,18.451,15.401z"/>
	<path d="M18.377,14.191c1.165-0.892,3.139-1.242,4.592-1.242c1.422,0,3.396,0.326,4.574,1.182c0.481,0.351,0.733,0.298,0.733-0.299
		v-1.735c0-1.553-1.449-2.813-3.236-2.813h-4.143c-1.787,0-3.236,1.276-3.236,2.852c0,0.67,0,1.287,0,1.774
		C17.661,14.506,17.903,14.552,18.377,14.191z"/>
	<path d="M28.158,20.683H17.475c-0.532,0-0.542,0.432-0.542,0.964V42.18l1-0.021v14.46c0,1.287,0.986,2.331,2.026,2.331
		c1.042,0,1.887-1.044,1.887-2.331V43.831h2.348v12.788c0,1.287,0.845,2.331,1.886,2.331s1.926-1.044,1.926-2.331V42.003h1V21.646
		C29.005,21.114,28.69,20.683,28.158,20.683z M27.554,25.566c0,0.06-0.05,0.108-0.108,0.108h-0.602c-0.02,0-0.035,0.016-0.035,0.035
		v0.603c0,0.059-0.048,0.106-0.108,0.106h-0.503c-0.061,0-0.108-0.048-0.108-0.106V25.71c0-0.02-0.016-0.035-0.035-0.035h-0.601
		c-0.06,0-0.108-0.049-0.108-0.108v-0.504c0-0.06,0.049-0.108,0.108-0.108h0.601c0.02,0,0.035-0.016,0.035-0.035v-0.602
		c0-0.058,0.048-0.106,0.108-0.106h0.503c0.061,0,0.108,0.049,0.108,0.106v0.602c0,0.02,0.016,0.035,0.035,0.035h0.602
		c0.059,0,0.108,0.049,0.108,0.108V25.566z"/>
</g>
</svg>
