<svg width="64" xmlns="http://www.w3.org/2000/svg" height="64" viewBox="0 0 64 64" xmlns:xlink="http://www.w3.org/1999/xlink" enable-background="new 0 0 64 64">
<circle cx="13.105" cy="11.297" r="3.899"/>
<circle cx="49.607" cy="11.297" r="3.899"/>
<path d="m20.359,19.583c-.691-1.889-1.31-2.925-2.925-2.925h-4.041-.577-4.041c-1.615,0-2.233,1.036-2.925,2.925-.69,1.889-5.031,11.898-5.031,11.898-.292,.753 .081,1.601 .834,1.893 .752,.292 1.601-.081 1.892-.834l4.621-11c.209-.496 .282-.473 .164,.053l-4.011,17.835c-.118,.525 .222,.951 .761,.951h2.721c.539,0 .975,.436 .975,.975v13.323c0,.808 .655,1.462 1.462,1.462 .808,0 1.463-.654 1.463-1.462v-13.323c0-.539 .436-.975 .975-.975 .539,0 .975,.436 .975,.975v13.323c0,.808 .655,1.462 1.462,1.462 .808,0 1.463-.654 1.463-1.462v-13.323c0-.539 .436-.975 .975-.975h3.25c.539,0 .887-.428 .776-.954l-3.71-17.828c-.11-.527-.03-.553 .179-.057l4.621,11c.291,.753 1.14,1.126 1.892,.834 .753-.292 1.126-1.14 .834-1.893-.002,0-4.343-10.009-5.034-11.898z"/>
<path d="m31.859,57.234c-1.077,0-1.95-.873-1.95-1.949v-46.304c0-1.076 .873-1.949 1.95-1.949 1.076,0 1.949,.873 1.949,1.949v46.305c.001,1.075-.872,1.948-1.949,1.948z"/>
<path d="m48.227,35.927v18.077c0,.953-.772,1.725-1.725,1.725-.952,0-1.725-.771-1.725-1.725v-17.103-3.347-11.79c0-.539-.373-.975-.834-.975-.461,0-.834,.435-.834,.975v12.466c0,.747-.605,1.353-1.353,1.353-.747,0-1.353-.605-1.353-1.353v-13.295-1.352c0-1.951 1.309-2.925 2.924-2.925h5.991 .577 5.99c1.616,0 2.925,.731 2.925,2.925v1.352 13.295c0,.747-.605,1.353-1.352,1.353-.747,0-1.353-.605-1.353-1.353v-12.385c0-.539-.354-.975-.792-.975-.437,0-.791,.436-.791,.975v11.872 3.185 17.102c0,.953-.771,1.725-1.725,1.725-.953,0-1.725-.771-1.725-1.725v-18.077c0-.539-.437-.976-.976-.976h-.896c-.537,0-.973,.437-.973,.976z"/>
</svg>
