<?xml version="1.0" encoding="iso-8859-1"?>
<!-- Generator: Adobe Illustrator 17.1.0, SVG Export Plug-In . SVG Version: 6.00 Build 0)  -->
<!DOCTYPE svg PUBLIC "-//W3C//DTD SVG 1.1//EN" "http://www.w3.org/Graphics/SVG/1.1/DTD/svg11.dtd">
<svg version="1.1" id="Capa_1" xmlns="http://www.w3.org/2000/svg" xmlns:xlink="http://www.w3.org/1999/xlink" x="0px" y="0px"
	 viewBox="0 0 207.297 207.297" style="enable-background:new 0 0 207.297 207.297;" xml:space="preserve">
<path d="M114.475,137.015H33.146c-3.35,0-6.074-2.725-6.074-6.074V8.368C27.071,3.754,30.825,0,35.439,0h76.741
	c4.614,0,8.368,3.754,8.368,8.368V130.94C120.549,134.29,117.824,137.015,114.475,137.015z M175.226,171.097h-57.899
	c-5.739,0-10.409-4.67-10.409-10.409v-13.673H40.703v28.029c0,17.784,14.469,32.253,32.254,32.253h102.269c2.762,0,5-2.238,5-5
	v-26.2C180.226,173.335,177.987,171.097,175.226,171.097z"/>
<g>
</g>
<g>
</g>
<g>
</g>
<g>
</g>
<g>
</g>
<g>
</g>
<g>
</g>
<g>
</g>
<g>
</g>
<g>
</g>
<g>
</g>
<g>
</g>
<g>
</g>
<g>
</g>
<g>
</g>
</svg>
