<?xml version="1.0" encoding="iso-8859-1"?>
<!-- Generator: Adobe Illustrator 17.1.0, SVG Export Plug-In . SVG Version: 6.00 Build 0)  -->
<!DOCTYPE svg PUBLIC "-//W3C//DTD SVG 1.1//EN" "http://www.w3.org/Graphics/SVG/1.1/DTD/svg11.dtd">
<svg version="1.1" id="Capa_1" xmlns="http://www.w3.org/2000/svg" xmlns:xlink="http://www.w3.org/1999/xlink" x="0px" y="0px"
	 viewBox="0 0 204.645 204.645" style="enable-background:new 0 0 204.645 204.645;" xml:space="preserve">
<path d="M178.656,88.215l-4.219-4.772c-1.047-1.185-1.142-3.483-0.187-4.557c3.074-3.455,4.093-8.389,2.684-12.921L162.989,9.153
	l-0.104-0.364C161.135,3.45,156.604,0,151.341,0s-9.793,3.45-11.542,8.789l-14.123,57.393c-1.351,4.365-0.312,9.206,2.737,12.683
	c1.011,1.153,1.007,3.249-0.007,4.396l-4.38,4.954c-4.615,5.221-7.157,12.122-7.157,19.432v80.807
	c0,8.928,6.682,16.191,14.894,16.191h8.805h21.547h8.805c8.213,0,14.895-7.264,14.895-16.191v-80.807
	C185.814,100.336,183.272,93.436,178.656,88.215z M127.499,102.646c0.74-2.939,2.112-5.652,4.019-7.809l4.38-4.954
	c4.356-4.928,4.372-12.664,0.035-17.611c-0.766-0.873-1.036-2.12-0.689-3.178l14.109-57.34c0.407-1.118,1.126-1.755,1.989-1.755
	s1.582,0.637,1.989,1.755l13.934,56.759l0.104,0.364c0.381,1.162,0.139,2.544-0.588,3.36c-4.313,4.848-4.239,12.845,0.166,17.827
	l4.219,4.772c1.906,2.157,3.279,4.869,4.019,7.809H127.499z M82.983,59.56V46.707h12.814c2.301,0,4.167-1.865,4.167-4.167V25.883
	c0-2.301-1.866-4.167-4.167-4.167H24.009c-2.301,0-4.167,1.865-4.167,4.167V42.54c0,2.301,1.865,4.167,4.167,4.167h12.814V59.56
	c-10.256,2.11-17.992,11.209-17.992,22.08v112.26c0,5.925,4.82,10.745,10.745,10.745H90.23c5.925,0,10.745-4.82,10.745-10.745V81.64
	C100.975,70.769,93.24,61.67,82.983,59.56z M90.975,97.091H28.831V81.64c0-6.916,5.626-12.542,12.542-12.542
	c3.005,0,5.449-2.444,5.449-5.449V46.707h26.161v16.941c0,3.005,2.444,5.449,5.449,5.449c6.916,0,12.542,5.626,12.542,12.542V97.091
	z"/>
<g>
</g>
<g>
</g>
<g>
</g>
<g>
</g>
<g>
</g>
<g>
</g>
<g>
</g>
<g>
</g>
<g>
</g>
<g>
</g>
<g>
</g>
<g>
</g>
<g>
</g>
<g>
</g>
<g>
</g>
</svg>
