<?xml version="1.0" encoding="iso-8859-1"?>
<!-- Generator: Adobe Illustrator 17.1.0, SVG Export Plug-In . SVG Version: 6.00 Build 0)  -->
<!DOCTYPE svg PUBLIC "-//W3C//DTD SVG 1.1//EN" "http://www.w3.org/Graphics/SVG/1.1/DTD/svg11.dtd">
<svg version="1.1" id="Capa_1" xmlns="http://www.w3.org/2000/svg" xmlns:xlink="http://www.w3.org/1999/xlink" x="0px" y="0px"
	 viewBox="0 0 207.313 207.313" style="enable-background:new 0 0 207.313 207.313;" xml:space="preserve">
<path d="M119.775,105.485c-0.931,8.207-7.854,14.395-16.102,14.395c-0.613,0-1.233-0.035-1.845-0.105
	c-8.888-1.008-15.298-9.06-14.29-17.947c0.931-8.207,7.854-14.395,16.102-14.395c0.613,0,1.233,0.035,1.845,0.105
	C114.373,88.546,120.783,96.597,119.775,105.485z M153.854,132.901c11.112,28.594,14.365,53.061,2.299,60.147
	c-2.051,1.205-4.399,1.815-6.977,1.815c0,0,0,0-0.001,0c-11.97-0.001-28.086-13.642-43.636-32.262
	c-14.752,20.146-30.404,34.997-42.524,34.997c-0.001,0,0,0-0.001,0c-2.192,0-4.237-0.472-6.079-1.401
	c-13.052-6.59-10.616-33.181-0.225-64.142c-8.92-1.435-17.186-3.239-24.516-5.387c-21.516-6.304-32.347-14.582-32.193-24.602
	c0.219-14.297,23.673-23.32,53.457-27.656C42.347,45.817,39.094,21.35,51.16,14.264c2.051-1.205,4.399-1.815,6.978-1.815
	c11.97,0,28.086,13.641,43.637,32.261c14.752-20.146,30.404-34.997,42.524-34.997c2.192,0,4.237,0.472,6.079,1.401
	c13.052,6.59,10.616,33.181,0.225,64.142c8.92,1.435,17.186,3.239,24.516,5.387c21.516,6.304,32.347,14.582,32.193,24.602
	C207.092,119.542,183.638,128.565,153.854,132.901z M108.23,52.762c4.759,6.17,9.399,12.703,13.78,19.343
	c6.359,0.414,12.554,0.993,18.524,1.73c3.019-8.796,5.357-17.148,6.88-24.749c4.062-20.261,0.941-27.789-1.543-29.043
	c-0.437-0.221-0.952-0.328-1.572-0.328C137.017,19.714,123.29,31.739,108.23,52.762z M132.468,118.202
	c-1.211,2.398-2.463,4.807-3.752,7.217c3.77-0.214,7.384-0.488,10.844-0.812c-1.561-3.491-3.23-7.034-5.002-10.614
	C133.87,115.4,133.174,116.804,132.468,118.202z M128.777,102.859c-1.891-3.485-3.857-6.983-5.913-10.483
	c-2.146-3.655-4.305-7.175-6.464-10.579c-4.081-0.205-8.216-0.349-12.402-0.413c-1.836-0.028-3.663-0.042-5.475-0.042
	c-2.844,0-5.598,0.04-8.306,0.101c-2.167,3.905-4.32,7.965-6.445,12.174c-1.829,3.623-3.57,7.239-5.236,10.836
	c1.891,3.485,3.857,6.983,5.913,10.483c2.146,3.655,4.305,7.175,6.464,10.579c4.081,0.205,8.216,0.349,12.402,0.413
	c1.836,0.028,3.664,0.042,5.475,0.042c2.844,0,5.598-0.04,8.306-0.101c2.167-3.905,4.32-7.965,6.445-12.174
	C125.37,110.072,127.111,106.456,128.777,102.859z M108.792,135.971c-0.003,0,0.001,0-0.002,0c-1.862,0-3.74-0.014-5.628-0.043
	c-1.828-0.028-3.647-0.072-5.459-0.127c2.443,3.555,4.874,6.937,7.279,10.141c2.084-3.17,4.18-6.499,6.276-9.981
	C110.435,135.967,109.613,135.971,108.792,135.971z M73.472,115.932c-1.112,2.659-2.176,5.297-3.182,7.905
	c2.73,0.314,5.513,0.592,8.333,0.839c-0.951-1.561-1.886-3.121-2.799-4.676C75.032,118.649,74.248,117.293,73.472,115.932z
	 M74.845,89.11c1.211-2.398,2.463-4.807,3.752-7.217c-3.77,0.214-7.384,0.488-10.844,0.812c1.561,3.491,3.23,7.034,5.002,10.613
	C73.442,91.912,74.139,90.509,74.845,89.11z M98.523,71.342c1.862,0,3.74,0.014,5.628,0.043c1.828,0.028,3.647,0.072,5.459,0.127
	c-2.443-3.555-4.874-6.937-7.279-10.142c-2.084,3.17-4.18,6.499-6.277,9.981C96.878,71.346,97.701,71.342,98.523,71.342z
	 M133.84,91.381c1.112-2.659,2.176-5.297,3.182-7.905c-2.73-0.314-5.513-0.592-8.333-0.839c0.951,1.561,1.886,3.121,2.798,4.676
	C132.281,88.663,133.065,90.02,133.84,91.381z M63.693,73.128c6.722-0.714,13.653-1.21,20.62-1.495
	c3.677-6.348,7.563-12.589,11.564-18.523C79.844,33.453,65.678,22.449,58.138,22.449c-0.786,0-1.412,0.144-1.914,0.438
	c-2.399,1.409-5.036,9.121,0.302,29.083C58.286,58.552,60.709,65.672,63.693,73.128z M60.128,122.472
	c2.195-5.827,4.631-11.747,7.265-17.664c-3.667-7.006-7.043-14.034-10.031-20.916c-31.411,4.249-47.278,12.857-47.362,18.328
	c-0.043,2.783,5.176,9.042,25.006,14.853C42.448,119.253,50.933,121.061,60.128,122.472z M99.083,154.551
	c-4.759-6.17-9.399-12.703-13.78-19.343c-6.359-0.414-12.554-0.993-18.524-1.73c-3.019,8.796-5.357,17.148-6.88,24.749
	c-4.062,20.261-0.941,27.789,1.543,29.043c0.437,0.221,0.952,0.328,1.572,0.328C70.296,187.6,84.023,175.575,99.083,154.551z
	 M143.62,134.184c-6.722,0.714-13.653,1.21-20.62,1.495c-3.677,6.347-7.563,12.589-11.564,18.523
	c16.033,19.657,30.199,30.661,37.739,30.662h0c0.785,0,1.411-0.144,1.913-0.438c2.399-1.409,5.036-9.121-0.302-29.083
	C149.027,148.761,146.603,141.64,143.62,134.184z M197.312,105.092c0.043-2.783-5.176-9.042-25.006-14.853
	c-7.441-2.18-15.926-3.989-25.121-5.399c-2.195,5.827-4.631,11.747-7.265,17.664c3.667,7.006,7.043,14.034,10.031,20.916
	C181.361,119.172,197.228,110.564,197.312,105.092z"/>
<g>
</g>
<g>
</g>
<g>
</g>
<g>
</g>
<g>
</g>
<g>
</g>
<g>
</g>
<g>
</g>
<g>
</g>
<g>
</g>
<g>
</g>
<g>
</g>
<g>
</g>
<g>
</g>
<g>
</g>
</svg>
