<?xml version="1.0" encoding="iso-8859-1"?>
<!-- Generator: Adobe Illustrator 17.1.0, SVG Export Plug-In . SVG Version: 6.00 Build 0)  -->
<!DOCTYPE svg PUBLIC "-//W3C//DTD SVG 1.1//EN" "http://www.w3.org/Graphics/SVG/1.1/DTD/svg11.dtd">
<svg version="1.1" id="Capa_1" xmlns="http://www.w3.org/2000/svg" xmlns:xlink="http://www.w3.org/1999/xlink" x="0px" y="0px"
	 viewBox="0 0 183.875 183.875" style="enable-background:new 0 0 183.875 183.875;" xml:space="preserve">
<path d="M92.262,37.763l27.658-27.658C126.436,3.589,135.1,0,144.315,0c9.216,0,17.88,3.589,24.396,10.105l5.068,5.068
	c13.451,13.452,13.451,35.339,0,48.791L146.12,91.622L92.262,37.763z M36.76,90.609l53.858-53.858L63.972,10.105
	C57.455,3.589,48.791,0,39.576,0S21.698,3.589,15.181,10.105l-5.067,5.068C3.597,21.689,0.008,30.353,0.008,39.568
	c0,9.215,3.589,17.879,10.105,24.395L36.76,90.609z M37.772,92.254l-27.658,27.658c-6.517,6.516-10.105,15.18-10.105,24.395
	s3.589,17.879,10.105,24.395l5.067,5.068c6.517,6.516,15.181,10.105,24.396,10.105s17.879-3.589,24.396-10.105l27.658-27.658
	L37.772,92.254z M147.132,93.266l-53.858,53.858l26.646,26.646c6.516,6.516,15.18,10.105,24.395,10.105
	c9.216,0,17.88-3.589,24.396-10.105l5.068-5.068c13.451-13.452,13.451-35.339,0-48.79L147.132,93.266z M133.306,92.95
	l-40.348,40.348L50.586,90.925l40.348-40.348L133.306,92.95z M78.933,87.899c-2.254-2.254-5.909-2.254-8.164,0
	c-2.254,2.254-2.254,5.909,0,8.164c2.254,2.254,5.909,2.254,8.164,0C81.188,93.808,81.188,90.153,78.933,87.899z M95.985,104.95
	c-2.254-2.254-5.909-2.254-8.164,0c-2.254,2.254-2.254,5.909,0,8.164c2.254,2.254,5.909,2.254,8.164,0
	C98.239,110.859,98.239,107.204,95.985,104.95z M96.071,70.761c-2.254-2.254-5.909-2.254-8.164,0c-2.254,2.254-2.254,5.909,0,8.164
	c2.254,2.254,5.909,2.254,8.164,0C98.325,76.671,98.325,73.016,96.071,70.761z M113.122,95.977c2.254-2.254,2.254-5.909,0-8.164
	c-2.254-2.254-5.909-2.254-8.164,0c-2.254,2.254-2.254,5.909,0,8.164C107.213,98.231,110.868,98.231,113.122,95.977z"/>
<g>
</g>
<g>
</g>
<g>
</g>
<g>
</g>
<g>
</g>
<g>
</g>
<g>
</g>
<g>
</g>
<g>
</g>
<g>
</g>
<g>
</g>
<g>
</g>
<g>
</g>
<g>
</g>
<g>
</g>
</svg>
