<?xml version="1.0" encoding="iso-8859-1"?>
<!-- Generator: Adobe Illustrator 17.1.0, SVG Export Plug-In . SVG Version: 6.00 Build 0)  -->
<!DOCTYPE svg PUBLIC "-//W3C//DTD SVG 1.1//EN" "http://www.w3.org/Graphics/SVG/1.1/DTD/svg11.dtd">
<svg version="1.1" id="Capa_1" xmlns="http://www.w3.org/2000/svg" xmlns:xlink="http://www.w3.org/1999/xlink" x="0px" y="0px"
	 viewBox="0 0 202.912 202.912" style="enable-background:new 0 0 202.912 202.912;" xml:space="preserve">
<path d="M202.912,99.706c0-16.683-8.896-29.75-20.254-29.75s-20.254,13.067-20.254,29.75c0,14.139,6.391,25.677,15.254,28.868
	v27.382c0,19.851-16.149,36-36,36H68.694c-19.851,0-36-16.149-36-36v-55h10.534v16.5c0,25.364,20.636,46,46,46s46-20.636,46-46
	V58.313c8.89-2.241,15.5-10.281,15.5-19.857c0-11.304-9.196-20.5-20.5-20.5s-20.5,9.196-20.5,20.5c0,9.576,6.61,17.617,15.5,19.857
	v59.143c0,19.851-16.149,36-36,36s-36-16.149-36-36v-16.5h38.229c2.761,0,5-2.238,5-5v-90c0-2.762-2.239-5-5-5H5
	c-2.761,0-5,2.238-5,5v90c0,2.762,2.239,5,5,5h17.694v55c0,25.364,20.636,46,46,46h72.963c25.364,0,46-20.636,46-46v-27.382
	C196.52,125.383,202.912,113.844,202.912,99.706z M119.729,38.456c0-5.79,4.71-10.5,10.5-10.5s10.5,4.71,10.5,10.5
	s-4.71,10.5-10.5,10.5S119.729,44.246,119.729,38.456z"/>
<g>
</g>
<g>
</g>
<g>
</g>
<g>
</g>
<g>
</g>
<g>
</g>
<g>
</g>
<g>
</g>
<g>
</g>
<g>
</g>
<g>
</g>
<g>
</g>
<g>
</g>
<g>
</g>
<g>
</g>
</svg>
