<?xml version="1.0" encoding="iso-8859-1"?>
<!-- Generator: Adobe Illustrator 17.1.0, SVG Export Plug-In . SVG Version: 6.00 Build 0)  -->
<!DOCTYPE svg PUBLIC "-//W3C//DTD SVG 1.1//EN" "http://www.w3.org/Graphics/SVG/1.1/DTD/svg11.dtd">
<svg version="1.1" id="Capa_1" xmlns="http://www.w3.org/2000/svg" xmlns:xlink="http://www.w3.org/1999/xlink" x="0px" y="0px"
	 viewBox="0 0 206.918 206.918" style="enable-background:new 0 0 206.918 206.918;" xml:space="preserve">
<path d="M206.91,149.395c-0.062-12.338-1.154-25.774-3.277-40.026c-0.676-4.539-1.526-8.99-2.509-13.345
	c0.077-0.928-0.096-1.888-0.569-2.77c-0.035-0.065-0.083-0.116-0.12-0.179c-6.393-26.395-17.693-48.948-26.814-64.196
	c-6.242-10.438-16.496-16.669-27.429-16.669c-3.745,0-7.442,0.727-10.99,2.16l-23.037,9.308H94.761L71.723,14.37
	c-3.548-1.434-7.245-2.16-10.99-2.16c-10.932,0-21.186,6.231-27.429,16.669c-9.121,15.248-20.42,37.8-26.813,64.195
	c-0.037,0.063-0.086,0.115-0.121,0.18c-0.474,0.883-0.647,1.844-0.569,2.773c-0.983,4.354-1.832,8.805-2.508,13.342
	c-2.326,15.612-3.43,30.263-3.279,43.544c0.252,22.264,16.631,41.794,35.052,41.795h0.001c2.112,0,4.231-0.255,6.3-0.758
	c11.878-2.887,21.818-11.322,26.687-16.095c10.751-10.538,19.656-25.792,24.982-36.123c2.626,2.63,6.254,4.26,10.256,4.26
	c4.12,0,7.834-1.735,10.477-4.503c5.311,10.334,14.272,25.746,25.107,36.366c4.867,4.771,14.807,13.208,26.686,16.095
	c2.068,0.503,4.188,0.758,6.301,0.758c18.42,0,34.8-19.53,35.052-41.795c0.012-1.091,0.003-2.206-0.001-3.315
	C206.91,149.53,206.914,149.462,206.91,149.395z M23.443,72.051c6.085,3.658,18.343,9.351,36.324,9.884
	c1.197,0.035,2.365,0.052,3.514,0.052c10.688,0,19.266-1.468,25.51-3.099v3.819c-6.6,3.753-25.84,13.903-42.179,14.692
	c-13.661,0.667-24.403-2.532-29.752-4.58C18.729,85.554,20.978,78.602,23.443,72.051z M34.119,48.021
	c5.552,3.429,18.032,10.476,30.567,13.036c5.59,1.142,10.792,1.524,15.257,1.524c3.446,0,6.443-0.229,8.848-0.512v6.421
	c-6.067,1.828-15.827,3.836-28.727,3.449c-17.514-0.518-28.718-6.634-32.821-9.316C29.476,57.421,31.802,52.539,34.119,48.021z
	 M179.682,62.621c-4.12,2.694-15.321,8.8-32.82,9.318c-12.902,0.378-22.659-1.629-28.726-3.454v-6.415
	c2.404,0.283,5.401,0.512,8.847,0.512c4.465,0,9.668-0.383,15.257-1.524c12.535-2.56,25.014-9.607,30.567-13.036
	C175.124,52.539,177.449,57.42,179.682,62.621z M190.07,92.828c-5.318,2.045-15.995,5.226-29.755,4.57
	c-16.3-0.787-35.569-10.941-42.178-14.694v-3.817c6.244,1.631,14.821,3.098,25.509,3.098c1.147,0,2.318-0.017,3.514-0.052
	c17.981-0.532,30.24-6.226,36.324-9.884C185.949,78.605,188.199,85.561,190.07,92.828z M193.743,110.842
	c0.372,2.496,0.699,4.954,1.006,7.394c-2.598,2.459-10.936,8.3-30.238,6.607c-22.512-1.977-41.704-22.482-46.374-27.857v-2.882
	c9.508,4.965,26.336,12.542,41.695,13.283c1.428,0.069,2.823,0.102,4.191,0.102c12.436,0,22.338-2.676,28.291-4.826
	C192.85,105.356,193.332,108.082,193.743,110.842z M42.902,107.488c1.367,0,2.765-0.032,4.191-0.102
	c15.359-0.741,32.188-8.318,41.696-13.283v2.881c-4.667,5.372-23.86,25.88-46.375,27.858c-19.258,1.683-27.576-4.103-30.235-6.627
	c0.306-2.434,0.633-4.885,1.004-7.374c0.411-2.76,0.892-5.486,1.428-8.179C20.565,104.813,30.465,107.488,42.902,107.488z
	 M10.016,148.325c0.061-5.951,0.383-12.185,0.943-18.647c5.098,2.872,12.937,5.477,24.63,5.477c2.4,0,4.967-0.11,7.701-0.351
	c19.356-1.699,35.886-14.272,45.5-23.379v3.338c-10.307,12.663-37.262,41.25-54.822,41.25
	C17.07,156.013,11.436,150.265,10.016,148.325z M118.137,111.425c9.614,9.106,26.143,21.679,45.499,23.378
	c2.736,0.24,5.3,0.351,7.701,0.351c11.692,0,19.531-2.606,24.63-5.478c0.562,6.489,0.883,12.746,0.943,18.719
	c-1.302,1.827-6.797,7.617-23.952,7.617c-17.536,0-44.505-28.588-54.821-41.251V111.425z M168.055,39.197
	c-4.669,2.913-16.463,9.744-27.815,12.063c-9.375,1.914-17.566,1.344-22.104,0.723v-6.939c0.103,0,0.197,0.002,0.302,0.002
	c5.824,0,15.127-0.597,23.556-3.755c9.422-3.53,15.108-9.732,17.895-13.558c1.946,1.738,3.693,3.842,5.15,6.278
	C166.021,35.654,167.03,37.383,168.055,39.197z M138.948,23.642c2.352-0.95,4.789-1.432,7.244-1.432
	c1.639,0,3.259,0.229,4.839,0.649c-2.197,2.729-6.248,6.709-12.545,9.068c-7.142,2.676-15.372,3.128-20.35,3.11V32.05
	L138.948,23.642z M67.977,23.642L88.79,32.05v2.994c-4.965,0.023-13.173-0.427-20.351-3.116c-6.288-2.356-10.341-6.34-12.541-9.07
	c1.579-0.418,3.197-0.647,4.835-0.647C63.188,22.21,65.626,22.691,67.977,23.642z M47.037,27.733
	c2.787,3.826,8.472,10.028,17.894,13.559c8.43,3.157,17.732,3.754,23.557,3.754c0.105,0,0.199-0.002,0.302-0.002v6.949
	c-4.51,0.625-12.66,1.194-22.104-0.733c-11.315-2.311-23.136-9.151-27.814-12.065c1.025-1.813,2.033-3.542,3.015-5.183
	C43.344,31.575,45.091,29.471,47.037,27.733z M61.053,170.714c-4.135,4.053-12.497,11.197-22.048,13.52
	c-1.297,0.315-2.621,0.475-3.938,0.475c0,0,0,0-0.001,0c-10.579-0.001-20.497-10.197-23.85-23.057
	c5.055,2.447,12.332,4.362,22.752,4.362c17.977,0,39.429-19.486,52.393-33.318C81.865,141.929,72.423,159.569,61.053,170.714z
	 M171.86,184.708c-1.317,0-2.643-0.159-3.939-0.475c-9.552-2.322-17.913-9.467-22.047-13.519
	c-11.348-11.124-20.799-28.772-25.302-38.014c12.964,13.831,34.413,33.312,52.386,33.312c10.421,0,17.697-1.915,22.753-4.362
	C192.358,174.512,182.441,184.708,171.86,184.708z"/>
<g>
</g>
<g>
</g>
<g>
</g>
<g>
</g>
<g>
</g>
<g>
</g>
<g>
</g>
<g>
</g>
<g>
</g>
<g>
</g>
<g>
</g>
<g>
</g>
<g>
</g>
<g>
</g>
<g>
</g>
</svg>
