<?xml version="1.0" encoding="iso-8859-1"?>
<!-- Generator: Adobe Illustrator 17.1.0, SVG Export Plug-In . SVG Version: 6.00 Build 0)  -->
<!DOCTYPE svg PUBLIC "-//W3C//DTD SVG 1.1//EN" "http://www.w3.org/Graphics/SVG/1.1/DTD/svg11.dtd">
<svg version="1.1" id="Capa_1" xmlns="http://www.w3.org/2000/svg" xmlns:xlink="http://www.w3.org/1999/xlink" x="0px" y="0px"
	 viewBox="0 0 217.688 217.688" style="enable-background:new 0 0 217.688 217.688;" xml:space="preserve">
<path d="M185.34,143.945v39.684h2.559c2.762,0,5,2.238,5,5s-2.238,5-5,5h-7.559h-21.03H29.842C13.387,193.629,0,180.242,0,163.787
	s13.387-29.842,29.842-29.842H159.31h21.03h7.559c2.762,0,5,2.238,5,5s-2.238,5-5,5H185.34z M212.688,113.708h-3.706V83.057h3.706
	c2.762,0,5-2.238,5-5s-2.238-5-5-5h-8.706H184.1H75.411c-13.964,0-25.325,11.361-25.325,25.326
	c0,13.964,11.361,25.325,25.325,25.325H184.1h19.882h8.706c2.762,0,5-2.238,5-5S215.449,113.708,212.688,113.708z M16.951,54.481
	c-2.762,0-5,2.238-5,5s2.238,5,5,5h7.293h26.073h118.254c11.145,0,20.212-9.066,20.212-20.211s-9.067-20.212-20.212-20.212H50.318
	H24.244h-7.293c-2.762,0-5,2.238-5,5s2.238,5,5,5h2.293v20.423H16.951z"/>
<g>
</g>
<g>
</g>
<g>
</g>
<g>
</g>
<g>
</g>
<g>
</g>
<g>
</g>
<g>
</g>
<g>
</g>
<g>
</g>
<g>
</g>
<g>
</g>
<g>
</g>
<g>
</g>
<g>
</g>
</svg>
