<?xml version="1.0" encoding="iso-8859-1"?>
<!-- Generator: Adobe Illustrator 17.1.0, SVG Export Plug-In . SVG Version: 6.00 Build 0)  -->
<!DOCTYPE svg PUBLIC "-//W3C//DTD SVG 1.1//EN" "http://www.w3.org/Graphics/SVG/1.1/DTD/svg11.dtd">
<svg version="1.1" id="Capa_1" xmlns="http://www.w3.org/2000/svg" xmlns:xlink="http://www.w3.org/1999/xlink" x="0px" y="0px"
	 viewBox="0 0 222.414 222.414" style="enable-background:new 0 0 222.414 222.414;" xml:space="preserve">
<path d="M39.124,44.066v-1.851h5.637c4.171,0,7.563-3.393,7.563-7.564s-3.393-7.564-7.563-7.564H22.346
	c-4.171,0-7.564,3.393-7.564,7.564s3.394,7.564,7.564,7.564h5.637v1.851C12.124,46.729,0,60.545,0,77.148v103.063
	c0,8.335,6.781,15.116,15.116,15.116H51.99c8.335,0,15.116-6.781,15.116-15.116V77.148C67.106,60.545,54.982,46.729,39.124,44.066z
	 M10.298,144.763V84.661h46.511v60.102H10.298z M194.432,44.066v-1.851h5.638c4.171,0,7.563-3.393,7.563-7.564
	s-3.393-7.564-7.563-7.564h-22.416c-4.171,0-7.564,3.393-7.564,7.564s3.394,7.564,7.564,7.564h5.637v1.851
	c-15.858,2.662-27.983,16.479-27.983,33.082v103.063c0,8.335,6.781,15.116,15.116,15.116h36.874c8.335,0,15.116-6.781,15.116-15.116
	V77.148C222.414,60.545,210.29,46.728,194.432,44.066z M165.605,144.763V84.661h46.511v60.102H165.605z M117.68,44.066v-1.851h5.638
	c4.171,0,7.563-3.393,7.563-7.564s-3.393-7.564-7.563-7.564h-22.416c-4.171,0-7.564,3.393-7.564,7.564s3.394,7.564,7.564,7.564
	h5.637v1.851C90.68,46.729,78.556,60.545,78.556,77.148v103.063c0,8.335,6.781,15.116,15.116,15.116h36.874
	c8.335,0,15.116-6.781,15.116-15.116V77.148C145.662,60.545,133.538,46.728,117.68,44.066z M88.854,144.763V84.661h46.511v60.102
	H88.854z"/>
<g>
</g>
<g>
</g>
<g>
</g>
<g>
</g>
<g>
</g>
<g>
</g>
<g>
</g>
<g>
</g>
<g>
</g>
<g>
</g>
<g>
</g>
<g>
</g>
<g>
</g>
<g>
</g>
<g>
</g>
</svg>
