<?xml version="1.0" encoding="iso-8859-1"?>
<!-- Generator: Adobe Illustrator 17.1.0, SVG Export Plug-In . SVG Version: 6.00 Build 0)  -->
<!DOCTYPE svg PUBLIC "-//W3C//DTD SVG 1.1//EN" "http://www.w3.org/Graphics/SVG/1.1/DTD/svg11.dtd">
<svg version="1.1" id="Capa_1" xmlns="http://www.w3.org/2000/svg" xmlns:xlink="http://www.w3.org/1999/xlink" x="0px" y="0px"
	 viewBox="0 0 174.667 174.667" style="enable-background:new 0 0 174.667 174.667;" xml:space="preserve">
<path d="M140.493,163.947v3.72c0,3.866-3.134,7-7,7H41.174c-3.866,0-7-3.134-7-7v-3.72c0-3.866,3.134-7,7-7h5.167
	c-18.646-12.516-31.379-33.29-32.719-57.069c-0.363-6.43,0.102-12.693,1.293-18.695c0.847-4.268,4.584-7.351,8.935-7.351h126.967
	c4.342,0,8.084,3.067,8.93,7.326c0.93,4.676,1.418,9.511,1.418,14.46c0,25.56-12.998,48.075-32.735,61.328h5.062
	C137.359,156.947,140.493,160.081,140.493,163.947z M140.493,0c-8.388,0-15.188,6.8-15.188,15.188c0,3.461,1.171,6.641,3.12,9.195
	L99.147,67.919l23.626,0.122l16.229-37.739c0.491,0.048,0.988,0.075,1.491,0.075c8.388,0,15.188-6.8,15.188-15.188
	C155.681,6.8,148.881,0,140.493,0z"/>
<g>
</g>
<g>
</g>
<g>
</g>
<g>
</g>
<g>
</g>
<g>
</g>
<g>
</g>
<g>
</g>
<g>
</g>
<g>
</g>
<g>
</g>
<g>
</g>
<g>
</g>
<g>
</g>
<g>
</g>
</svg>
