<?xml version="1.0" encoding="iso-8859-1"?>
<!-- Generator: Adobe Illustrator 17.1.0, SVG Export Plug-In . SVG Version: 6.00 Build 0)  -->
<!DOCTYPE svg PUBLIC "-//W3C//DTD SVG 1.1//EN" "http://www.w3.org/Graphics/SVG/1.1/DTD/svg11.dtd">
<svg version="1.1" id="Capa_1" xmlns="http://www.w3.org/2000/svg" xmlns:xlink="http://www.w3.org/1999/xlink" x="0px" y="0px"
	 viewBox="0 0 206.834 206.834" style="enable-background:new 0 0 206.834 206.834;" xml:space="preserve">
<path d="M169.432,181.334h-1v-4.466c0-12.389-10.078-22.467-22.467-22.467h-23.274V29.607c0-12.175-9.905-22.08-22.081-22.08h-9.186
	V5c0-2.762-2.238-5-5-5H37.402c-2.762,0-5,2.238-5,5v15.054c0,2.762,2.238,5,5,5h49.022c2.762,0,5-2.238,5-5v-2.526h9.186
	c6.661,0,12.081,5.419,12.081,12.08v124.794H89.416c-12.389,0-22.467,10.078-22.467,22.467v4.466h-1c-2.762,0-5,2.238-5,5v15.5
	c0,2.762,2.238,5,5,5h12c2.762,0,5-2.238,5-5v-15.5c0-2.762-2.238-5-5-5h-1v-4.466c0-6.874,5.593-12.467,12.467-12.467h23.275
	v16.933h-1c-2.762,0-5,2.238-5,5v15.5c0,2.762,2.238,5,5,5h12c2.762,0,5-2.238,5-5v-15.5c0-2.762-2.238-5-5-5h-1v-16.933h23.274
	c6.874,0,12.467,5.593,12.467,12.467v4.466h-1c-2.762,0-5,2.238-5,5v15.5c0,2.762,2.238,5,5,5h12c2.762,0,5-2.238,5-5v-15.5
	C174.432,183.572,172.194,181.334,169.432,181.334z"/>
<g>
</g>
<g>
</g>
<g>
</g>
<g>
</g>
<g>
</g>
<g>
</g>
<g>
</g>
<g>
</g>
<g>
</g>
<g>
</g>
<g>
</g>
<g>
</g>
<g>
</g>
<g>
</g>
<g>
</g>
</svg>
