<?xml version="1.0" encoding="iso-8859-1"?>
<!-- Generator: Adobe Illustrator 17.1.0, SVG Export Plug-In . SVG Version: 6.00 Build 0)  -->
<!DOCTYPE svg PUBLIC "-//W3C//DTD SVG 1.1//EN" "http://www.w3.org/Graphics/SVG/1.1/DTD/svg11.dtd">
<svg version="1.1" id="Capa_1" xmlns="http://www.w3.org/2000/svg" xmlns:xlink="http://www.w3.org/1999/xlink" x="0px" y="0px"
	 viewBox="0 0 200.157 200.157" style="enable-background:new 0 0 200.157 200.157;" xml:space="preserve">
<path d="M184.814,38.511H15.343C6.869,38.511,0,45.38,0,53.854v80.034c0,8.473,6.869,15.343,15.343,15.343h17.882v2.476
	c0,5.49,4.45,9.94,9.939,9.94h8.262c5.489,0,9.94-4.45,9.94-9.94v-2.476h77.427v2.476c0,5.49,4.45,9.94,9.939,9.94h8.262
	c5.489,0,9.939-4.45,9.939-9.94v-2.476h17.882c8.474,0,15.343-6.869,15.343-15.343V53.854
	C200.157,45.38,193.288,38.511,184.814,38.511z M133.403,53.855c0-2.209,1.791-4,4-4h14.952c2.209,0,4,1.791,4,4v0.631
	c0,2.209-1.791,4-4,4h-14.952c-2.209,0-4-1.791-4-4V53.855z M161.936,82.76c6.499,0,11.767,5.179,11.767,11.568
	c0,6.389-5.268,11.568-11.767,11.568c-6.498,0-11.767-5.179-11.767-11.568C150.17,87.939,155.438,82.76,161.936,82.76z
	 M133.403,71.32c0-2.209,1.791-4,4-4h14.952c2.209,0,4,1.791,4,4v0.631c0,2.209-1.791,4-4,4h-14.952c-2.209,0-4-1.791-4-4V71.32z
	 M18.68,49.395h90.709c4.136,0,7.49,3.353,7.49,7.49v29.409H98.09c-1.857,0-3.562,1.03-4.426,2.674l-4.607,8.767l-5.493-38.36
	c-0.332-2.317-2.228-4.094-4.562-4.276c-2.333-0.189-4.481,1.28-5.168,3.518l-9.547,31.117l-0.797-1.203
	c-0.926-1.397-2.491-2.238-4.167-2.238h-4.655l-4.816-8.278c-0.905-1.556-2.59-2.546-4.376-2.485c-1.8,0.02-3.45,1.004-4.321,2.58
	l-4.526,8.183H11.19V56.885C11.19,52.748,14.543,49.395,18.68,49.395z M109.389,124.919H18.68c-4.136,0-7.49-3.353-7.49-7.49V96.294
	h28.386c1.819,0,3.495-0.988,4.375-2.58l1.688-3.052l1.831,3.147c0.896,1.539,2.542,2.485,4.322,2.485h4.846l5.159,7.783
	c1.068,1.613,2.97,2.465,4.884,2.186c1.914-0.277,3.496-1.633,4.063-3.481l6.09-19.852l4.513,31.513
	c0.308,2.146,1.963,3.85,4.1,4.218c0.285,0.049,0.57,0.073,0.852,0.073c1.833,0,3.55-1.011,4.425-2.674l10.388-19.767h15.767v21.136
	C116.878,121.566,113.525,124.919,109.389,124.919z M133.403,120.919v-0.631c0-2.209,1.791-4,4-4h14.952c2.209,0,4,1.791,4,4v0.631
	c0,2.209-1.791,4-4,4h-14.952C135.194,124.919,133.403,123.128,133.403,120.919z M189.885,120.919c0,2.209-1.791,4-4,4h-14.953
	c-2.209,0-4-1.791-4-4v-0.631c0-2.209,1.791-4,4-4h14.953c2.209,0,4,1.791,4,4V120.919z M189.885,71.951c0,2.209-1.791,4-4,4
	h-14.953c-2.209,0-4-1.791-4-4V71.32c0-2.209,1.791-4,4-4h14.953c2.209,0,4,1.791,4,4V71.951z M189.885,54.486c0,2.209-1.791,4-4,4
	h-14.953c-2.209,0-4-1.791-4-4v-0.631c0-2.209,1.791-4,4-4h14.953c2.209,0,4,1.791,4,4V54.486z"/>
<g>
</g>
<g>
</g>
<g>
</g>
<g>
</g>
<g>
</g>
<g>
</g>
<g>
</g>
<g>
</g>
<g>
</g>
<g>
</g>
<g>
</g>
<g>
</g>
<g>
</g>
<g>
</g>
<g>
</g>
</svg>
