<?xml version="1.0" encoding="iso-8859-1"?>
<!-- Generator: Adobe Illustrator 17.1.0, SVG Export Plug-In . SVG Version: 6.00 Build 0)  -->
<!DOCTYPE svg PUBLIC "-//W3C//DTD SVG 1.1//EN" "http://www.w3.org/Graphics/SVG/1.1/DTD/svg11.dtd">
<svg version="1.1" id="Capa_1" xmlns="http://www.w3.org/2000/svg" xmlns:xlink="http://www.w3.org/1999/xlink" x="0px" y="0px"
	 viewBox="0 0 216.051 216.051" style="enable-background:new 0 0 216.051 216.051;" xml:space="preserve">
<path d="M123.566,82.978V13.777h3.716c3.804,0,6.889-3.084,6.889-6.888v0c0-3.804-3.084-6.889-6.889-6.889H88.769
	c-3.805,0-6.889,3.084-6.889,6.889v0c0,3.804,3.084,6.888,6.889,6.888h3.918v69.157c-14.416,3.168-27.519,10.799-37.252,21.773
	c-10.828,12.208-16.791,27.817-16.791,43.952c0,37.159,31.125,67.391,69.382,67.391c38.257,0,69.381-30.231,69.381-67.391
	C177.407,116.909,155.011,89.92,123.566,82.978z M98.46,92.02l4.227-0.662V14.832h10.879V91.38l4.211,0.672
	c25.666,4.098,45.037,23.507,48.908,47.687H49.363C53.238,115.479,72.687,96.053,98.46,92.02z"/>
<g>
</g>
<g>
</g>
<g>
</g>
<g>
</g>
<g>
</g>
<g>
</g>
<g>
</g>
<g>
</g>
<g>
</g>
<g>
</g>
<g>
</g>
<g>
</g>
<g>
</g>
<g>
</g>
<g>
</g>
</svg>
