<?xml version="1.0" encoding="iso-8859-1"?>
<!-- Generator: Adobe Illustrator 17.1.0, SVG Export Plug-In . SVG Version: 6.00 Build 0)  -->
<!DOCTYPE svg PUBLIC "-//W3C//DTD SVG 1.1//EN" "http://www.w3.org/Graphics/SVG/1.1/DTD/svg11.dtd">
<svg version="1.1" id="Capa_1" xmlns="http://www.w3.org/2000/svg" xmlns:xlink="http://www.w3.org/1999/xlink" x="0px" y="0px"
	 viewBox="0 0 192.988 192.988" style="enable-background:new 0 0 192.988 192.988;" xml:space="preserve">
<path d="M128.037,12.609v12.962c0,0.483-0.393,0.875-0.876,0.875H65.827c-0.483,0-0.876-0.393-0.876-0.875V12.609
	c0-0.483,0.393-0.875,0.876-0.875h15.702V0h29.93v11.733h15.702C127.644,11.733,128.037,12.126,128.037,12.609z M157.903,42.267
	V177.68c0,8.454-6.854,15.308-15.308,15.308H50.393c-8.454,0-15.308-6.854-15.308-15.308V42.267c0-8.454,6.854-15.308,15.308-15.308
	h4.657c0.685,5.342,5.251,9.487,10.777,9.487h61.334c5.526,0,10.092-4.145,10.777-9.487h4.657
	C151.05,26.96,157.903,33.813,157.903,42.267z M52.231,72.176c0,2.761,2.238,5,5,5h66.054c2.762,0,5-2.239,5-5s-2.238-5-5-5H57.231
	C54.469,67.176,52.231,69.414,52.231,72.176z M128.285,118.62c0-2.761-2.238-5-5-5H57.231c-2.762,0-5,2.239-5,5s2.238,5,5,5h66.054
	C126.047,123.62,128.285,121.381,128.285,118.62z M143.451,95.397c0-2.761-2.238-5-5-5h-81.22c-2.762,0-5,2.239-5,5s2.238,5,5,5
	h81.22C141.213,100.397,143.451,98.159,143.451,95.397z"/>
<g>
</g>
<g>
</g>
<g>
</g>
<g>
</g>
<g>
</g>
<g>
</g>
<g>
</g>
<g>
</g>
<g>
</g>
<g>
</g>
<g>
</g>
<g>
</g>
<g>
</g>
<g>
</g>
<g>
</g>
</svg>
