<?xml version="1.0" encoding="iso-8859-1"?>
<!-- Generator: Adobe Illustrator 17.1.0, SVG Export Plug-In . SVG Version: 6.00 Build 0)  -->
<!DOCTYPE svg PUBLIC "-//W3C//DTD SVG 1.1//EN" "http://www.w3.org/Graphics/SVG/1.1/DTD/svg11.dtd">
<svg version="1.1" id="Capa_1" xmlns="http://www.w3.org/2000/svg" xmlns:xlink="http://www.w3.org/1999/xlink" x="0px" y="0px"
	 viewBox="0 0 231.212 231.212" style="enable-background:new 0 0 231.212 231.212;" xml:space="preserve">
<path d="M134.641,231.044l-5.258-1.128c-4.05-0.868-6.629-4.856-5.761-8.906l2.293-10.694c0.56-2.61,3.129-4.272,5.739-3.712
	l10.473,2.246c2.61,0.56,4.272,3.129,3.712,5.739l-2.293,10.694C142.679,229.333,138.691,231.912,134.641,231.044z"/>
<g>
	<path d="M118.825,173.737c-0.789-2.396-3.273-3.734-5.684-3.171L88.505,95.777c4.421-3.532,7.347-9.679,8.402-17.875
		c1.232-9.575-0.176-21.184-3.966-32.69c-3.702-11.239-9.211-21.01-15.5-27.845C83.688,13.68,88.145,9.182,86.504,4.2
		C85.628,1.649,83.257,0,80.463,0c-1.666,0-3.272,0.599-4.522,1.687c-4.838,4.209-12.305,8.17-20.486,10.865
		c-6.949,2.289-14.042,3.55-19.972,3.55c-1.027,0-2.023-0.038-2.963-0.113c-2.379-0.189-4.682,0.875-6.06,2.756
		c-1.195,1.63-1.538,3.65-0.916,5.621c1.165,3.536,4.72,5.33,10.564,5.33c0.001,0,0.001,0,0.002,0c1.378,0,2.903-0.095,4.536-0.273
		c-1.007,9.257,0.368,20.435,4.07,31.675c7.256,22.028,20.999,37.511,33.614,38.012l24.642,74.806
		c-2.273,0.98-3.476,3.532-2.686,5.928l3.115,9.456c1.296,3.934,5.536,6.073,9.47,4.777l4.292-1.414
		c3.934-1.296,6.073-5.536,4.777-9.47L118.825,173.737z M59.569,25.045c2.538-0.836,5.436-1.868,8.374-3.071
		c6.104,5.582,11.82,15.194,15.5,26.367c0.228,0.692,0.422,1.381,0.63,2.071L54.92,60.016c-0.241-0.673-0.477-1.354-0.706-2.046
		c-3.673-11.152-4.793-22.325-3.196-30.457C53.774,26.833,56.648,26.007,59.569,25.045z M58.721,68.926l27.62-9.098
		c1.055,6.04,1.294,11.785,0.648,16.797c-0.854,6.636-3.244,11.217-6.393,12.254c-0.52,0.171-1.055,0.254-1.637,0.254
		C73.436,89.134,65.099,81.632,58.721,68.926z"/>
	<path d="M204.541,39.758c-1.549-1.894-4.193-2.843-6.627-2.384c-6.542,1.236-15.482,0.873-24.275-1.013
		c-8.819-1.892-17.041-5.183-22.555-9.029c-1.171-0.817-2.551-1.249-3.991-1.249c-2.97,0-5.501,1.868-6.272,4.582l-0.101,0.402
		c-1.12,5.226,4.243,9.342,11.054,12.399c-5.84,7.799-10.539,18.65-13.146,30.807c-2.645,12.334-2.813,24.507-0.475,34.278
		c1.985,8.294,5.648,14.288,10.549,17.442l-19.244,89.743l10.929,2.344l19.248-89.761c12.828-1.997,25.34-19.472,30.391-43.024
		c2.615-12.197,2.776-24.01,0.64-33.512c0.121,0.001,0.251,0.007,0.371,0.007c0.016,0,0.03,0,0.046,0
		c3.678,0,13.264-0.028,14.741-6.715l0.058-0.29C206.19,43.005,205.707,41.182,204.541,39.758z M157.198,118.514
		c-0.391,0-0.777-0.041-1.151-0.121c-3.468-0.744-6.521-5.294-8.168-12.171c-1.236-5.16-1.631-11.184-1.204-17.606l30.115,6.458
		C171.403,109.467,163.164,118.515,157.198,118.514z M180.249,83.198c-0.159,0.744-0.329,1.477-0.504,2.203l-31.763-6.811
		c0.139-0.74,0.264-1.477,0.423-2.22c2.589-12.074,7.523-22.811,13.31-29.317c3.451,1.014,6.691,1.781,9.136,2.305
		c3.156,0.677,6.275,1.213,9.27,1.615C182.745,59.27,182.849,71.07,180.249,83.198z"/>
</g>
<g>
</g>
<g>
</g>
<g>
</g>
<g>
</g>
<g>
</g>
<g>
</g>
<g>
</g>
<g>
</g>
<g>
</g>
<g>
</g>
<g>
</g>
<g>
</g>
<g>
</g>
<g>
</g>
<g>
</g>
</svg>
