<?xml version="1.0" encoding="iso-8859-1"?>
<!-- Generator: Adobe Illustrator 17.1.0, SVG Export Plug-In . SVG Version: 6.00 Build 0)  -->
<!DOCTYPE svg PUBLIC "-//W3C//DTD SVG 1.1//EN" "http://www.w3.org/Graphics/SVG/1.1/DTD/svg11.dtd">
<svg version="1.1" id="Capa_1" xmlns="http://www.w3.org/2000/svg" xmlns:xlink="http://www.w3.org/1999/xlink" x="0px" y="0px"
	 viewBox="0 0 190.54 190.54" style="enable-background:new 0 0 190.54 190.54;" xml:space="preserve">
<g>
	<path d="M174.662,30.583L146.717,3.715c-5.299-5.094-13.757-4.929-18.852,0.37c-2.469,2.567-3.79,5.942-3.72,9.503
		c0.07,3.562,1.522,6.882,4.09,9.35l29.085,27.966l-36.734,38.205L92.474,62.077c-1.991-1.914-5.156-1.852-7.069,0.139
		c-1.914,1.991-1.852,5.156,0.139,7.07l28.113,27.031l-49.457,51.437l-0.867-0.834c-0.848-0.815-2.197-0.789-3.012,0.059
		l-6.182,6.429c-3.19,3.318-3.086,8.593,0.231,11.783c3.318,3.19,8.593,3.086,11.783-0.231l6.182-6.429
		c0.815-0.848,0.789-2.197-0.059-3.012l-0.867-0.833l96.55-100.418c0.012-0.012,0.024-0.024,0.037-0.037
		c0.013-0.013,0.024-0.025,0.037-0.039l6.952-7.229C179.41,42.357,179.266,35.011,174.662,30.583z"/>
	<path d="M38.174,173.966l-1.13-0.414L88.497,33.248c2.198-5.996-0.892-12.663-6.887-14.862L45.213,5.038
		c-6.901-2.533-14.577,1.026-17.108,7.928c-1.226,3.344-1.077,6.965,0.42,10.196c1.498,3.231,4.164,5.687,7.507,6.912l37.883,13.893
		L55.667,93.726L19.052,80.299c-2.595-0.951-5.465,0.38-6.416,2.973s0.38,5.465,2.973,6.416l36.616,13.427l-24.568,66.994
		l-1.129-0.414c-1.104-0.405-2.328,0.162-2.733,1.267l-3.071,8.374c-1.585,4.321,0.634,9.108,4.955,10.693
		c4.321,1.585,9.108-0.634,10.693-4.955l3.071-8.374C39.846,175.595,39.279,174.371,38.174,173.966z"/>
</g>
<g>
</g>
<g>
</g>
<g>
</g>
<g>
</g>
<g>
</g>
<g>
</g>
<g>
</g>
<g>
</g>
<g>
</g>
<g>
</g>
<g>
</g>
<g>
</g>
<g>
</g>
<g>
</g>
<g>
</g>
</svg>
