<?xml version="1.0" encoding="iso-8859-1"?>
<!-- Generator: Adobe Illustrator 17.1.0, SVG Export Plug-In . SVG Version: 6.00 Build 0)  -->
<!DOCTYPE svg PUBLIC "-//W3C//DTD SVG 1.1//EN" "http://www.w3.org/Graphics/SVG/1.1/DTD/svg11.dtd">
<svg version="1.1" id="Capa_1" xmlns="http://www.w3.org/2000/svg" xmlns:xlink="http://www.w3.org/1999/xlink" x="0px" y="0px"
	 viewBox="0 0 205.333 205.333" style="enable-background:new 0 0 205.333 205.333;" xml:space="preserve">
<path d="M200.333,38.667h-4.696l-0.479-8.288c-0.153-2.646-2.342-4.712-4.992-4.712h-175c-2.649,0-4.839,2.066-4.992,4.712
	l-0.479,8.288H5c-2.761,0-5,2.238-5,5v39c0,2.762,2.239,5,5,5h1.863l-1.689,29.212c-0.08,1.373,0.411,2.72,1.355,3.72
	c0.945,1.001,2.26,1.568,3.636,1.568c25.646,0,46.511,20.864,46.511,46.511v5.989c0,2.762,2.239,5,5,5h11.989v-109
	c0-2.762,2.239-5,5-5h48c2.761,0,5,2.238,5,5v109h11.989c2.761,0,5-2.238,5-5v-5.989c0-25.646,20.865-46.511,46.511-46.511
	c1.376,0,2.691-0.567,3.636-1.568c0.944-1,1.435-2.347,1.355-3.72l-1.689-29.212h1.863c2.761,0,5-2.238,5-5v-39
	C205.333,40.905,203.094,38.667,200.333,38.667z M10,48.667h25.114c7.995,0,14.5,6.505,14.5,14.5s-6.505,14.5-14.5,14.5H10V48.667z
	 M195.333,48.667v29h-26.056c-7.476,0-13.558-6.082-13.558-13.559v-1.883c0-7.477,6.082-13.559,13.558-13.559H195.333z
	 M83.667,75.667h38v104h-38V75.667z"/>
<g>
</g>
<g>
</g>
<g>
</g>
<g>
</g>
<g>
</g>
<g>
</g>
<g>
</g>
<g>
</g>
<g>
</g>
<g>
</g>
<g>
</g>
<g>
</g>
<g>
</g>
<g>
</g>
<g>
</g>
</svg>
