<?xml version="1.0" encoding="iso-8859-1"?>
<!-- Generator: Adobe Illustrator 17.1.0, SVG Export Plug-In . SVG Version: 6.00 Build 0)  -->
<!DOCTYPE svg PUBLIC "-//W3C//DTD SVG 1.1//EN" "http://www.w3.org/Graphics/SVG/1.1/DTD/svg11.dtd">
<svg version="1.1" id="Capa_1" xmlns="http://www.w3.org/2000/svg" xmlns:xlink="http://www.w3.org/1999/xlink" x="0px" y="0px"
	 viewBox="0 0 220.805 220.805" style="enable-background:new 0 0 220.805 220.805;" xml:space="preserve">
<path d="M219.34,58.11c-1.953-1.952-5.118-1.952-7.071,0c-1.519,1.519-3.093,2.947-4.705,4.302l-40.766-40.766
	c0,0-0.001-0.001-0.002-0.001l-7.107-7.108c-0.45-0.45-0.969-0.784-1.519-1.027c1.413-1.699,2.914-3.364,4.524-4.974
	c1.953-1.953,1.953-5.119,0-7.071c-1.953-1.952-5.118-1.952-7.071,0c-17.546,17.547-24.873,40.549-20.59,58.839
	c-17.183-5.218-39.596,1.346-56.49,18.24c-9.825,9.825-16.154,21.52-18.709,32.966c-0.129,0.381-0.207,0.771-0.242,1.168
	c-1.574,7.831-1.369,15.507,0.711,22.356c-18.29-4.284-41.293,3.042-58.84,20.589c-1.953,1.953-1.953,5.119,0,7.071
	c0.977,0.976,2.256,1.464,3.536,1.464s2.559-0.488,3.536-1.464c0.876-0.876,1.772-1.712,2.676-2.53l49.429,49.429
	c-0.818,0.904-1.654,1.799-2.53,2.676c-1.953,1.953-1.953,5.119,0,7.071c0.977,0.976,2.256,1.464,3.536,1.464
	s2.559-0.488,3.536-1.464c17.547-17.547,24.873-40.55,20.589-58.84c16.782,5.096,38.549-1.06,55.296-17.089
	c0.079-0.07,0.168-0.123,0.244-0.199c0.052-0.052,0.087-0.113,0.135-0.166c0.271-0.263,0.547-0.516,0.815-0.784
	c10.568-10.568,17.49-23.599,19.49-36.691c1.082-7.081,0.661-13.745-1.15-19.694c5.775,1.353,12.103,1.561,18.775,0.542
	c14.255-2.178,28.448-9.72,39.964-21.236C221.293,63.229,221.293,60.063,219.34,58.11z M152.618,21.608l7.108,7.107
	c0,0.001,0.001,0.001,0.001,0.001l39.639,39.639c-3.236,1.999-6.573,3.688-9.966,5.023l-41.986-41.986
	c1.332-3.357,3.026-6.701,5.051-9.973C152.519,21.481,152.559,21.55,152.618,21.608z M137.698,132.527L88.279,83.107
	c6.333-5.677,13.353-9.781,20.336-12.181l39.052,39.052c0.703,0.703,1.565,1.143,2.47,1.34
	C147.745,118.791,143.483,126.075,137.698,132.527z M108.078,149.567l-38.02-38.02c2.02-7.408,5.894-14.691,11.29-21.228
	l49.136,49.136c-6.775,5.59-14.217,9.443-21.496,11.407C108.754,150.398,108.466,149.955,108.078,149.567z M70.055,150.75
	c6.262,7.201,8.244,17.351,6.347,28.143l-34.49-34.49C52.704,142.506,62.854,144.488,70.055,150.75z M19.133,153.943
	c3.852-2.602,7.83-4.725,11.828-6.348l42.249,42.249c-1.623,3.998-3.746,7.976-6.348,11.828L19.133,153.943z M75.869,142.328
	c-4.582-4.582-7.103-10.891-7.375-18.202l28.221,28.221c-7.108-0.272-13.508-2.681-18.238-7.411
	c-0.437-0.437-0.892-0.849-1.347-1.259C76.719,143.221,76.306,142.765,75.869,142.328z M144.936,78.477
	c5.348,5.347,7.889,13.048,7.321,21.949l-31.918-31.918c8.594-0.547,16.44,1.811,21.989,7.361c0.444,0.444,0.906,0.865,1.369,1.283
	C144.102,77.599,144.506,78.047,144.936,78.477z M150.745,70.05c-6.157-7.084-8.174-17.02-6.432-27.614l34.014,34.015
	c-0.154,0.025-0.308,0.058-0.462,0.082C167.014,78.191,157.466,75.89,150.745,70.05z"/>
<g>
</g>
<g>
</g>
<g>
</g>
<g>
</g>
<g>
</g>
<g>
</g>
<g>
</g>
<g>
</g>
<g>
</g>
<g>
</g>
<g>
</g>
<g>
</g>
<g>
</g>
<g>
</g>
<g>
</g>
</svg>
