<?xml version="1.0" encoding="iso-8859-1"?>
<!-- Generator: Adobe Illustrator 17.1.0, SVG Export Plug-In . SVG Version: 6.00 Build 0)  -->
<!DOCTYPE svg PUBLIC "-//W3C//DTD SVG 1.1//EN" "http://www.w3.org/Graphics/SVG/1.1/DTD/svg11.dtd">
<svg version="1.1" id="Capa_1" xmlns="http://www.w3.org/2000/svg" xmlns:xlink="http://www.w3.org/1999/xlink" x="0px" y="0px"
	 viewBox="0 0 210.721 210.721" style="enable-background:new 0 0 210.721 210.721;" xml:space="preserve">
<path d="M195.822,14.946l-0.061-0.06C186.162,5.287,173.399,0,159.824,0c-13.576,0-26.339,5.287-35.938,14.887l-109,108.999
	c-19.816,19.816-19.816,52.06,0.012,71.889l0.061,0.06c9.6,9.6,22.363,14.887,35.938,14.887c13.576,0,26.339-5.287,35.938-14.887
	l109-108.999C215.651,67.019,215.651,34.775,195.822,14.946z M42.772,132.272l89.855-89.855c1.953-1.953,5.118-1.953,7.071,0
	c1.953,1.952,1.953,5.118,0,7.07l-89.855,89.855c-0.977,0.977-2.256,1.465-3.536,1.465s-2.559-0.488-3.536-1.465
	C40.819,137.391,40.819,134.225,42.772,132.272z M50.897,200.721c-10.904,0-21.156-4.247-28.879-11.97l-0.061-0.06
	c-14.72-14.72-15.816-37.971-3.311-53.975l57.361,57.361C68.862,197.675,60.116,200.721,50.897,200.721z M167.304,77.093
	l-89.855,89.855c-0.977,0.977-2.256,1.465-3.536,1.465s-2.559-0.488-3.536-1.465c-1.953-1.952-1.953-5.118,0-7.07l89.855-89.855
	c1.953-1.953,5.118-1.953,7.071,0C169.256,71.975,169.256,75.141,167.304,77.093z M192.074,76.005l-57.361-57.361
	c7.145-5.597,15.89-8.644,25.11-8.644c10.904,0,21.156,4.247,28.879,11.97l0.061,0.06C203.483,36.75,204.579,60,192.074,76.005z"/>
<g>
</g>
<g>
</g>
<g>
</g>
<g>
</g>
<g>
</g>
<g>
</g>
<g>
</g>
<g>
</g>
<g>
</g>
<g>
</g>
<g>
</g>
<g>
</g>
<g>
</g>
<g>
</g>
<g>
</g>
</svg>
