<?xml version="1.0" encoding="iso-8859-1"?>
<!-- Generator: Adobe Illustrator 17.1.0, SVG Export Plug-In . SVG Version: 6.00 Build 0)  -->
<!DOCTYPE svg PUBLIC "-//W3C//DTD SVG 1.1//EN" "http://www.w3.org/Graphics/SVG/1.1/DTD/svg11.dtd">
<svg version="1.1" id="Capa_1" xmlns="http://www.w3.org/2000/svg" xmlns:xlink="http://www.w3.org/1999/xlink" x="0px" y="0px"
	 viewBox="0 0 213.445 213.445" style="enable-background:new 0 0 213.445 213.445;" xml:space="preserve">
<path d="M201.772,4.849l-0.605-0.644c-5.042-5.367-13.48-5.632-18.847-0.59l-51.9,48.748l-2-2.129
	c-1.883-2.004-4.54-3.153-7.29-3.153c-2.553,0-4.984,0.963-6.841,2.708l-0.246,0.23c-4.019,3.775-4.217,10.116-0.442,14.136
	l2.194,2.336c-0.084,0.069-0.176,0.121-0.257,0.197L34.708,142.61c-3.458,3.249-6.301,7.041-8.45,11.271l-4.446,8.753
	c-1.403,2.76-0.92,6.13,1.199,8.386l1.127,1.2c1.388,1.478,3.346,2.326,5.374,2.326c1.01,0,1.993-0.203,2.92-0.604l9.015-3.891
	c4.357-1.88,8.32-4.48,11.778-7.729l80.832-75.923c0.079-0.075,0.139-0.164,0.213-0.244l2.194,2.336
	c1.883,2.004,4.54,3.153,7.29,3.153c2.553,0,4.984-0.963,6.849-2.715l0.236-0.223c1.948-1.828,3.066-4.306,3.15-6.976
	c0.084-2.67-0.877-5.212-2.706-7.16l-2-2.129l51.899-48.748C206.55,18.654,206.814,10.216,201.772,4.849z M46.378,155.035
	c-2.611,2.453-5.603,4.416-8.894,5.836l-4.561,1.968l2.25-4.429c1.623-3.194,3.77-6.058,6.381-8.511l77.187-72.5l4.824,5.136
	L46.378,155.035z M33.052,201.648c0,7.378-5.595,11.797-12.497,11.797s-12.497-4.419-12.497-11.797c0-2.379,0.521-4.774,1.54-6.928
	l0,0l8.815-18.066c0.871-1.784,3.413-1.784,4.283,0l8.815,18.066l0,0C32.531,196.874,33.052,199.269,33.052,201.648z"/>
<g>
</g>
<g>
</g>
<g>
</g>
<g>
</g>
<g>
</g>
<g>
</g>
<g>
</g>
<g>
</g>
<g>
</g>
<g>
</g>
<g>
</g>
<g>
</g>
<g>
</g>
<g>
</g>
<g>
</g>
</svg>
