<?xml version="1.0" encoding="iso-8859-1"?>
<!-- Generator: Adobe Illustrator 17.1.0, SVG Export Plug-In . SVG Version: 6.00 Build 0)  -->
<!DOCTYPE svg PUBLIC "-//W3C//DTD SVG 1.1//EN" "http://www.w3.org/Graphics/SVG/1.1/DTD/svg11.dtd">
<svg version="1.1" id="Capa_1" xmlns="http://www.w3.org/2000/svg" xmlns:xlink="http://www.w3.org/1999/xlink" x="0px" y="0px"
	 viewBox="0 0 189.305 189.305" style="enable-background:new 0 0 189.305 189.305;" xml:space="preserve">
<path d="M132.43,24.626H56.875c-2.895,0-5.25-2.355-5.25-5.25V5.25c0-2.895,2.355-5.25,5.25-5.25h75.555
	c2.895,0,5.25,2.355,5.25,5.25v14.126C137.68,22.271,135.324,24.626,132.43,24.626z M132.655,34.615
	c-0.076,0.001-0.149,0.011-0.225,0.011H56.875c-0.076,0-0.15-0.01-0.225-0.011L43.451,54.811c-1.578,2.415,0.154,5.617,3.04,5.617
	h96.323c2.885,0,4.618-3.202,3.04-5.617L132.655,34.615z M149.525,72.547v87.72c0,16.037-13,29.038-29.038,29.038H68.818
	c-16.037,0-29.038-13.001-29.038-29.038V72.547c0-2.432,1.971-4.403,4.403-4.403h100.939
	C147.554,68.144,149.525,70.116,149.525,72.547z M139.21,101.629c0-6.051-4.905-10.956-10.956-10.956H61.05
	c-6.051,0-10.956,4.905-10.956,10.956v40.484c0,6.051,4.905,10.956,10.956,10.956h67.204c6.051,0,10.956-4.905,10.956-10.956
	V101.629z M123.256,105.691c0-2.761-2.238-5-5-5H63.01c-2.762,0-5,2.239-5,5s2.238,5,5,5h55.246
	C121.017,110.691,123.256,108.452,123.256,105.691z M111.245,121.824c0-2.761-2.238-5-5-5H63.01c-2.762,0-5,2.239-5,5s2.238,5,5,5
	h43.235C109.007,126.824,111.245,124.585,111.245,121.824z M127.579,137.958c0-2.761-2.238-5-5-5H63.01c-2.762,0-5,2.239-5,5
	s2.238,5,5,5h59.569C125.341,142.958,127.579,140.719,127.579,137.958z"/>
<g>
</g>
<g>
</g>
<g>
</g>
<g>
</g>
<g>
</g>
<g>
</g>
<g>
</g>
<g>
</g>
<g>
</g>
<g>
</g>
<g>
</g>
<g>
</g>
<g>
</g>
<g>
</g>
<g>
</g>
</svg>
