<?xml version="1.0" encoding="iso-8859-1"?>
<!-- Generator: Adobe Illustrator 17.1.0, SVG Export Plug-In . SVG Version: 6.00 Build 0)  -->
<!DOCTYPE svg PUBLIC "-//W3C//DTD SVG 1.1//EN" "http://www.w3.org/Graphics/SVG/1.1/DTD/svg11.dtd">
<svg version="1.1" id="Capa_1" xmlns="http://www.w3.org/2000/svg" xmlns:xlink="http://www.w3.org/1999/xlink" x="0px" y="0px"
	 viewBox="0 0 205.05 205.05" style="enable-background:new 0 0 205.05 205.05;" xml:space="preserve">
<path d="M189.839,77.525h2.878c6.812,0,12.333-5.522,12.333-12.333c0-6.812-5.522-12.333-12.333-12.333h-50.454v-8.666
	c0-2.762-2.239-5-5-5H67.787c-2.761,0-5,2.238-5,5v8.666H12.333C5.522,52.858,0,58.38,0,65.192c0,6.812,5.522,12.333,12.333,12.333
	h2.877l73.852,29.54l-47.82,19.127H27.596c-2.761,0-5,2.238-5,5v10.419c-6.941,2.141-12,8.613-12,16.247c0,9.374,7.626,17,17,17
	s17-7.626,17-17c0-7.634-5.059-14.107-12-16.247v-5.419h139.858v5.419c-6.941,2.141-12,8.613-12,16.247c0,9.374,7.626,17,17,17
	s17-7.626,17-17c0-7.634-5.059-14.107-12-16.247v-10.419c0-2.762-2.239-5-5-5h-13.646l-47.82-19.127L189.839,77.525z
	 M27.596,164.858c-3.86,0-7-3.141-7-7s3.14-7,7-7s7,3.141,7,7S31.456,164.858,27.596,164.858z M177.454,164.858c-3.86,0-7-3.141-7-7
	s3.14-7,7-7s7,3.141,7,7S181.314,164.858,177.454,164.858z M72.787,49.192h59.476v3.666H72.787V49.192z M42.136,77.525h120.778
	l-60.389,24.155L42.136,77.525z M136.883,126.192H68.167l34.357-13.743L136.883,126.192z M4.502,39.525v-0.667
	c0-4.786,3.88-8.667,8.667-8.667h36.196c4.786,0,8.667,3.88,8.667,8.667v0.667c0,4.786-3.88,8.667-8.667,8.667H13.169
	C8.382,48.192,4.502,44.312,4.502,39.525z"/>
<g>
</g>
<g>
</g>
<g>
</g>
<g>
</g>
<g>
</g>
<g>
</g>
<g>
</g>
<g>
</g>
<g>
</g>
<g>
</g>
<g>
</g>
<g>
</g>
<g>
</g>
<g>
</g>
<g>
</g>
</svg>
