<?xml version="1.0" encoding="iso-8859-1"?>
<!-- Generator: Adobe Illustrator 17.1.0, SVG Export Plug-In . SVG Version: 6.00 Build 0)  -->
<!DOCTYPE svg PUBLIC "-//W3C//DTD SVG 1.1//EN" "http://www.w3.org/Graphics/SVG/1.1/DTD/svg11.dtd">
<svg version="1.1" id="Capa_1" xmlns="http://www.w3.org/2000/svg" xmlns:xlink="http://www.w3.org/1999/xlink" x="0px" y="0px"
	 viewBox="0 0 193.969 193.969" style="enable-background:new 0 0 193.969 193.969;" xml:space="preserve">
<path d="M193.969,95.097c0,24.7-43.421,44.724-96.984,44.724C43.421,139.821,0,119.798,0,95.097
	c0-18.296,23.827-34.023,57.948-40.95c-7.529,8.905-12.08,20.403-12.08,32.95c0,28.186,22.931,51.117,51.116,51.117
	s51.116-22.931,51.116-51.117c0-12.547-4.552-24.045-12.08-32.95C170.142,61.075,193.969,76.802,193.969,95.097z M121.591,85.097
	c-8.148,0-14.754-6.606-14.754-14.754c0-3.867,1.5-7.376,3.935-10.007c-4.134-2.139-8.82-3.355-13.787-3.355
	c-16.606,0-30.116,13.51-30.116,30.116c0,16.606,13.51,30.117,30.116,30.117s30.116-13.51,30.116-30.117
	c0-1.019-0.052-2.025-0.151-3.018C125.286,84.728,123.483,85.097,121.591,85.097z"/>
<g>
</g>
<g>
</g>
<g>
</g>
<g>
</g>
<g>
</g>
<g>
</g>
<g>
</g>
<g>
</g>
<g>
</g>
<g>
</g>
<g>
</g>
<g>
</g>
<g>
</g>
<g>
</g>
<g>
</g>
</svg>
