<?xml version="1.0" encoding="iso-8859-1"?>
<!-- Generator: Adobe Illustrator 17.1.0, SVG Export Plug-In . SVG Version: 6.00 Build 0)  -->
<!DOCTYPE svg PUBLIC "-//W3C//DTD SVG 1.1//EN" "http://www.w3.org/Graphics/SVG/1.1/DTD/svg11.dtd">
<svg version="1.1" id="Capa_1" xmlns="http://www.w3.org/2000/svg" xmlns:xlink="http://www.w3.org/1999/xlink" x="0px" y="0px"
	 viewBox="0 0 199.216 199.216" style="enable-background:new 0 0 199.216 199.216;" xml:space="preserve">
<path d="M199.052,102.106c-0.7-2.672-3.436-4.272-6.104-3.57l-29.37,7.692l-4.588-34.824l15.37,6.265
	c2.346,0.956,5.037,0.006,6.263-2.21l15.77-28.52c1.144-2.068,0.684-4.653-1.103-6.2l-33.837-29.296
	c-3.902-3.377-8.827-5.237-13.867-5.237h-23.062c-2.761,0-5,2.238-5,5c0,5.11-3.699,9.269-8.246,9.269H87.939
	c-4.547,0-8.246-4.158-8.246-9.269c0-2.762-2.239-5-5-5H51.63c-5.04,0-9.965,1.86-13.867,5.237L3.926,40.738
	c-1.786,1.547-2.246,4.132-1.103,6.2l15.77,28.52c1.226,2.217,3.918,3.167,6.263,2.21l15.371-6.265l-4.588,34.824L6.268,98.535
	c-2.669-0.703-5.404,0.897-6.104,3.57c-0.7,2.671,0.899,5.404,3.57,6.104l30.587,8.011l-9.372,71.137
	c-0.188,1.428,0.249,2.867,1.198,3.95c0.949,1.082,2.319,1.703,3.759,1.703h139.402c0.006,0,0.012,0,0.02,0c2.761,0,5-2.238,5-5
	c0-0.379-0.042-0.748-0.122-1.104l-9.313-70.687l30.587-8.011C198.153,107.51,199.751,104.776,199.052,102.106z"/>
<g>
</g>
<g>
</g>
<g>
</g>
<g>
</g>
<g>
</g>
<g>
</g>
<g>
</g>
<g>
</g>
<g>
</g>
<g>
</g>
<g>
</g>
<g>
</g>
<g>
</g>
<g>
</g>
<g>
</g>
</svg>
