<?xml version="1.0" encoding="iso-8859-1"?>
<!-- Generator: Adobe Illustrator 17.1.0, SVG Export Plug-In . SVG Version: 6.00 Build 0)  -->
<!DOCTYPE svg PUBLIC "-//W3C//DTD SVG 1.1//EN" "http://www.w3.org/Graphics/SVG/1.1/DTD/svg11.dtd">
<svg version="1.1" id="Capa_1" xmlns="http://www.w3.org/2000/svg" xmlns:xlink="http://www.w3.org/1999/xlink" x="0px" y="0px"
	 viewBox="0 0 220.759 220.759" style="enable-background:new 0 0 220.759 220.759;" xml:space="preserve">
<path d="M198.733,194.119l-35.676-75.026V62.05h0.608c2.597,0,4.702-2.105,4.702-4.702v-1.709c0-2.597-2.105-4.702-4.702-4.702
	H126.77c-2.597,0-4.702,2.105-4.702,4.702v1.709c0,2.597,2.105,4.702,4.702,4.702h0.607v34.438
	c-8.076-8.011-18.473-13.883-30.322-16.581V12.315h2.791c3.401,0,6.158-2.757,6.158-6.158c0-3.401-2.757-6.158-6.158-6.158H65.419
	c-3.401,0-6.158,2.757-6.158,6.158c0,3.401,2.757,6.158,6.158,6.158h2.971v67.547c-28.239,6.336-48.309,30.594-48.309,59.182
	c0,33.51,28.061,60.771,62.551,60.771c2.512,0,4.985-0.161,7.421-0.442c-0.817,4.814,0.107,9.849,2.729,13.998
	c2.966,4.695,7.597,7.388,12.704,7.388h79.463c5.107,0,9.738-2.692,12.704-7.388C201.256,207.669,201.669,200.292,198.733,194.119z
	 M127.377,119.092l-5.696,11.978H30.732c3.46-21.422,20.655-38.567,43.432-42.132l4.227-0.661V19.946h8.664v68.349l4.212,0.673
	c15.489,2.473,28.383,11.251,36.11,23.365V119.092z M143.162,154.379c1.316-4.901,2.021-10.039,2.021-15.335
	c0-10.681-2.81-20.764-7.806-29.535v-42.46h15.681v54.299l15.706,33.031H143.162z"/>
<g>
</g>
<g>
</g>
<g>
</g>
<g>
</g>
<g>
</g>
<g>
</g>
<g>
</g>
<g>
</g>
<g>
</g>
<g>
</g>
<g>
</g>
<g>
</g>
<g>
</g>
<g>
</g>
<g>
</g>
</svg>
