<?xml version="1.0" encoding="iso-8859-1"?>
<!-- Generator: Adobe Illustrator 17.1.0, SVG Export Plug-In . SVG Version: 6.00 Build 0)  -->
<!DOCTYPE svg PUBLIC "-//W3C//DTD SVG 1.1//EN" "http://www.w3.org/Graphics/SVG/1.1/DTD/svg11.dtd">
<svg version="1.1" id="Capa_1" xmlns="http://www.w3.org/2000/svg" xmlns:xlink="http://www.w3.org/1999/xlink" x="0px" y="0px"
	 viewBox="0 0 205.938 205.938" style="enable-background:new 0 0 205.938 205.938;" xml:space="preserve">
<path d="M200.205,96.114l-55.675-84.61C139.933,4.516,132.155,0,124.718,0c-4.3,0-8.217,1.549-11.03,4.362L88.855,29.195
	c-3.27,3.269-4.783,7.872-4.264,12.963c0.7,6.861,5.07,13.713,11.404,17.88l19.014,12.512L6.484,181.076
	c-2.535,2.534-3.931,5.904-3.931,9.489c0,3.584,1.396,6.954,3.931,9.488l1.954,1.955c2.535,2.534,5.904,3.93,9.488,3.93
	s6.953-1.396,9.488-3.931L140.258,89.164l40.347,26.549c3.171,2.086,6.568,3.189,9.826,3.189c4.91,0,9.171-2.467,11.397-6.598
	C204.376,107.581,203.769,101.528,200.205,96.114z"/>
<g>
</g>
<g>
</g>
<g>
</g>
<g>
</g>
<g>
</g>
<g>
</g>
<g>
</g>
<g>
</g>
<g>
</g>
<g>
</g>
<g>
</g>
<g>
</g>
<g>
</g>
<g>
</g>
<g>
</g>
</svg>
