<?xml version="1.0" encoding="iso-8859-1"?>
<!-- Generator: Adobe Illustrator 17.1.0, SVG Export Plug-In . SVG Version: 6.00 Build 0)  -->
<!DOCTYPE svg PUBLIC "-//W3C//DTD SVG 1.1//EN" "http://www.w3.org/Graphics/SVG/1.1/DTD/svg11.dtd">
<svg version="1.1" id="Capa_1" xmlns="http://www.w3.org/2000/svg" xmlns:xlink="http://www.w3.org/1999/xlink" x="0px" y="0px"
	 viewBox="0 0 205.741 205.741" style="enable-background:new 0 0 205.741 205.741;" xml:space="preserve">
<path d="M170.721,42.274V24.886c1.34,0.476,2.775,0.749,4.275,0.749c7.068,0,12.818-5.75,12.818-12.817S182.064,0,174.997,0
	c-5.716,0-10.567,3.763-12.215,8.94C161.135,3.763,156.283,0,150.567,0C143.5,0,137.75,5.75,137.75,12.817
	s5.75,12.817,12.817,12.817c1.501,0,2.936-0.273,4.276-0.749v4.382h-34.605c-18.936,0-34.341,15.405-34.341,34.341v77.384
	c0,13.422-10.919,24.341-24.34,24.341h-0.593c-13.421,0-24.341-10.919-24.341-24.341v-15.985
	c13.569-2.126,22.667-12.94,22.667-27.757c0-16.746-11.832-35.475-27.667-35.475c-15.835,0-27.667,18.729-27.667,35.475
	c0,14.817,9.098,25.631,22.667,27.757v15.985c0,18.936,15.405,34.341,34.341,34.341h0.593c18.936,0,34.34-15.405,34.34-34.341
	V63.608c0-13.422,10.919-24.341,24.341-24.341h34.605v3.006c-17.692,3.541-31.064,19.19-31.064,37.909v120.559c0,2.762,2.239,5,5,5
	h68.006c2.761,0,5-2.238,5-5V80.183C201.785,61.464,188.413,45.814,170.721,42.274z M13.956,97.25
	c0-12.856,8.751-25.475,17.667-25.475c8.917,0,17.667,12.618,17.667,25.475c0,9.196-4.837,15.659-12.667,17.556V92.583
	c0-2.762-2.239-5-5-5s-5,2.238-5,5v22.223C18.793,112.909,13.956,106.446,13.956,97.25z"/>
<g>
</g>
<g>
</g>
<g>
</g>
<g>
</g>
<g>
</g>
<g>
</g>
<g>
</g>
<g>
</g>
<g>
</g>
<g>
</g>
<g>
</g>
<g>
</g>
<g>
</g>
<g>
</g>
<g>
</g>
</svg>
