<?xml version="1.0" encoding="iso-8859-1"?>
<!-- Generator: Adobe Illustrator 17.1.0, SVG Export Plug-In . SVG Version: 6.00 Build 0)  -->
<!DOCTYPE svg PUBLIC "-//W3C//DTD SVG 1.1//EN" "http://www.w3.org/Graphics/SVG/1.1/DTD/svg11.dtd">
<svg version="1.1" id="Capa_1" xmlns="http://www.w3.org/2000/svg" xmlns:xlink="http://www.w3.org/1999/xlink" x="0px" y="0px"
	 viewBox="0 0 189.356 189.356" style="enable-background:new 0 0 189.356 189.356;" xml:space="preserve">
<path d="M65.098,149.512c0,7.352-5.981,13.333-13.334,13.333c-7.352,0-13.333-5.981-13.333-13.333s5.981-13.333,13.333-13.333
	C59.116,136.178,65.098,142.16,65.098,149.512z M150.098,136.178c-7.353,0-13.334,5.981-13.334,13.333s5.981,13.333,13.334,13.333
	c7.352,0,13.333-5.981,13.333-13.333S157.449,136.178,150.098,136.178z M58.098,93.764V67.559H17.254L1.266,85.516
	C0.45,86.432,0,87.615,0,88.841v4.923H58.098z M189.356,51.995v93.536c0,2.761-2.238,5-5,5h-10.952
	c0.015-0.339,0.026-0.678,0.026-1.02c0-12.866-10.467-23.333-23.333-23.333s-23.334,10.467-23.334,23.333
	c0,0.342,0.011,0.682,0.026,1.02H75.072c0.015-0.339,0.026-0.678,0.026-1.02c0-12.866-10.468-23.333-23.334-23.333
	s-23.333,10.467-23.333,23.333c0,0.342,0.011,0.682,0.026,1.02H5c-2.762,0-5-2.239-5-5v-41.768h63.098c2.762,0,5-2.239,5-5V62.559
	c0-2.761-2.238-5-5-5H26.159l7.915-8.889c0.949-1.065,2.308-1.675,3.734-1.675h146.549
	C187.118,46.995,189.356,49.234,189.356,51.995z M145.119,96.118l-0.012-13.233c-0.001-0.663-0.265-1.298-0.733-1.767
	c-0.469-0.468-1.104-0.73-1.767-0.73c-0.001,0-0.002,0-0.002,0l-9.464,0.009v-9.463c0-1.381-1.119-2.5-2.5-2.5h-13.233
	c-1.381,0-2.5,1.119-2.5,2.5v9.48l-9.479,0.009c-1.381,0.001-2.499,1.122-2.498,2.502l0.012,13.233
	c0.001,0.663,0.265,1.298,0.733,1.767c0.469,0.468,1.104,0.73,1.767,0.73c0.001,0,0.002,0,0.002,0l9.464-0.009v9.463
	c0,1.381,1.119,2.5,2.5,2.5h13.233c1.381,0,2.5-1.119,2.5-2.5v-9.48l9.479-0.009C144.002,98.619,145.12,97.498,145.119,96.118z
	 M105.431,26.511c-7.548,0-13.667,6.119-13.667,13.667h27.333C119.097,32.63,112.979,26.511,105.431,26.511z"/>
<g>
</g>
<g>
</g>
<g>
</g>
<g>
</g>
<g>
</g>
<g>
</g>
<g>
</g>
<g>
</g>
<g>
</g>
<g>
</g>
<g>
</g>
<g>
</g>
<g>
</g>
<g>
</g>
<g>
</g>
</svg>
