<?xml version="1.0" encoding="iso-8859-1"?>
<!-- Generator: Adobe Illustrator 17.1.0, SVG Export Plug-In . SVG Version: 6.00 Build 0)  -->
<!DOCTYPE svg PUBLIC "-//W3C//DTD SVG 1.1//EN" "http://www.w3.org/Graphics/SVG/1.1/DTD/svg11.dtd">
<svg version="1.1" id="Capa_1" xmlns="http://www.w3.org/2000/svg" xmlns:xlink="http://www.w3.org/1999/xlink" x="0px" y="0px"
	 viewBox="0 0 189.609 189.609" style="enable-background:new 0 0 189.609 189.609;" xml:space="preserve">
<path d="M181.61,1.983l-80.006,67.278C76.743,52.956,42.9,55.25,20.583,76.32C2.495,93.397-3.666,118.136,2.079,140.444
	c1.294,5.023,4.373,9.435,8.742,12.232c4.76,3.047,9.686,7.002,14.398,11.715c4.712,4.712,8.667,9.638,11.714,14.398
	c2.795,4.367,7.204,7.448,12.225,8.741c21.73,5.599,45.768-0.101,62.785-17.118c22.399-22.399,25.193-56.962,8.412-82.414
	l67.271-79.997C192.547,2.148,187.461-2.938,181.61,1.983z"/>
<g>
</g>
<g>
</g>
<g>
</g>
<g>
</g>
<g>
</g>
<g>
</g>
<g>
</g>
<g>
</g>
<g>
</g>
<g>
</g>
<g>
</g>
<g>
</g>
<g>
</g>
<g>
</g>
<g>
</g>
</svg>
