<?xml version="1.0" encoding="iso-8859-1"?>
<!-- Generator: Adobe Illustrator 17.1.0, SVG Export Plug-In . SVG Version: 6.00 Build 0)  -->
<!DOCTYPE svg PUBLIC "-//W3C//DTD SVG 1.1//EN" "http://www.w3.org/Graphics/SVG/1.1/DTD/svg11.dtd">
<svg version="1.1" id="Capa_1" xmlns="http://www.w3.org/2000/svg" xmlns:xlink="http://www.w3.org/1999/xlink" x="0px" y="0px"
	 viewBox="0 0 219 219" style="enable-background:new 0 0 219 219;" xml:space="preserve">
<path d="M91.5,125.68h36V193h-36V125.68z M219,31v157c0,2.761-2.238,5-5,5h-76.5v-72.32c0-2.761-2.238-5-5-5h-46
	c-2.762,0-5,2.239-5,5V193H5c-2.762,0-5-2.239-5-5V31c0-2.761,2.238-5,5-5h209C216.762,26,219,28.239,219,31z M47.614,142.79
	c0-1.609-1.304-2.913-2.913-2.913H25.298c-1.608,0-2.913,1.304-2.913,2.913v15.992c0,1.609,1.304,2.913,2.913,2.913h19.403
	c1.608,0,2.913-1.304,2.913-2.913V142.79z M47.614,110.413c0-1.609-1.304-2.913-2.913-2.913H25.298
	c-1.608,0-2.913,1.304-2.913,2.913v15.992c0,1.609,1.304,2.913,2.913,2.913h19.403c1.608,0,2.913-1.304,2.913-2.913V110.413z
	 M47.614,78.473c0-1.609-1.304-2.913-2.913-2.913H25.298c-1.608,0-2.913,1.304-2.913,2.913v15.992c0,1.609,1.304,2.913,2.913,2.913
	h19.403c1.608,0,2.913-1.304,2.913-2.913V78.473z M47.614,46.096c0-1.609-1.304-2.913-2.913-2.913H25.298
	c-1.608,0-2.913,1.304-2.913,2.913v15.992c0,1.609,1.304,2.913,2.913,2.913h19.403c1.608,0,2.913-1.304,2.913-2.913V46.096z
	 M84.864,78.473c0-1.609-1.304-2.913-2.913-2.913H62.548c-1.608,0-2.913,1.304-2.913,2.913v15.992c0,1.609,1.304,2.913,2.913,2.913
	h19.403c1.608,0,2.913-1.304,2.913-2.913V78.473z M84.864,46.096c0-1.609-1.304-2.913-2.913-2.913H62.548
	c-1.608,0-2.913,1.304-2.913,2.913v15.992c0,1.609,1.304,2.913,2.913,2.913h19.403c1.608,0,2.913-1.304,2.913-2.913V46.096z
	 M96.886,62.087c0,1.609,1.304,2.913,2.913,2.913h19.403c1.608,0,2.913-1.304,2.913-2.913V46.096c0-1.609-1.304-2.913-2.913-2.913
	H99.798c-1.608,0-2.913,1.304-2.913,2.913V62.087z M123.639,95.235l-0.005-6.016c-0.001-1.239-1.007-2.243-2.246-2.242l-6.624,0.007
	v-7.254c0-1.239-1.005-2.244-2.244-2.244h-5.32c-1.239,0-2.244,1.005-2.244,2.244v7.263l-6.633,0.007
	c-1.239,0.001-2.243,1.007-2.242,2.246l0.005,6.016c0.001,1.239,1.007,2.243,2.246,2.242l6.624-0.007v7.254
	c0,1.239,1.005,2.244,2.244,2.244h5.32c1.239,0,2.244-1.005,2.244-2.244v-7.263l6.633-0.006
	C122.637,97.479,123.641,96.474,123.639,95.235z M159.364,78.473c0-1.609-1.304-2.913-2.913-2.913h-19.403
	c-1.608,0-2.913,1.304-2.913,2.913v15.992c0,1.609,1.304,2.913,2.913,2.913h19.403c1.608,0,2.913-1.304,2.913-2.913V78.473z
	 M159.364,46.096c0-1.609-1.304-2.913-2.913-2.913h-19.403c-1.608,0-2.913,1.304-2.913,2.913v15.992
	c0,1.609,1.304,2.913,2.913,2.913h19.403c1.608,0,2.913-1.304,2.913-2.913V46.096z M196.614,142.79c0-1.609-1.304-2.913-2.913-2.913
	h-19.403c-1.608,0-2.913,1.304-2.913,2.913v15.992c0,1.609,1.304,2.913,2.913,2.913h19.403c1.608,0,2.913-1.304,2.913-2.913V142.79z
	 M196.614,110.413c0-1.609-1.304-2.913-2.913-2.913h-19.403c-1.608,0-2.913,1.304-2.913,2.913v15.992
	c0,1.609,1.304,2.913,2.913,2.913h19.403c1.608,0,2.913-1.304,2.913-2.913V110.413z M196.614,78.473
	c0-1.609-1.304-2.913-2.913-2.913h-19.403c-1.608,0-2.913,1.304-2.913,2.913v15.992c0,1.609,1.304,2.913,2.913,2.913h19.403
	c1.608,0,2.913-1.304,2.913-2.913V78.473z M196.614,46.096c0-1.609-1.304-2.913-2.913-2.913h-19.403
	c-1.608,0-2.913,1.304-2.913,2.913v15.992c0,1.609,1.304,2.913,2.913,2.913h19.403c1.608,0,2.913-1.304,2.913-2.913V46.096z"/>
<g>
</g>
<g>
</g>
<g>
</g>
<g>
</g>
<g>
</g>
<g>
</g>
<g>
</g>
<g>
</g>
<g>
</g>
<g>
</g>
<g>
</g>
<g>
</g>
<g>
</g>
<g>
</g>
<g>
</g>
</svg>
