<?xml version="1.0" encoding="iso-8859-1"?>
<!-- Generator: Adobe Illustrator 17.1.0, SVG Export Plug-In . SVG Version: 6.00 Build 0)  -->
<!DOCTYPE svg PUBLIC "-//W3C//DTD SVG 1.1//EN" "http://www.w3.org/Graphics/SVG/1.1/DTD/svg11.dtd">
<svg version="1.1" id="Capa_1" xmlns="http://www.w3.org/2000/svg" xmlns:xlink="http://www.w3.org/1999/xlink" x="0px" y="0px"
	 viewBox="0 0 220.396 220.396" style="enable-background:new 0 0 220.396 220.396;" xml:space="preserve">
<path d="M204.122,31.251l-27.69-27.689C174.136,1.265,171.083,0,167.836,0c-3.232,0-6.27,1.256-8.607,3.593
	c-16.262,16.262-33.889,38.194-46.002,57.239c-6.489,10.203-11.068,18.996-13.609,26.137c-2.358,6.625-2.927,11.827-1.711,15.736
	l-49.937,49.937l-4.059-4.059c-0.938-0.938-2.209-1.465-3.536-1.465s-2.598,0.526-3.536,1.465l-22.655,22.655
	c-1.953,1.952-1.953,5.118,0,7.07l40.623,40.623c0.977,0.977,2.256,1.465,3.536,1.465c1.279,0,2.559-0.488,3.536-1.464
	c4.586-4.587,7.112-10.685,7.112-17.172c0-6.486-2.526-12.584-7.112-17.171l-4.048-4.048c-1.465-1.465-2.272-3.413-2.272-5.484
	s0.807-4.02,2.272-5.484c0.938-0.938,1.464-2.209,1.464-3.535s-0.527-2.598-1.464-3.535l-2.79-2.79l49.956-49.957
	c1.347,0.418,2.836,0.64,4.477,0.64c0.001,0,0.002,0,0.003,0c21.037,0,69.295-36.625,94.565-61.896
	c0.025-0.024,0.064-0.063,0.103-0.103C208.864,43.675,208.854,35.983,204.122,31.251z"/>
<g>
</g>
<g>
</g>
<g>
</g>
<g>
</g>
<g>
</g>
<g>
</g>
<g>
</g>
<g>
</g>
<g>
</g>
<g>
</g>
<g>
</g>
<g>
</g>
<g>
</g>
<g>
</g>
<g>
</g>
</svg>
