<?xml version="1.0" encoding="iso-8859-1"?>
<!-- Generator: Adobe Illustrator 17.1.0, SVG Export Plug-In . SVG Version: 6.00 Build 0)  -->
<!DOCTYPE svg PUBLIC "-//W3C//DTD SVG 1.1//EN" "http://www.w3.org/Graphics/SVG/1.1/DTD/svg11.dtd">
<svg version="1.1" id="Capa_1" xmlns="http://www.w3.org/2000/svg" xmlns:xlink="http://www.w3.org/1999/xlink" x="0px" y="0px"
	 viewBox="0 0 210.316 210.316" style="enable-background:new 0 0 210.316 210.316;" xml:space="preserve">
<path d="M105.158,0C47.174,0,0,47.174,0,105.158s47.173,105.158,105.158,105.158s105.158-47.174,105.158-105.158
	S163.143,0,105.158,0z M64.98,114.116c14.942,0,27.099,12.156,27.099,27.099s-12.157,27.1-27.099,27.1s-27.099-12.157-27.099-27.1
	S50.038,114.116,64.98,114.116z M64.98,96.2c-14.942,0-27.099-12.156-27.099-27.099s12.157-27.1,27.099-27.1
	s27.099,12.157,27.099,27.1S79.923,96.2,64.98,96.2z M145.336,96.2c-14.942,0-27.099-12.156-27.099-27.099s12.157-27.1,27.099-27.1
	s27.099,12.157,27.099,27.1S160.278,96.2,145.336,96.2z M145.336,114.116c14.942,0,27.099,12.156,27.099,27.099
	s-12.157,27.1-27.099,27.1s-27.099-12.157-27.099-27.1S130.394,114.116,145.336,114.116z"/>
<g>
</g>
<g>
</g>
<g>
</g>
<g>
</g>
<g>
</g>
<g>
</g>
<g>
</g>
<g>
</g>
<g>
</g>
<g>
</g>
<g>
</g>
<g>
</g>
<g>
</g>
<g>
</g>
<g>
</g>
</svg>
