<?xml version="1.0" encoding="iso-8859-1"?>
<!-- Generator: Adobe Illustrator 17.1.0, SVG Export Plug-In . SVG Version: 6.00 Build 0)  -->
<!DOCTYPE svg PUBLIC "-//W3C//DTD SVG 1.1//EN" "http://www.w3.org/Graphics/SVG/1.1/DTD/svg11.dtd">
<svg version="1.1" id="Capa_1" xmlns="http://www.w3.org/2000/svg" xmlns:xlink="http://www.w3.org/1999/xlink" x="0px" y="0px"
	 viewBox="0 0 196.663 196.663" style="enable-background:new 0 0 196.663 196.663;" xml:space="preserve">
<path d="M117.515,88.828v6.996c0,2.719-2.205,4.924-4.924,4.924H84.073c-2.719,0-4.924-2.204-4.924-4.924v-6.996
	c0-2.719,2.205-4.924,4.924-4.924c3.094,0,5.603-2.509,5.603-5.603V18.41c0-2.611,2.116-4.727,4.727-4.727h7.857
	c2.611,0,4.727,2.116,4.727,4.727v59.891c0,3.094,2.509,5.603,5.603,5.603l0,0C115.31,83.904,117.515,86.109,117.515,88.828z
	 M25.059,79.884C5.016,106.238,0.873,150.848,0.017,168.162c-0.22,4.458,1.687,8.732,5.142,11.558
	c3.139,2.569,7.216,3.697,11.229,3.107l38.335-5.632c3.068-0.451,5.909-1.878,8.102-4.071l3.862-3.862
	c2.705-2.705,4.224-6.373,4.224-10.198V63.041C70.911,47.133,50.325,46.665,25.059,79.884z M171.604,79.884
	c-25.265-33.219-45.852-32.751-45.852-16.844v96.023c0,3.825,1.52,7.493,4.224,10.198l3.862,3.862
	c2.193,2.193,5.034,3.62,8.102,4.071l38.335,5.632c4.014,0.59,8.09-0.538,11.229-3.107c3.454-2.826,5.362-7.1,5.141-11.558
	C195.79,150.848,191.648,106.238,171.604,79.884z"/>
<g>
</g>
<g>
</g>
<g>
</g>
<g>
</g>
<g>
</g>
<g>
</g>
<g>
</g>
<g>
</g>
<g>
</g>
<g>
</g>
<g>
</g>
<g>
</g>
<g>
</g>
<g>
</g>
<g>
</g>
</svg>
