<?xml version="1.0" encoding="iso-8859-1"?>
<!-- Generator: Adobe Illustrator 17.1.0, SVG Export Plug-In . SVG Version: 6.00 Build 0)  -->
<!DOCTYPE svg PUBLIC "-//W3C//DTD SVG 1.1//EN" "http://www.w3.org/Graphics/SVG/1.1/DTD/svg11.dtd">
<svg version="1.1" id="Capa_1" xmlns="http://www.w3.org/2000/svg" xmlns:xlink="http://www.w3.org/1999/xlink" x="0px" y="0px"
	 viewBox="0 0 196.415 196.415" style="enable-background:new 0 0 196.415 196.415;" xml:space="preserve">
<path d="M186.494,76.225c-9.229-34.007-29.158-45.886-40.216-49.94c-5.118-1.877-9.098-5.765-10.919-10.667l-0.942-2.539
	C131.512,5.256,123.952,0,115.608,0c-5.735,0-11.202,2.463-14.999,6.757c-2.403,2.717-4.002,6.008-4.685,9.506
	c-0.609,2.408-0.777,4.935-0.466,7.456c0.494,4.016,1.384,7.787,2.644,11.208c1.858,5.045,3.88,9.506,6.01,13.257
	c1.752,3.09,2.322,6.755,1.604,10.321c-0.047,0.235-0.108,0.489-0.161,0.731c-2.182,9.076-7.9,22.737-18.011,35.928
	c-5.911,7.712-11.857,12.638-17.609,17.4c-1.451,1.202-2.868,2.376-4.242,3.56c-9.498,8.18-21.72,12.685-34.416,12.685h-1.457
	c-12.847,0-23.298,10.451-23.298,23.298v8.042c0,10.28,8.364,18.645,18.646,18.645c7.174,0,13.476-4.104,16.586-10.139
	c8.049,12.381,23.311,27.76,49.44,27.76c7.188,0,14.851-1.21,22.776-3.598c28.373-8.546,50.274-24.454,63.335-46.004
	C189.93,125.978,193.194,100.908,186.494,76.225z M112.808,43.25c-1.862-3.28-3.652-7.243-5.323-11.778
	c-0.994-2.7-1.702-5.72-2.103-8.975c-0.359-2.918,0.542-5.846,2.476-8.031c1.928-2.181,4.595-3.382,7.508-3.382
	c4.187,0,7.979,2.637,9.436,6.561l0.943,2.539c2.841,7.648,8.982,13.689,16.851,16.574c9.244,3.39,25.955,13.505,34.008,43.17
	c1.225,4.511,2.087,9.099,2.577,13.697h-77.876c8.03-12.656,12.57-24.988,14.213-33.145
	C116.711,54.554,115.749,48.435,112.808,43.25z"/>
<g>
</g>
<g>
</g>
<g>
</g>
<g>
</g>
<g>
</g>
<g>
</g>
<g>
</g>
<g>
</g>
<g>
</g>
<g>
</g>
<g>
</g>
<g>
</g>
<g>
</g>
<g>
</g>
<g>
</g>
</svg>
