<?xml version="1.0" encoding="iso-8859-1"?>
<!-- Generator: Adobe Illustrator 17.1.0, SVG Export Plug-In . SVG Version: 6.00 Build 0)  -->
<!DOCTYPE svg PUBLIC "-//W3C//DTD SVG 1.1//EN" "http://www.w3.org/Graphics/SVG/1.1/DTD/svg11.dtd">
<svg version="1.1" id="Capa_1" xmlns="http://www.w3.org/2000/svg" xmlns:xlink="http://www.w3.org/1999/xlink" x="0px" y="0px"
	 viewBox="0 0 209.083 209.083" style="enable-background:new 0 0 209.083 209.083;" xml:space="preserve">
<path d="M202.976,107.777l-28.73-28.731V59.693c0-2.762-2.239-5-5-5h-31.021v-6.276c0-10.109-8.224-18.334-18.333-18.334H89.192
	c-10.109,0-18.333,8.225-18.333,18.334v6.276H39.838c-2.761,0-5,2.238-5,5v19.353l-28.73,28.731C2.169,111.716,0,116.952,0,122.521
	v34.769C0,169.261,9.739,179,21.71,179h165.662c11.971,0,21.71-9.739,21.71-21.71v-34.769
	C209.083,116.952,206.914,111.716,202.976,107.777z M80.859,48.417c0-4.596,3.738-8.334,8.333-8.334h30.699
	c4.595,0,8.333,3.738,8.333,8.334v6.276H80.859V48.417z M104.542,107.285c-4.247,0-7.702-3.455-7.702-7.702
	c0-4.246,3.455-7.701,7.702-7.701s7.702,3.455,7.702,7.701C112.243,103.83,108.788,107.285,104.542,107.285z M164.245,76.332H44.838
	V64.693h31.021h57.365h31.021V76.332z"/>
<g>
</g>
<g>
</g>
<g>
</g>
<g>
</g>
<g>
</g>
<g>
</g>
<g>
</g>
<g>
</g>
<g>
</g>
<g>
</g>
<g>
</g>
<g>
</g>
<g>
</g>
<g>
</g>
<g>
</g>
</svg>
