<?xml version="1.0" encoding="iso-8859-1"?>
<!-- Generator: Adobe Illustrator 17.1.0, SVG Export Plug-In . SVG Version: 6.00 Build 0)  -->
<!DOCTYPE svg PUBLIC "-//W3C//DTD SVG 1.1//EN" "http://www.w3.org/Graphics/SVG/1.1/DTD/svg11.dtd">
<svg version="1.1" id="Capa_1" xmlns="http://www.w3.org/2000/svg" xmlns:xlink="http://www.w3.org/1999/xlink" x="0px" y="0px"
	 viewBox="0 0 208.646 208.646" style="enable-background:new 0 0 208.646 208.646;" xml:space="preserve">
<path d="M192.259,135.903c-0.503-0.072-1.013-0.106-1.52-0.118l-5.12-12.738c1.649-1.827,2.792-4.13,3.158-6.7
	c0.989-6.95-3.861-13.409-10.811-14.398c-0.597-0.085-1.204-0.128-1.804-0.128c-4.53,0-8.595,2.445-10.853,6.136l-13.474-1.918
	c-1.288-4.77-5.306-8.565-10.499-9.305c-0.398-0.057-0.8-0.088-1.202-0.107l-4.154-10.335c1.832-1.88,3.1-4.325,3.491-7.069
	c0.477-3.347-0.374-6.677-2.389-9.388l8.386-10.696c0.388,0.093,0.783,0.173,1.186,0.231c0.597,0.085,1.204,0.128,1.803,0.128
	c4.531,0,8.596-2.444,10.854-6.136l13.302,1.894c1.288,4.771,5.306,8.565,10.499,9.304c0.597,0.085,1.204,0.128,1.804,0.128
	c6.292,0,11.707-4.703,12.595-10.938c0.479-3.367-0.381-6.719-2.423-9.438s-5.021-4.48-8.386-4.96
	c-0.598-0.085-1.205-0.128-1.806-0.128c-4.53,0-8.594,2.444-10.853,6.136l-13.302-1.893c-1.288-4.77-5.306-8.565-10.499-9.304
	c-0.503-0.072-1.012-0.106-1.519-0.118l-5.32-13.234c1.452-1.756,2.451-3.908,2.79-6.285c0.989-6.95-3.861-13.409-10.811-14.398
	C134.784,0.043,134.177,0,133.578,0c-6.293,0-11.708,4.703-12.595,10.939c-0.479,3.366,0.381,6.718,2.423,9.438
	c2.042,2.719,5.021,4.48,8.387,4.96c0.597,0.085,1.204,0.128,1.804,0.128c0.297,0,0.589-0.02,0.881-0.041l4.973,12.37
	c-1.893,1.895-3.21,4.38-3.608,7.18c-0.403,2.832,0.176,5.574,1.458,7.906l-9.311,11.875c-0.378-0.034-0.757-0.057-1.134-0.057
	c-3.818,0-7.305,1.738-9.661,4.492l-15.404-2.192c-0.384-0.85-0.853-1.668-1.427-2.432c-2.042-2.72-5.021-4.48-8.387-4.96
	c-0.174-0.025-0.35-0.038-0.526-0.056l-5.843-14.534c1.667-1.833,2.823-4.149,3.191-6.737c0.479-3.367-0.381-6.719-2.423-9.438
	s-5.021-4.48-8.387-4.96c-0.597-0.085-1.204-0.128-1.804-0.128c-4.53,0-8.595,2.444-10.853,6.136l-12.339-1.757
	c-1.288-4.77-5.306-8.565-10.499-9.304c-0.597-0.085-1.204-0.128-1.804-0.128c-6.292,0-11.707,4.703-12.595,10.939
	c-0.403,2.831,0.176,5.573,1.458,7.905l-8.086,10.312c-0.488-0.129-0.983-0.24-1.49-0.313c-0.597-0.085-1.204-0.128-1.803-0.128
	c-6.293,0-11.708,4.703-12.595,10.939c-0.479,3.366,0.381,6.718,2.423,9.438c2.042,2.719,5.021,4.48,8.387,4.96
	c0.597,0.085,1.204,0.128,1.804,0.128c6.293,0,11.708-4.702,12.595-10.938c0.394-2.764-0.13-5.511-1.454-7.913l8.081-10.305
	c0.486,0.13,0.98,0.24,1.49,0.313c0.597,0.085,1.204,0.128,1.804,0.128c4.53,0,8.595-2.444,10.853-6.136L63.9,39.785
	c1.288,4.771,5.306,8.565,10.499,9.304c0.503,0.072,1.012,0.106,1.519,0.118l5.537,13.773c-2.037,1.924-3.462,4.507-3.879,7.437
	c-0.353,2.479,0.049,4.891,1.012,7.019l-7.353,9.378c-0.346-0.079-0.695-0.154-1.053-0.205c-0.597-0.085-1.204-0.128-1.804-0.128
	c-6.293,0-11.708,4.703-12.595,10.939c-0.989,6.948,3.86,13.408,10.811,14.398c0.355,0.051,0.713,0.081,1.071,0.102l4.868,12.109
	c-1.893,1.895-3.209,4.38-3.608,7.179c-0.394,2.764,0.13,5.511,1.454,7.913l-8.126,10.364c-0.623-0.188-1.258-0.345-1.914-0.438
	c-0.597-0.085-1.204-0.128-1.804-0.128c-4.53,0-8.595,2.444-10.854,6.137l-12.5-1.78c-1.288-4.771-5.306-8.565-10.5-9.304
	c-0.597-0.085-1.204-0.128-1.803-0.128c-6.293,0-11.708,4.703-12.595,10.939c-0.989,6.948,3.86,13.408,10.811,14.398
	c0.597,0.085,1.204,0.128,1.804,0.128c4.53,0,8.595-2.445,10.853-6.137l12.497,1.779c0.416,1.549,1.124,3.022,2.116,4.344
	c2.042,2.719,5.021,4.48,8.387,4.96c0.597,0.085,1.204,0.128,1.804,0.128c0.2,0,0.396-0.018,0.594-0.028l5.628,13.999
	c-1.232,1.655-2.085,3.615-2.391,5.764c-0.479,3.366,0.381,6.718,2.423,9.438c2.042,2.719,5.021,4.48,8.387,4.96
	c0.597,0.085,1.204,0.128,1.804,0.128c6.292,0,11.707-4.702,12.595-10.938c0.479-3.367-0.381-6.719-2.423-9.438
	c-2.042-2.72-5.021-4.481-8.387-4.961c-0.597-0.085-1.204-0.128-1.804-0.128c-0.496,0-0.985,0.039-1.468,0.096l-5.354-13.318
	c1.559-1.797,2.638-4.029,2.991-6.511c0.35-2.459-0.022-4.907-1.039-7.11l8.572-10.932c0.348,0.079,0.698,0.152,1.055,0.203
	c0.597,0.085,1.204,0.128,1.803,0.128c4.531,0,8.596-2.444,10.854-6.136l13.522,1.925c0.416,1.55,1.123,3.022,2.116,4.344
	c2.042,2.719,5.021,4.48,8.387,4.96c0.476,0.068,0.957,0.101,1.436,0.115l4.885,12.152c-1.893,1.895-3.21,4.381-3.608,7.181
	c-0.989,6.949,3.861,13.408,10.811,14.397c0.597,0.085,1.204,0.128,1.804,0.128c4.53,0,8.595-2.444,10.854-6.136l12.37,1.76
	c0.416,1.55,1.124,3.022,2.116,4.344c2.042,2.72,5.021,4.481,8.388,4.961c0.597,0.085,1.204,0.128,1.803,0.128
	c6.293,0,11.708-4.703,12.595-10.939c0.989-6.949-3.861-13.408-10.81-14.397c-0.598-0.085-1.205-0.128-1.806-0.128
	c-4.53,0-8.594,2.444-10.852,6.136l-12.374-1.761c-1.288-4.771-5.306-8.565-10.5-9.304c-0.475-0.068-0.957-0.101-1.436-0.115
	l-4.884-12.151c1.893-1.895,3.21-4.38,3.608-7.18c0.403-2.832-0.176-5.574-1.458-7.906l8.027-10.237
	c0.121,0.021,0.239,0.052,0.362,0.07c0.597,0.085,1.204,0.128,1.803,0.128c4.53,0,8.595-2.444,10.854-6.136l13.471,1.917
	c0.416,1.55,1.124,3.022,2.116,4.344c2.042,2.72,5.021,4.48,8.387,4.96c0.597,0.085,1.204,0.128,1.804,0.128
	c0.12,0,0.237-0.013,0.357-0.017l4.93,12.265c-1.893,1.895-3.209,4.38-3.608,7.181c-0.989,6.95,3.861,13.409,10.811,14.398
	c0.597,0.085,1.204,0.128,1.804,0.128c6.292,0,11.707-4.703,12.595-10.938C204.059,143.354,199.209,136.895,192.259,135.903z
	 M126.936,107.546c-0.446,3.135,0.283,6.249,2.031,8.86l-7.471,9.527c-0.486-0.13-0.981-0.24-1.491-0.313
	c-0.597-0.085-1.204-0.128-1.804-0.128c-4.53,0-8.595,2.445-10.854,6.137l-13.526-1.925c-1.288-4.77-5.306-8.565-10.499-9.304
	c-0.503-0.072-1.012-0.106-1.519-0.118l-4.74-11.791c2.064-1.929,3.508-4.53,3.928-7.483c0.426-2.99-0.235-5.886-1.673-8.298
	l6.654-8.486c0.77,0.27,1.576,0.472,2.414,0.591c0.597,0.085,1.204,0.128,1.804,0.128c5.191,0,9.778-3.204,11.725-7.827
	l12.308,1.752c0.25,2.231,1.076,4.365,2.459,6.208c2.042,2.719,5.021,4.48,8.387,4.96c0.557,0.079,1.123,0.118,1.684,0.124
	l4.017,9.992C128.758,102.071,127.351,104.637,126.936,107.546z"/>
<g>
</g>
<g>
</g>
<g>
</g>
<g>
</g>
<g>
</g>
<g>
</g>
<g>
</g>
<g>
</g>
<g>
</g>
<g>
</g>
<g>
</g>
<g>
</g>
<g>
</g>
<g>
</g>
<g>
</g>
</svg>
