<?xml version="1.0" encoding="iso-8859-1"?>
<!-- Generator: Adobe Illustrator 17.1.0, SVG Export Plug-In . SVG Version: 6.00 Build 0)  -->
<!DOCTYPE svg PUBLIC "-//W3C//DTD SVG 1.1//EN" "http://www.w3.org/Graphics/SVG/1.1/DTD/svg11.dtd">
<svg version="1.1" id="Capa_1" xmlns="http://www.w3.org/2000/svg" xmlns:xlink="http://www.w3.org/1999/xlink" x="0px" y="0px"
	 viewBox="0 0 208 208" style="enable-background:new 0 0 208 208;" xml:space="preserve">
<path d="M204.225,132.5v7.058c0,2.761-2.239,5-5,5H99.083V157H102c2.761,0,5,2.239,5,5v20.101h77.5c2.761,0,5,2.239,5,5V203
	c0,2.761-2.239,5-5,5h-161c-2.761,0-5-2.239-5-5v-15.899c0-2.761,2.239-5,5-5H65V162c0-2.761,2.239-5,5-5h2.917v-12.442H8.775
	c-2.761,0-5-2.239-5-5V132.5c0-2.761,2.239-5,5-5h7.337c-0.235-1.126-0.362-2.291-0.362-3.486c0-9.382,7.633-17.014,17.015-17.014
	c8.623,0,15.751,6.453,16.851,14.78c5.538-11.594,21.14-19.746,40.019-19.746h61.154c22.348,0,40.333,10.84,43.736,25.466h4.702
	C201.986,127.5,204.225,129.739,204.225,132.5z M68.165,44.239L45.149,55.968c-0.206-0.349-0.443-0.686-0.741-0.987l-17.05-17.205
	l33.699-22.094c2.309-1.514,2.954-4.614,1.44-6.923c-1.514-2.308-4.613-2.953-6.923-1.44L16.758,32.767
	c-1.255,0.823-2.074,2.166-2.231,3.659c-0.157,1.492,0.365,2.977,1.421,4.042l20.004,20.186L14.48,71.597
	c-2.46,1.254-3.438,4.265-2.185,6.725c0.883,1.733,2.639,2.731,4.459,2.731c0.764,0,1.539-0.176,2.266-0.546l53.685-27.358
	c2.46-1.254,3.438-4.265,2.185-6.725C73.636,43.964,70.626,42.988,68.165,44.239z M192.841,68.061L169.13,55.978l6.849-33.218
	c0.443-2.149-0.567-4.336-2.49-5.393l-30.5-16.75c-2.419-1.327-5.459-0.444-6.79,1.976c-1.329,2.42-0.444,5.46,1.976,6.79
	l27.264,14.973l-5.549,26.913l-22.056-11.24c-2.459-1.252-5.471-0.275-6.726,2.185c-1.253,2.46-0.275,5.472,2.185,6.726
	L188.3,76.971c0.728,0.371,1.502,0.546,2.267,0.546c1.82,0,3.576-0.998,4.459-2.73C196.279,72.326,195.301,69.315,192.841,68.061z"
	/>
<g>
</g>
<g>
</g>
<g>
</g>
<g>
</g>
<g>
</g>
<g>
</g>
<g>
</g>
<g>
</g>
<g>
</g>
<g>
</g>
<g>
</g>
<g>
</g>
<g>
</g>
<g>
</g>
<g>
</g>
</svg>
