<?xml version="1.0" encoding="iso-8859-1"?>
<!-- Generator: Adobe Illustrator 17.1.0, SVG Export Plug-In . SVG Version: 6.00 Build 0)  -->
<!DOCTYPE svg PUBLIC "-//W3C//DTD SVG 1.1//EN" "http://www.w3.org/Graphics/SVG/1.1/DTD/svg11.dtd">
<svg version="1.1" id="Capa_1" xmlns="http://www.w3.org/2000/svg" xmlns:xlink="http://www.w3.org/1999/xlink" x="0px" y="0px"
	 viewBox="0 0 204.867 204.867" style="enable-background:new 0 0 204.867 204.867;" xml:space="preserve">
<path d="M113.76,139.97c15.459,0,30.322-7.667,41.851-21.59c10.733-12.962,16.889-29.447,16.889-45.228
	c0-33.151-25.619-60.413-58.095-63.074c-0.325-2.383-1.417-4.606-3.179-6.374C108.88,1.35,105.567,0,102.137,0
	c-1.744,0-3.447,0.341-5.062,1.015l-7.819,3.263c-4.493,1.875-7.293,5.897-7.308,10.499c-0.016,4.602,2.757,8.643,7.236,10.548
	l7.797,3.316c1.638,0.697,3.369,1.05,5.144,1.05c6.098,0,11.176-4.158,12.178-9.595c27.004,2.581,48.196,25.386,48.196,53.055
	c0,26.275-21.291,56.818-48.74,56.818H96.809v-16.151c29.533-2.971,52.587-27.901,52.587-58.217c0-0.423-0.005-0.845-0.014-1.265
	c-0.065-2.859-2.375-5.154-5.234-5.154H37.616c-2.859,0-5.17,2.296-5.234,5.154c-0.01,0.421-0.014,0.842-0.014,1.265
	c0,30.316,23.055,55.246,52.587,58.217v16.151h-19.01c-9.482,0-17.196,7.714-17.196,17.196v8.976
	c0,9.482,7.714,17.196,17.196,17.196h19.01v8.581c-17.939,1.758-31.656,11.361-31.656,22.948h75.166
	c0-1.534-0.247-3.032-0.706-4.483h9.892c9.482,0,17.196-7.714,17.196-17.196v-2.653c0-9.482-7.714-17.196-17.196-17.196H96.809
	V139.97H113.76z M57.586,82.276c-0.836,1.176-2.088,1.882-3.413,2.059c-1.211,0.162-2.484-0.117-3.559-0.881
	c-7.732-5.496-8.063-18.114-8.075-19.534c-0.024-2.761,2.198-5.022,4.957-5.043c2.758-0.024,5.013,2.19,5.043,4.946
	c0.04,2.878,1.038,9.468,3.869,11.48C58.658,76.904,59.186,80.026,57.586,82.276z M84.954,163.338h-19.01
	c-3.968,0-7.196-3.228-7.196-7.196v-8.976c0-3.968,3.228-7.196,7.196-7.196h19.01V163.338z M137.65,173.338
	c3.968,0,7.196,3.228,7.196,7.196v2.653c0,3.968-3.228,7.196-7.196,7.196h-17.389c-5.719-4.429-13.996-7.538-23.453-8.464v-8.581
	H137.65z"/>
<g>
</g>
<g>
</g>
<g>
</g>
<g>
</g>
<g>
</g>
<g>
</g>
<g>
</g>
<g>
</g>
<g>
</g>
<g>
</g>
<g>
</g>
<g>
</g>
<g>
</g>
<g>
</g>
<g>
</g>
</svg>
