<?xml version="1.0" encoding="iso-8859-1"?>
<!-- Generator: Adobe Illustrator 17.1.0, SVG Export Plug-In . SVG Version: 6.00 Build 0)  -->
<!DOCTYPE svg PUBLIC "-//W3C//DTD SVG 1.1//EN" "http://www.w3.org/Graphics/SVG/1.1/DTD/svg11.dtd">
<svg version="1.1" id="Capa_1" xmlns="http://www.w3.org/2000/svg" xmlns:xlink="http://www.w3.org/1999/xlink" x="0px" y="0px"
	 viewBox="0 0 191.63 191.63" style="enable-background:new 0 0 191.63 191.63;" xml:space="preserve">
<path d="M155.315,12v9.231c0,6.617-5.383,12-12,12h-95c-6.617,0-12-5.383-12-12V12c0-6.617,5.383-12,12-12h95
	C149.932,0,155.315,5.383,155.315,12z M144.565,53.688v126.5c0,6.31-5.133,11.442-11.442,11.442H58.507
	c-6.31,0-11.442-5.133-11.442-11.442v-126.5c0-6.31,5.133-11.442,11.442-11.442h74.615
	C139.432,42.245,144.565,47.378,144.565,53.688z M135.815,81.816h-80v70.243h80V81.816z M125.732,107.147
	c0-0.663-0.265-1.298-0.734-1.767c-0.469-0.468-1.104-0.73-1.766-0.73c0,0-0.001,0-0.002,0l-15.152,0.014V89.511
	c0-1.381-1.119-2.5-2.5-2.5H86.052c-1.381,0-2.5,1.119-2.5,2.5v15.175L68.377,104.7c-1.38,0.001-2.499,1.122-2.498,2.502
	l0.018,19.525c0,0.663,0.265,1.298,0.734,1.767c0.469,0.468,1.104,0.73,1.766,0.73c0,0,0.001,0,0.002,0l15.152-0.014v15.152
	c0,1.381,1.119,2.5,2.5,2.5h19.525c1.381,0,2.5-1.119,2.5-2.5v-15.175l15.175-0.014c1.38-0.001,2.499-1.122,2.498-2.502
	L125.732,107.147z"/>
<g>
</g>
<g>
</g>
<g>
</g>
<g>
</g>
<g>
</g>
<g>
</g>
<g>
</g>
<g>
</g>
<g>
</g>
<g>
</g>
<g>
</g>
<g>
</g>
<g>
</g>
<g>
</g>
<g>
</g>
</svg>
