<?xml version="1.0" encoding="iso-8859-1"?>
<!-- Generator: Adobe Illustrator 17.1.0, SVG Export Plug-In . SVG Version: 6.00 Build 0)  -->
<!DOCTYPE svg PUBLIC "-//W3C//DTD SVG 1.1//EN" "http://www.w3.org/Graphics/SVG/1.1/DTD/svg11.dtd">
<svg version="1.1" id="Capa_1" xmlns="http://www.w3.org/2000/svg" xmlns:xlink="http://www.w3.org/1999/xlink" x="0px" y="0px"
	 viewBox="0 0 215.333 215.333" style="enable-background:new 0 0 215.333 215.333;" xml:space="preserve">
<path d="M71.48,207.579v-81.386c0-1.175-0.414-2.313-1.169-3.213c-7.379-8.798-11.443-19.969-11.443-31.456
	c0-27.011,21.975-48.985,48.985-48.985c27.011,0,48.985,21.975,48.985,48.985c0,11.487-4.064,22.658-11.443,31.456
	c-0.755,0.9-1.169,2.038-1.169,3.213v81.216c-11.147,5.086-23.527,7.924-36.559,7.924C94.78,215.333,82.531,212.559,71.48,207.579z
	 M116.333,0H99C55.056,0,19.305,35.751,19.305,79.695v47.276c0,31.805,16.893,59.735,42.176,75.3v-74.306
	c-8.147-10.36-12.613-23.228-12.613-36.442c0-32.524,26.46-58.985,58.985-58.985s58.985,26.461,58.985,58.985
	c0,13.215-4.466,26.082-12.613,36.442v74.073c25.075-15.609,41.803-43.419,41.803-75.067V79.695C196.028,35.751,160.277,0,116.333,0
	z"/>
<g>
</g>
<g>
</g>
<g>
</g>
<g>
</g>
<g>
</g>
<g>
</g>
<g>
</g>
<g>
</g>
<g>
</g>
<g>
</g>
<g>
</g>
<g>
</g>
<g>
</g>
<g>
</g>
<g>
</g>
</svg>
