<?xml version="1.0" encoding="iso-8859-1"?>
<!-- Generator: Adobe Illustrator 17.1.0, SVG Export Plug-In . SVG Version: 6.00 Build 0)  -->
<!DOCTYPE svg PUBLIC "-//W3C//DTD SVG 1.1//EN" "http://www.w3.org/Graphics/SVG/1.1/DTD/svg11.dtd">
<svg version="1.1" id="Capa_1" xmlns="http://www.w3.org/2000/svg" xmlns:xlink="http://www.w3.org/1999/xlink" x="0px" y="0px"
	 viewBox="0 0 218.494 218.494" style="enable-background:new 0 0 218.494 218.494;" xml:space="preserve">
<path d="M40.37,3.299v47.284c0,2.149-1.742,3.891-3.891,3.891h-6.312v31.823c3.663,1.73,6.203,5.447,6.203,9.767v111.621
	c0,5.969-4.839,10.808-10.808,10.808h-0.791c-5.969,0-10.808-4.839-10.808-10.808V96.064c0-4.32,2.541-8.037,6.203-9.767V54.474
	h-6.312c-2.149,0-3.891-1.742-3.891-3.891V27.108C9.963,12.198,22.162,0,37.071,0C38.893,0,40.37,1.477,40.37,3.299z
	 M208.53,186.664c0,17.064-11.524,30.947-25.688,30.947c-12.405,0-22.784-10.649-25.171-24.756h-17.176c-2.761,0-5-2.239-5-5
	s2.239-5,5-5h15.966l-18.318-82.958h-11.264l-18.318,82.958h15.966c2.761,0,5,2.239,5,5s-2.239,5-5,5H107.35
	c-2.387,14.108-12.766,24.756-25.171,24.756c-14.165,0-25.688-13.883-25.688-30.947s11.523-30.947,25.688-30.947
	c7.896,0,14.968,4.317,19.684,11.091l17.57-79.571l7.076-77.893c0.313-3.44,2.871-5.938,6.082-5.938c3.21,0,5.768,2.497,6.081,5.937
	l7.187,79.119l17.3,78.345c4.716-6.774,11.788-11.091,19.683-11.091C197.006,155.718,208.53,169.6,208.53,186.664z M97.867,186.664
	c0-11.55-7.038-20.947-15.688-20.947c-8.65,0-15.688,9.396-15.688,20.947s7.038,20.947,15.688,20.947
	C90.829,207.611,97.867,198.215,97.867,186.664z M198.53,186.664c0-11.55-7.038-20.947-15.688-20.947
	c-8.65,0-15.688,9.396-15.688,20.947s7.038,20.947,15.688,20.947C191.493,207.611,198.53,198.215,198.53,186.664z"/>
<g>
</g>
<g>
</g>
<g>
</g>
<g>
</g>
<g>
</g>
<g>
</g>
<g>
</g>
<g>
</g>
<g>
</g>
<g>
</g>
<g>
</g>
<g>
</g>
<g>
</g>
<g>
</g>
<g>
</g>
</svg>
