<?xml version="1.0" encoding="iso-8859-1"?>
<!-- Generator: Adobe Illustrator 17.1.0, SVG Export Plug-In . SVG Version: 6.00 Build 0)  -->
<!DOCTYPE svg PUBLIC "-//W3C//DTD SVG 1.1//EN" "http://www.w3.org/Graphics/SVG/1.1/DTD/svg11.dtd">
<svg version="1.1" id="Capa_1" xmlns="http://www.w3.org/2000/svg" xmlns:xlink="http://www.w3.org/1999/xlink" x="0px" y="0px"
	 viewBox="0 0 202.008 202.008" style="enable-background:new 0 0 202.008 202.008;" xml:space="preserve">
<path d="M171.942,158.572c-5.008-10.555-15.795-17.375-27.482-17.375c-4.522,0-8.901,0.99-13.014,2.94
	c-1.232,0.585-2.409,1.25-3.535,1.979l-21.248-40.038l52.398-98.734c1.294-2.439,0.366-5.466-2.073-6.76
	c-2.438-1.294-5.465-0.367-6.761,2.073l-49.225,92.754L51.777,2.658c-1.295-2.44-4.323-3.368-6.761-2.073
	c-2.439,1.294-3.367,4.321-2.073,6.76l52.398,98.734l-21.256,40.054c-4.945-3.217-10.646-4.928-16.537-4.928
	c-10.118,0-19.54,4.998-25.203,13.369c-9.392,13.884-5.736,32.82,8.146,42.212c5.051,3.417,10.933,5.222,17.01,5.222
	c10.118,0,19.54-4.998,25.203-13.369c7.498-11.084,6.673-25.383-1.026-35.48l19.324-36.413l19.315,36.395
	c-1.885,2.472-3.401,5.244-4.474,8.256c-2.727,7.648-2.312,15.901,1.169,23.237c5.009,10.555,15.796,17.375,27.482,17.375
	c4.522,0,8.901-0.989,13.014-2.94C172.651,191.882,179.126,173.716,171.942,158.572z M74.42,183.036
	c-3.801,5.618-10.125,8.972-16.92,8.972c-4.072,0-8.017-1.212-11.406-3.505c-9.316-6.302-11.769-19.01-5.467-28.326
	c3.801-5.618,10.126-8.972,16.92-8.972c4.072,0,8.017,1.212,11.406,3.506C78.27,161.012,80.723,173.719,74.42,183.036z
	 M153.22,190.033c-2.762,1.311-5.698,1.975-8.727,1.975c-7.845,0-15.086-4.577-18.447-11.661c-2.336-4.923-2.614-10.46-0.785-15.593
	c1.83-5.132,5.549-9.245,10.472-11.581c2.762-1.311,5.698-1.976,8.727-1.976c7.846,0,15.087,4.578,18.447,11.661
	C167.728,173.021,163.383,185.212,153.22,190.033z"/>
<g>
</g>
<g>
</g>
<g>
</g>
<g>
</g>
<g>
</g>
<g>
</g>
<g>
</g>
<g>
</g>
<g>
</g>
<g>
</g>
<g>
</g>
<g>
</g>
<g>
</g>
<g>
</g>
<g>
</g>
</svg>
