<?xml version="1.0" encoding="iso-8859-1"?>
<!-- Generator: Adobe Illustrator 17.1.0, SVG Export Plug-In . SVG Version: 6.00 Build 0)  -->
<!DOCTYPE svg PUBLIC "-//W3C//DTD SVG 1.1//EN" "http://www.w3.org/Graphics/SVG/1.1/DTD/svg11.dtd">
<svg version="1.1" id="Capa_1" xmlns="http://www.w3.org/2000/svg" xmlns:xlink="http://www.w3.org/1999/xlink" x="0px" y="0px"
	 viewBox="0 0 196.253 196.253" style="enable-background:new 0 0 196.253 196.253;" xml:space="preserve">
<path d="M98.126,0C47.552,0,6.408,41.145,6.408,91.719c0,16.748,4.475,32.775,12.741,46.706c0.29-3.616,0.859-7.316,1.425-10.986
	l0.286-1.859c2.317-15.19,3.368-25.598,3.626-35.922c0.227-9.105-0.149-11.893-0.186-12.139c-0.481-2.674,1.266-5.252,3.941-5.787
	c2.708-0.536,5.341,1.216,5.883,3.924c0.148,0.745,0.614,3.975,0.357,14.252c-0.269,10.773-1.352,21.546-3.737,37.18l-0.288,1.876
	c-2.411,15.633-3.133,23.358,6.719,28.102c11.806,5.685,22.755,0.125,22.864,0.069c2.45-1.275,5.47-0.322,6.743,2.128
	c1.274,2.45,0.322,5.469-2.128,6.743c-0.409,0.212-6.893,3.496-15.856,3.596v21.652c0,2.762,2.238,5,5,5h3.86v-8.807
	c0-2.762,2.238-5,5-5s5,2.238,5,5v8.807h13.646v-8.807c0-2.762,2.238-5,5-5s5,2.238,5,5v8.807h13.646v-8.807c0-2.762,2.238-5,5-5
	s5,2.238,5,5v8.807h13.646v-8.807c0-2.762,2.238-5,5-5s5,2.238,5,5v8.807h3.859c2.762,0,5-2.238,5-5v-21.652
	c-8.964-0.101-15.447-3.384-15.855-3.596c-2.45-1.274-3.402-4.294-2.128-6.743c1.271-2.443,4.276-3.396,6.724-2.139
	c0.504,0.256,11.255,5.539,22.884-0.059c9.851-4.743,9.129-12.469,6.718-28.102l-0.288-1.876
	c-2.385-15.634-3.468-26.405-3.737-37.18c-0.257-10.278,0.21-13.509,0.359-14.254c0.542-2.708,3.176-4.463,5.884-3.921
	c2.676,0.535,4.422,3.114,3.939,5.787c-0.036,0.246-0.413,3.032-0.187,12.138c0.259,10.324,1.31,20.731,3.626,35.922l0.286,1.859
	c0.566,3.67,1.135,7.37,1.425,10.986c8.266-13.93,12.741-29.958,12.741-46.706C189.845,41.145,148.701,0,98.126,0z M109.875,111.425
	c0-10.557,9.369-19.146,20.886-19.146s20.886,8.589,20.886,19.146s-9.369,19.146-20.886,19.146S109.875,121.981,109.875,111.425z
	 M87.135,155.771l8.604-16.098c0.69-1.292,1.899-1.432,2.388-1.432s1.697,0.14,2.388,1.432l8.604,16.098
	c0.653,1.222,0.172,2.273-0.065,2.669s-0.938,1.315-2.322,1.315H89.523c-1.384,0-2.085-0.92-2.322-1.315
	S86.483,156.993,87.135,155.771z M86.378,111.425c0,10.557-9.369,19.146-20.886,19.146s-20.886-8.589-20.886-19.146
	s9.369-19.146,20.886-19.146S86.378,100.868,86.378,111.425z"/>
<g>
</g>
<g>
</g>
<g>
</g>
<g>
</g>
<g>
</g>
<g>
</g>
<g>
</g>
<g>
</g>
<g>
</g>
<g>
</g>
<g>
</g>
<g>
</g>
<g>
</g>
<g>
</g>
<g>
</g>
</svg>
