<?xml version="1.0" encoding="iso-8859-1"?>
<!-- Generator: Adobe Illustrator 17.1.0, SVG Export Plug-In . SVG Version: 6.00 Build 0)  -->
<!DOCTYPE svg PUBLIC "-//W3C//DTD SVG 1.1//EN" "http://www.w3.org/Graphics/SVG/1.1/DTD/svg11.dtd">
<svg version="1.1" id="Capa_1" xmlns="http://www.w3.org/2000/svg" xmlns:xlink="http://www.w3.org/1999/xlink" x="0px" y="0px"
	 viewBox="0 0 197.628 197.628" style="enable-background:new 0 0 197.628 197.628;" xml:space="preserve">
<path d="M184.029,21.481C184.029,9.637,174.392,0,162.547,0c-11.846,0-21.482,9.637-21.482,21.481
	c0,10.121,7.044,18.608,16.482,20.87V144c0,24.057-19.571,43.628-43.628,43.628S70.292,168.057,70.292,144v-7.509
	c26.165-2.524,46.692-24.63,46.692-51.446V43.083c0-15.859-10.755-29.245-25.352-33.269V5c0-2.762-2.238-5-5-5h-6.285
	c-2.762,0-5,2.238-5,5v17.142c0,2.762,2.238,5,5,5h6.285c2.762,0,5-2.238,5-5v-1.789c8.99,3.636,15.352,12.452,15.352,22.73v34.549
	c-2.235,4.989-15.339,31.447-41.692,31.447c-26.244,0-39.448-26.487-41.692-31.454V43.083c0-11.409,7.834-21.022,18.405-23.742
	v2.801c0,2.762,2.238,5,5,5h6.285c2.762,0,5-2.238,5-5V5c0-2.762-2.238-5-5-5h-6.285c-2.762,0-5,2.238-5,5v4.122
	c-16.126,2.893-28.405,17.015-28.405,33.961v41.962c0,26.816,20.527,48.922,46.692,51.446V144c0,29.57,24.058,53.628,53.628,53.628
	S167.547,173.57,167.547,144V42.351C176.984,40.089,184.029,31.602,184.029,21.481z M26.577,100.489
	c8.3,9.41,20.948,18.59,38.715,18.59s30.415-9.18,38.715-18.59c-6.151,15.363-21.181,26.249-38.715,26.249
	S32.728,115.852,26.577,100.489z"/>
<g>
</g>
<g>
</g>
<g>
</g>
<g>
</g>
<g>
</g>
<g>
</g>
<g>
</g>
<g>
</g>
<g>
</g>
<g>
</g>
<g>
</g>
<g>
</g>
<g>
</g>
<g>
</g>
<g>
</g>
</svg>
