<?xml version="1.0" encoding="iso-8859-1"?>
<!-- Generator: Adobe Illustrator 17.1.0, SVG Export Plug-In . SVG Version: 6.00 Build 0)  -->
<!DOCTYPE svg PUBLIC "-//W3C//DTD SVG 1.1//EN" "http://www.w3.org/Graphics/SVG/1.1/DTD/svg11.dtd">
<svg version="1.1" id="Capa_1" xmlns="http://www.w3.org/2000/svg" xmlns:xlink="http://www.w3.org/1999/xlink" x="0px" y="0px"
	 viewBox="0 0 188.477 188.477" style="enable-background:new 0 0 188.477 188.477;" xml:space="preserve">
<path d="M181.451,178.564V37.678c0-11.328-5.115-21.831-14.033-28.815c-8.919-6.985-20.345-9.433-31.339-6.719l-12.054,3.604
	C122.256,2.29,118.646,0,114.674,0c-1.001,0-1.998,0.144-2.963,0.428L56.224,16.726c-5.051,1.485-8.134,6.452-7.43,11.514
	l-14.03,4.195C18.443,36.522,7.057,51.104,7.057,67.938v110.622c-2.363,0.399-4.166,2.44-4.166,4.916c0,2.762,2.238,5,5,5h8.333
	c2.762,0,5-2.238,5-5c0-2.476-1.804-4.518-4.167-4.916v-30.273h154.395v30.27c-2.378,0.385-4.199,2.432-4.199,4.919
	c0,2.762,2.238,5,5,5h8.334c2.762,0,5-2.238,5-5C185.586,181.011,183.799,178.975,181.451,178.564z M37.282,42.113l14.774-4.417
	c1.939,2.694,5.102,4.403,8.533,4.403c1.001,0,1.998-0.144,2.963-0.428l55.487-16.298c4.529-1.332,7.485-5.466,7.539-9.958
	l12.009-3.59c7.961-1.932,16.215-0.142,22.664,4.91c6.481,5.076,10.199,12.709,10.199,20.942V66.62H17.112
	C17.686,54.919,25.804,44.947,37.282,42.113z M17.057,138.287V76.62h154.395v61.667H17.057z"/>
<g>
</g>
<g>
</g>
<g>
</g>
<g>
</g>
<g>
</g>
<g>
</g>
<g>
</g>
<g>
</g>
<g>
</g>
<g>
</g>
<g>
</g>
<g>
</g>
<g>
</g>
<g>
</g>
<g>
</g>
</svg>
