<?xml version="1.0" encoding="iso-8859-1"?>
<!-- Generator: Adobe Illustrator 17.1.0, SVG Export Plug-In . SVG Version: 6.00 Build 0)  -->
<!DOCTYPE svg PUBLIC "-//W3C//DTD SVG 1.1//EN" "http://www.w3.org/Graphics/SVG/1.1/DTD/svg11.dtd">
<svg version="1.1" id="Capa_1" xmlns="http://www.w3.org/2000/svg" xmlns:xlink="http://www.w3.org/1999/xlink" x="0px" y="0px"
	 viewBox="0 0 204.643 204.643" style="enable-background:new 0 0 204.643 204.643;" xml:space="preserve">
<path d="M197.137,22.684l-5.536-5.536c-1.953-1.952-5.118-1.952-7.071,0c-1.953,1.953-1.953,5.119,0,7.071l5.536,5.536
	c2.952,2.952,4.577,6.877,4.577,11.051v101.455c0,5.088-4.139,9.227-9.227,9.227c-0.129,0-0.25,0.028-0.377,0.038
	c-2.389-15.578-15.848-27.508-32.094-27.508c-14.811,0-27.297,9.92-31.199,23.476c-12.756-6.547-25.779-6.702-37.812-0.486
	c-4.057-13.307-16.426-22.99-31.061-22.99c-16.323,0-29.828,12.046-32.123,27.732c-0.483-0.156-0.989-0.262-1.524-0.262
	c-5.088,0-9.227-4.139-9.227-9.227V40.806c0-4.174,1.625-8.099,4.577-11.05l5.537-5.536c1.953-1.953,1.953-5.118,0-7.071
	c-1.952-1.953-5.118-1.953-7.071,0l-5.537,5.537C2.666,27.525,0,33.961,0,40.806v101.455c0,10.602,8.625,19.227,19.227,19.227
	c0.535,0,1.041-0.106,1.524-0.262c2.294,15.687,15.8,27.733,32.123,27.733c17.51,0,31.775-13.862,32.439-31.209
	c11.122-7.24,23.087-7.068,35.213,0.522c0.927,17.103,15.086,30.687,32.42,30.687c16.246,0,29.705-11.931,32.094-27.509
	c0.127,0.01,0.248,0.038,0.377,0.038c10.602,0,19.227-8.625,19.227-19.227V40.806C204.643,33.961,201.977,27.525,197.137,22.684z
	 M57.829,139.768c-0.367,2.725-2.863,4.644-5.587,4.293c-1.854-0.215-11.139-0.702-14.004,10.433
	c-0.581,2.256-2.612,3.755-4.839,3.755c-0.413,0-0.832-0.051-1.25-0.159c-2.674-0.688-4.284-3.414-3.596-6.088
	c4.174-16.22,18.167-18.77,24.986-17.856C56.277,134.514,58.197,137.031,57.829,139.768z M158.9,139.438
	c-0.367,2.725-2.863,4.639-5.587,4.293c-1.856-0.216-11.139-0.702-14.004,10.433c-0.581,2.256-2.612,3.755-4.839,3.755
	c-0.413,0-0.832-0.051-1.25-0.159c-2.674-0.688-4.284-3.414-3.596-6.088c4.175-16.22,18.168-18.767,24.987-17.856
	C157.348,134.184,159.268,136.701,158.9,139.438z"/>
<g>
</g>
<g>
</g>
<g>
</g>
<g>
</g>
<g>
</g>
<g>
</g>
<g>
</g>
<g>
</g>
<g>
</g>
<g>
</g>
<g>
</g>
<g>
</g>
<g>
</g>
<g>
</g>
<g>
</g>
</svg>
