<?xml version="1.0" encoding="iso-8859-1"?>
<!-- Generator: Adobe Illustrator 17.1.0, SVG Export Plug-In . SVG Version: 6.00 Build 0)  -->
<!DOCTYPE svg PUBLIC "-//W3C//DTD SVG 1.1//EN" "http://www.w3.org/Graphics/SVG/1.1/DTD/svg11.dtd">
<svg version="1.1" id="Capa_1" xmlns="http://www.w3.org/2000/svg" xmlns:xlink="http://www.w3.org/1999/xlink" x="0px" y="0px"
	 viewBox="0 0 218.333 218.333" style="enable-background:new 0 0 218.333 218.333;" xml:space="preserve">
<path d="M180.436,218.333H37.897c-8.404,0-15.241-6.837-15.241-15.242V15.241C22.656,6.837,29.493,0,37.897,0h142.539
	c8.404,0,15.241,6.837,15.241,15.241v187.85C195.677,211.495,188.84,218.333,180.436,218.333z M37.897,10
	c-2.89,0-5.241,2.351-5.241,5.241v187.85c0,2.89,2.351,5.242,5.241,5.242h142.539c2.89,0,5.241-2.352,5.241-5.242V15.241
	c0-2.89-2.351-5.241-5.241-5.241H37.897z M86.34,24.271H73.336h-10h-5.288c-8.43,0-15.288,6.858-15.288,15.288
	s6.858,15.288,15.288,15.288h5.288h10H86.34c8.43,0,15.288-6.858,15.288-15.288S94.769,24.271,86.34,24.271z M86.34,44.847H73.336
	V34.271H86.34c2.916,0,5.288,2.372,5.288,5.288S89.256,44.847,86.34,44.847z M131.993,54.847h13.004h10h5.288
	c8.43,0,15.288-6.858,15.288-15.288s-6.858-15.288-15.288-15.288h-5.288h-10h-13.004c-8.43,0-15.288,6.858-15.288,15.288
	S123.563,54.847,131.993,54.847z M131.993,34.271h13.004v10.576h-13.004c-2.916,0-5.288-2.372-5.288-5.288
	S129.077,34.271,131.993,34.271z M86.34,70.676H73.336h-10h-5.288c-8.43,0-15.288,6.858-15.288,15.288s6.858,15.288,15.288,15.288
	h5.288h10H86.34c8.43,0,15.288-6.858,15.288-15.288S94.769,70.676,86.34,70.676z M86.34,91.252H73.336V80.676H86.34
	c2.916,0,5.288,2.372,5.288,5.288S89.256,91.252,86.34,91.252z M160.285,70.676h-5.288h-10h-13.004
	c-8.43,0-15.288,6.858-15.288,15.288s6.858,15.288,15.288,15.288h13.004h10h5.288c8.43,0,15.288-6.858,15.288-15.288
	S168.715,70.676,160.285,70.676z M144.997,91.252h-13.004c-2.916,0-5.288-2.372-5.288-5.288s2.372-5.288,5.288-5.288h13.004V91.252z
	 M86.34,117.081H73.336h-10h-5.288c-8.43,0-15.288,6.858-15.288,15.288s6.858,15.288,15.288,15.288h5.288h10H86.34
	c8.43,0,15.288-6.858,15.288-15.288S94.769,117.081,86.34,117.081z M86.34,137.657H73.336v-10.576H86.34
	c2.916,0,5.288,2.372,5.288,5.288S89.256,137.657,86.34,137.657z M160.285,117.081h-5.288h-10h-13.004
	c-8.43,0-15.288,6.858-15.288,15.288s6.858,15.288,15.288,15.288h13.004h10h5.288c8.43,0,15.288-6.858,15.288-15.288
	S168.715,117.081,160.285,117.081z M144.997,137.657h-13.004c-2.916,0-5.288-2.372-5.288-5.288s2.372-5.288,5.288-5.288h13.004
	V137.657z M86.34,163.485H73.336h-10h-5.288c-8.43,0-15.288,6.858-15.288,15.288s6.858,15.288,15.288,15.288h5.288h10H86.34
	c8.43,0,15.288-6.858,15.288-15.288S94.769,163.485,86.34,163.485z M86.34,184.061H73.336v-10.576H86.34
	c2.916,0,5.288,2.372,5.288,5.288C91.628,181.689,89.256,184.061,86.34,184.061z M160.285,163.485h-5.288h-10h-13.004
	c-8.43,0-15.288,6.858-15.288,15.288s6.858,15.288,15.288,15.288h13.004h10h5.288c8.43,0,15.288-6.858,15.288-15.288
	S168.715,163.485,160.285,163.485z M144.997,184.061h-13.004c-2.916,0-5.288-2.372-5.288-5.288c0-2.916,2.372-5.288,5.288-5.288
	h13.004V184.061z"/>
<g>
</g>
<g>
</g>
<g>
</g>
<g>
</g>
<g>
</g>
<g>
</g>
<g>
</g>
<g>
</g>
<g>
</g>
<g>
</g>
<g>
</g>
<g>
</g>
<g>
</g>
<g>
</g>
<g>
</g>
</svg>
