<?xml version="1.0" encoding="iso-8859-1"?>
<!-- Generator: Adobe Illustrator 17.1.0, SVG Export Plug-In . SVG Version: 6.00 Build 0)  -->
<!DOCTYPE svg PUBLIC "-//W3C//DTD SVG 1.1//EN" "http://www.w3.org/Graphics/SVG/1.1/DTD/svg11.dtd">
<svg version="1.1" id="Capa_1" xmlns="http://www.w3.org/2000/svg" xmlns:xlink="http://www.w3.org/1999/xlink" x="0px" y="0px"
	 viewBox="0 0 208.305 208.305" style="enable-background:new 0 0 208.305 208.305;" xml:space="preserve">
<path d="M153.921,152.74c-47.386,48.088-85.389,55.272-103.827,55.272c-0.002,0-0.002,0-0.004,0
	c-5.994-0.001-9.85-0.77-11.152-1.077c-0.865-0.157-1.674-0.536-2.34-1.096c-0.365-0.304-0.682-0.656-0.943-1.044l-16.593-22.172
	c-4.155-5.552-3.067-13.512,2.426-17.745l38.007-29.291c2.251-1.735,4.941-2.652,7.778-2.652c4.002,0,7.822,1.911,10.218,5.112
	l14.387,19.226c12.981-5.733,25.972-15.148,38.674-28.04c12.751-12.939,22.054-26.177,27.701-39.403l-19.16-14.767
	c-5.492-4.231-6.581-12.191-2.426-17.743l28.899-38.62c2.396-3.201,6.215-5.113,10.218-5.113c2.838,0,5.528,0.918,7.78,2.653
	l21.708,16.73c0.411,0.296,0.774,0.65,1.077,1.051c0.486,0.642,0.805,1.383,0.944,2.154
	C208.392,41.017,217.119,88.603,153.921,152.74z M33.388,101.233c0,2.762,2.238,5,5,5h29.166c2.762,0,5-2.238,5-5V72.846h28.388
	c2.762,0,5-2.238,5-5V38.68c0-2.762-2.238-5-5-5H72.554V5.292c0-2.762-2.238-5-5-5H38.388c-2.762,0-5,2.238-5,5V33.68H5
	c-2.762,0-5,2.238-5,5v29.166c0,2.762,2.238,5,5,5h28.388V101.233z"/>
<g>
</g>
<g>
</g>
<g>
</g>
<g>
</g>
<g>
</g>
<g>
</g>
<g>
</g>
<g>
</g>
<g>
</g>
<g>
</g>
<g>
</g>
<g>
</g>
<g>
</g>
<g>
</g>
<g>
</g>
</svg>
