<?xml version="1.0" encoding="iso-8859-1"?>
<!-- Generator: Adobe Illustrator 17.1.0, SVG Export Plug-In . SVG Version: 6.00 Build 0)  -->
<!DOCTYPE svg PUBLIC "-//W3C//DTD SVG 1.1//EN" "http://www.w3.org/Graphics/SVG/1.1/DTD/svg11.dtd">
<svg version="1.1" id="Capa_1" xmlns="http://www.w3.org/2000/svg" xmlns:xlink="http://www.w3.org/1999/xlink" x="0px" y="0px"
	 viewBox="0 0 208.365 208.365" style="enable-background:new 0 0 208.365 208.365;" xml:space="preserve">
<path d="M13.79,32.384c-0.576-0.081-1.158-0.123-1.731-0.123C5.409,32.261,0,37.687,0,44.356v114.177
	c0,5.985,4.468,11.132,10.394,11.973l52.395,7.432V39.334L13.79,32.384z M53.296,159.005c-0.347,2.502-2.49,4.314-4.946,4.314
	c-0.229,0-0.46-0.016-0.693-0.048l-34.071-4.723c-2.735-0.38-4.646-2.904-4.266-5.64c0.379-2.734,2.905-4.646,5.639-4.267
	l34.071,4.723C51.766,153.745,53.676,156.27,53.296,159.005z M9.319,128.376c0.376-2.736,2.894-4.656,5.635-4.272l26.844,3.69
	c2.735,0.376,4.648,2.898,4.272,5.634c-0.345,2.505-2.488,4.32-4.947,4.32c-0.227,0-0.456-0.016-0.688-0.048l-26.844-3.69
	C10.856,133.634,8.943,131.111,9.319,128.376z M53.296,108.896c-0.347,2.502-2.49,4.314-4.946,4.314
	c-0.229,0-0.46-0.016-0.693-0.048l-34.071-4.723c-2.735-0.38-4.646-2.904-4.266-5.64c0.379-2.734,2.905-4.646,5.639-4.267
	l34.071,4.723C51.766,103.636,53.676,106.16,53.296,108.896z M53.296,83.841c-0.347,2.502-2.49,4.314-4.946,4.314
	c-0.229,0-0.46-0.016-0.693-0.049l-34.071-4.724c-2.735-0.379-4.646-2.903-4.266-5.639c0.379-2.735,2.905-4.659,5.639-4.266
	l34.071,4.724C51.766,78.581,53.676,81.105,53.296,83.841z M53.296,58.786c-0.347,2.502-2.49,4.314-4.946,4.314
	c-0.229,0-0.46-0.016-0.693-0.049l-34.071-4.724c-2.735-0.379-4.646-2.903-4.266-5.639c0.379-2.735,2.905-4.656,5.639-4.266
	l34.071,4.724C51.766,53.526,53.676,56.051,53.296,58.786z M197.971,37.859l-52.394-7.432v138.604l48.999,6.95
	c0.576,0.081,1.158,0.123,1.731,0.123c6.649,0,12.058-5.426,12.058-12.095V49.832C208.365,43.848,203.896,38.7,197.971,37.859z
	 M198.959,156.127c-0.347,2.502-2.49,4.314-4.946,4.314c-0.229,0-0.46-0.016-0.693-0.048l-34.071-4.723
	c-2.735-0.38-4.646-2.904-4.266-5.64c0.379-2.734,2.901-4.643,5.639-4.267l34.071,4.723
	C197.429,150.867,199.339,153.392,198.959,156.127z M154.983,125.747c0.379-2.735,2.901-4.645,5.639-4.267l20.949,2.903
	c2.735,0.38,4.645,2.904,4.266,5.64c-0.347,2.502-2.49,4.314-4.946,4.314c-0.229,0-0.46-0.016-0.693-0.048l-20.949-2.903
	C156.514,131.007,154.604,128.482,154.983,125.747z M198.959,107.559c-0.347,2.502-2.49,4.314-4.946,4.314
	c-0.229,0-0.46-0.016-0.693-0.049l-34.071-4.724c-2.735-0.379-4.646-2.903-4.266-5.639c0.379-2.735,2.909-4.653,5.639-4.266
	l34.071,4.724C197.429,102.299,199.339,104.823,198.959,107.559z M154.983,77.178c0.379-2.735,2.909-4.654,5.639-4.266l10.474,1.452
	c2.735,0.379,4.646,2.903,4.266,5.639c-0.347,2.502-2.49,4.314-4.946,4.314c-0.229,0-0.46-0.016-0.693-0.049l-10.474-1.452
	C156.514,82.438,154.604,79.913,154.983,77.178z M198.959,58.99c-0.347,2.502-2.49,4.314-4.946,4.314
	c-0.229,0-0.46-0.016-0.693-0.049l-34.071-4.724c-2.735-0.379-4.646-2.903-4.266-5.639c0.379-2.735,2.909-4.654,5.639-4.266
	l34.071,4.724C197.429,53.73,199.339,56.255,198.959,58.99z M72.788,39.334v138.604l62.789-8.906V30.428L72.788,39.334z
	 M84.02,55.159c0-2.497,1.842-4.611,4.316-4.953l31.94-4.411c1.435-0.197,2.879,0.233,3.969,1.184
	c1.09,0.949,1.715,2.324,1.715,3.77v51.013c0,2.497-1.842,4.611-4.316,4.953l-31.94,4.411c-0.228,0.031-0.457,0.047-0.684,0.047
	c-1.2,0-2.369-0.432-3.285-1.23c-1.09-0.949-1.715-2.324-1.715-3.77V55.159z M123.777,155.671l-34.071,4.723
	c-0.233,0.032-0.464,0.048-0.693,0.048c-2.457,0-4.6-1.812-4.946-4.314c-0.379-2.735,1.531-5.26,4.266-5.64l34.071-4.723
	c2.74-0.374,5.261,1.531,5.639,4.267C128.423,152.767,126.513,155.291,123.777,155.671z M123.777,132.924l-34.071,4.724
	c-0.233,0.033-0.464,0.049-0.693,0.049c-2.457,0-4.599-1.812-4.946-4.314c-0.379-2.735,1.531-5.26,4.266-5.639l34.071-4.724
	c2.735-0.393,5.26,1.529,5.639,4.266C128.423,130.021,126.513,132.545,123.777,132.924z"/>
<g>
</g>
<g>
</g>
<g>
</g>
<g>
</g>
<g>
</g>
<g>
</g>
<g>
</g>
<g>
</g>
<g>
</g>
<g>
</g>
<g>
</g>
<g>
</g>
<g>
</g>
<g>
</g>
<g>
</g>
</svg>
