<?xml version="1.0" encoding="iso-8859-1"?>
<!-- Generator: Adobe Illustrator 17.1.0, SVG Export Plug-In . SVG Version: 6.00 Build 0)  -->
<!DOCTYPE svg PUBLIC "-//W3C//DTD SVG 1.1//EN" "http://www.w3.org/Graphics/SVG/1.1/DTD/svg11.dtd">
<svg version="1.1" id="Capa_1" xmlns="http://www.w3.org/2000/svg" xmlns:xlink="http://www.w3.org/1999/xlink" x="0px" y="0px"
	 viewBox="0 0 223.629 223.629" style="enable-background:new 0 0 223.629 223.629;" xml:space="preserve">
<path d="M78.729,10.571v6.65V51.54v16.944c0,1.354-0.549,2.649-1.521,3.591c-0.121,0.119-13.421,13.444-13.421,35.018v111.536
	c0,2.762-2.238,5-5,5s-5-2.238-5-5V107.093c0-21.505,10.845-35.901,14.941-40.572v-9.98H52.688c-2.762,0-5-2.238-5-5V17.222
	c0-2.762,2.238-5,5-5h16.041v-1.65c0-2.762,2.238-5,5-5S78.729,7.81,78.729,10.571z M175.941,218.095c0,2.762-2.238,5-5,5
	c-0.004,0.001-0.012,0-0.02,0h-69.333c-1.351,0-2.645-0.547-3.586-1.516s-1.451-2.277-1.412-3.628l5-174.17
	c0.078-2.704,2.293-4.856,4.998-4.856h12V14.25c0-7.857,6.393-14.25,14.25-14.25h8.166c7.857,0,14.25,6.393,14.25,14.25v24.675
	h10.667c2.705,0,4.92,2.152,4.998,4.856l4.987,173.719C175.93,217.695,175.941,217.894,175.941,218.095z M128.589,38.925h16.666
	V14.25c0-2.344-1.906-4.25-4.25-4.25h-8.166c-2.344,0-4.25,1.906-4.25,4.25V38.925z"/>
<g>
</g>
<g>
</g>
<g>
</g>
<g>
</g>
<g>
</g>
<g>
</g>
<g>
</g>
<g>
</g>
<g>
</g>
<g>
</g>
<g>
</g>
<g>
</g>
<g>
</g>
<g>
</g>
<g>
</g>
</svg>
