<?xml version="1.0" encoding="iso-8859-1"?>
<!-- Generator: Adobe Illustrator 17.1.0, SVG Export Plug-In . SVG Version: 6.00 Build 0)  -->
<!DOCTYPE svg PUBLIC "-//W3C//DTD SVG 1.1//EN" "http://www.w3.org/Graphics/SVG/1.1/DTD/svg11.dtd">
<svg version="1.1" id="Capa_1" xmlns="http://www.w3.org/2000/svg" xmlns:xlink="http://www.w3.org/1999/xlink" x="0px" y="0px"
	 viewBox="0 0 202.861 202.861" style="enable-background:new 0 0 202.861 202.861;" xml:space="preserve">
<path d="M173.431,0h-144C15.9,0,4.931,10.969,4.931,24.5v153.861c0,13.531,10.969,24.5,24.5,24.5h144
	c13.531,0,24.5-10.969,24.5-24.5V24.5C197.931,10.969,186.962,0,173.431,0z M122.925,69.577H79.936
	c-15.419,0-27.918-12.499-27.918-27.918c0-15.419,12.499-27.918,27.918-27.918h42.989c15.419,0,27.918,12.499,27.918,27.918
	C150.843,57.078,138.344,69.577,122.925,69.577z M94.681,28.284v26.749 M120.763,23.285h-8.076c-4.779,0-8.667,3.888-8.667,8.667
	v19.415c0,4.779,3.888,8.667,8.667,8.667h8.076c4.779,0,8.667-3.888,8.667-8.667V31.952
	C129.431,27.173,125.542,23.285,120.763,23.285z M119.431,50.034h-5.411V33.285h5.411V50.034z M99.681,28.285v26.749
	c0,2.761-2.239,5-5,5s-5-2.239-5-5v-8.375h-10.25c-2.761,0-5-2.239-5-5V28.285c0-2.761,2.239-5,5-5s5,2.239,5,5v8.375h5.25v-8.375
	c0-2.761,2.239-5,5-5S99.681,25.523,99.681,28.285z"/>
<g>
</g>
<g>
</g>
<g>
</g>
<g>
</g>
<g>
</g>
<g>
</g>
<g>
</g>
<g>
</g>
<g>
</g>
<g>
</g>
<g>
</g>
<g>
</g>
<g>
</g>
<g>
</g>
<g>
</g>
</svg>
