<?xml version="1.0" encoding="iso-8859-1"?>
<!-- Generator: Adobe Illustrator 17.1.0, SVG Export Plug-In . SVG Version: 6.00 Build 0)  -->
<!DOCTYPE svg PUBLIC "-//W3C//DTD SVG 1.1//EN" "http://www.w3.org/Graphics/SVG/1.1/DTD/svg11.dtd">
<svg version="1.1" id="Capa_1" xmlns="http://www.w3.org/2000/svg" xmlns:xlink="http://www.w3.org/1999/xlink" x="0px" y="0px"
	 viewBox="0 0 199.384 199.384" style="enable-background:new 0 0 199.384 199.384;" xml:space="preserve">
<g>
	<path d="M70.179,83.889c-25.198,0-45.698,20.5-45.698,45.698s20.5,45.698,45.698,45.698s45.698-20.5,45.698-45.698
		S95.377,83.889,70.179,83.889z"/>
	<path d="M194.001,172.579h-10.802c-2.992-6.543-9.583-11.109-17.235-11.109c-2.468,0-4.821,0.488-6.985,1.35l-5.983-37.381
		c-1.293-8.08-7.742-14.103-15.697-14.988c-2.845-9.943-7.843-18.986-14.456-26.592v-26.88h2.826c2.761,0,5-2.238,5-5s-2.239-5-5-5
		h-7.826H75.501H28.31C25.196,27.8,22.012,8.257,21.35,4.197c-0.444-2.726-3.014-4.58-5.739-4.13
		c-2.726,0.444-4.575,3.014-4.131,5.739c2.724,16.714,8.734,53.64,11.723,72.205c-14.013,12.774-22.82,31.165-22.82,51.575
		c0,38.486,31.311,69.797,69.796,69.797s69.796-31.311,69.796-69.797c0-2.724-0.175-5.407-0.481-8.05
		c1.887,1.18,3.25,3.134,3.627,5.483l6.91,43.173c-1.905,2.956-3.025,6.464-3.025,10.234c0,10.453,8.504,18.957,18.957,18.957
		c9.724,0,17.753-7.363,18.826-16.805h9.211c2.761,0,5-2.238,5-5S196.762,172.579,194.001,172.579z M75.501,56.978h37.341v17.427
		c-11.807-9.149-26.604-14.614-42.663-14.614c-13.995,0-27.03,4.156-37.967,11.276c-0.687-4.254-1.464-9.055-2.28-14.088H75.501z
		 M70.179,185.285c-30.712,0-55.698-24.986-55.698-55.698s24.986-55.698,55.698-55.698s55.698,24.986,55.698,55.698
		S100.891,185.285,70.179,185.285z"/>
</g>
<g>
</g>
<g>
</g>
<g>
</g>
<g>
</g>
<g>
</g>
<g>
</g>
<g>
</g>
<g>
</g>
<g>
</g>
<g>
</g>
<g>
</g>
<g>
</g>
<g>
</g>
<g>
</g>
<g>
</g>
</svg>
