<?xml version="1.0" encoding="UTF-8" standalone="no"?>
<!-- Created with Inkscape (http://www.inkscape.org/) -->

<svg
   xmlns:dc="http://purl.org/dc/elements/1.1/"
   xmlns:cc="http://creativecommons.org/ns#"
   xmlns:rdf="http://www.w3.org/1999/02/22-rdf-syntax-ns#"
   xmlns:svg="http://www.w3.org/2000/svg"
   xmlns="http://www.w3.org/2000/svg"
   xmlns:sodipodi="http://sodipodi.sourceforge.net/DTD/sodipodi-0.dtd"
   xmlns:inkscape="http://www.inkscape.org/namespaces/inkscape"
   width="56"
   height="56"
   id="svg2821"
   version="1.1"
   inkscape:version="0.47 r22583"
   sodipodi:docname="New document 1">
  <defs
     id="defs2823">
    <inkscape:perspective
       sodipodi:type="inkscape:persp3d"
       inkscape:vp_x="0 : 526.18109 : 1"
       inkscape:vp_y="0 : 1000 : 0"
       inkscape:vp_z="744.09448 : 526.18109 : 1"
       inkscape:persp3d-origin="372.04724 : 350.78739 : 1"
       id="perspective2829" />
    <inkscape:perspective
       id="perspective2839"
       inkscape:persp3d-origin="0.5 : 0.33333333 : 1"
       inkscape:vp_z="1 : 0.5 : 1"
       inkscape:vp_y="0 : 1000 : 0"
       inkscape:vp_x="0 : 0.5 : 1"
       sodipodi:type="inkscape:persp3d" />
  </defs>
  <sodipodi:namedview
     id="base"
     pagecolor="#ffffff"
     bordercolor="#666666"
     borderopacity="1.0"
     inkscape:pageopacity="0.0"
     inkscape:pageshadow="2"
     inkscape:zoom="3.959798"
     inkscape:cx="28.474007"
     inkscape:cy="9.7287818"
     inkscape:document-units="px"
     inkscape:current-layer="layer1"
     showgrid="false"
     inkscape:window-width="877"
     inkscape:window-height="736"
     inkscape:window-x="5"
     inkscape:window-y="81"
     inkscape:window-maximized="0" />
  <metadata
     id="metadata2826">
    <rdf:RDF>
      <cc:Work
         rdf:about="">
        <dc:format>image/svg+xml</dc:format>
        <dc:type
           rdf:resource="http://purl.org/dc/dcmitype/StillImage" />
        <dc:title></dc:title>
      </cc:Work>
    </rdf:RDF>
  </metadata>
  <g
     inkscape:label="Layer 1"
     inkscape:groupmode="layer"
     id="layer1"
     transform="translate(0,-996.36218)">
    <g
       transform="matrix(0.16393335,0,0,0.16393443,-13.904286,982.07893)"
       id="g3">
      <path
         d="m 256,103.5 c -84.089,0 -152.502,68.411 -152.502,152.5 0,84.089 68.413,152.5 152.502,152.5 84.09,0 152.5,-68.411 152.5,-152.5 0,-84.089 -68.41,-152.5 -152.5,-152.5 z m 0,280 c -70.304,0 -127.502,-57.196 -127.502,-127.5 0,-70.304 57.198,-127.5 127.502,-127.5 70.305,0 127.5,57.196 127.5,127.5 0,70.304 -57.195,127.5 -127.5,127.5 z"
         id="path5" />
      <path
         d="M 329.497,243.5 H 268.5 v -60.996 c 0,-6.903 -5.596,-12.5 -12.5,-12.5 -6.902,0 -12.5,5.597 -12.5,12.5 V 243.5 h -60.995 c -6.903,0 -12.5,5.597 -12.5,12.5 0,6.903 5.597,12.5 12.5,12.5 H 243.5 v 60.996 c 0,6.903 5.598,12.5 12.5,12.5 6.904,0 12.5,-5.597 12.5,-12.5 V 268.5 h 60.997 c 6.903,0 12.5,-5.597 12.5,-12.5 0,-6.903 -5.597,-12.5 -12.5,-12.5 z"
         id="path7" />
    </g>
  </g>
</svg>
